solid OpenSCAD_Model
  facet normal -0.35356 -0.612387 -0.707091
    outer loop
      vertex 0 -35.7957 0
      vertex -32 -18.4752 1
      vertex -31 -17.8979 0
    endloop
  endfacet
  facet normal 0.5 -0.866026 2.16506e-06
    outer loop
      vertex 0 -36.9504 100
      vertex 31 -19.0526 80
      vertex 32 -18.4752 100
    endloop
  endfacet
  facet normal 0.499999 -0.866026 0
    outer loop
      vertex 0 -36.9504 1
      vertex 31 -19.0526 80
      vertex 0 -36.9504 100
    endloop
  endfacet
  facet normal 0.499999 -0.866026 0
    outer loop
      vertex 31 -19.0526 80
      vertex 0 -36.9504 1
      vertex 31 -19.0526 1
    endloop
  endfacet
  facet normal 0.500032 -0.866007 0
    outer loop
      vertex 32 -18.4752 100
      vertex 31 -19.0526 80
      vertex 32 -18.4752 80
    endloop
  endfacet
  facet normal 0.353552 -0.612373 -0.707107
    outer loop
      vertex 0 -35.7957 0
      vertex 31 -19.0526 1
      vertex 0 -36.9504 1
    endloop
  endfacet
  facet normal 0.353485 -0.612238 -0.707257
    outer loop
      vertex 31 -19.0526 1
      vertex 0 -35.7957 0
      vertex 31 -19.0165 0.96875
    endloop
  endfacet
  facet normal -0.5 -0.866026 0
    outer loop
      vertex -32 -18.4752 1
      vertex 0 -36.9504 100
      vertex -32 -18.4752 100
    endloop
  endfacet
  facet normal -0.5 -0.866026 -0
    outer loop
      vertex 0 -36.9504 100
      vertex -32 -18.4752 1
      vertex 0 -36.9504 1
    endloop
  endfacet
  facet normal 1 0 0
    outer loop
      vertex 32 18.4752 100
      vertex 32 17.3205 83
      vertex 32 18.4752 80
    endloop
  endfacet
  facet normal 1 0 0
    outer loop
      vertex 32 18.4752 100
      vertex 32 -17.3205 83
      vertex 32 17.3205 83
    endloop
  endfacet
  facet normal 1 -0 0
    outer loop
      vertex 32 -18.4752 100
      vertex 32 -17.3205 83
      vertex 32 18.4752 100
    endloop
  endfacet
  facet normal 1 0 0
    outer loop
      vertex 32 -18.4752 80
      vertex 32 -17.3205 83
      vertex 32 -18.4752 100
    endloop
  endfacet
  facet normal 1 0 0
    outer loop
      vertex 32 -17.3205 83
      vertex 32 -18.4752 80
      vertex 32 -17.3205 80
    endloop
  endfacet
  facet normal 1 0 0
    outer loop
      vertex 32 18.4752 80
      vertex 32 17.3205 83
      vertex 32 17.3205 80
    endloop
  endfacet
  facet normal 1 0 0
    outer loop
      vertex 32 -17.3205 80
      vertex 32 17.3205 80
      vertex 32 17.3205 83
    endloop
  endfacet
  facet normal 1 0 0
    outer loop
      vertex 32 -17.3205 80
      vertex 32 17.3205 83
      vertex 32 -17.3205 83
    endloop
  endfacet
  facet normal 1 0 0
    outer loop
      vertex 32 17.3205 80
      vertex 32 -17.3205 80
      vertex 32 17.3205 2
    endloop
  endfacet
  facet normal 1 0 0
    outer loop
      vertex 32 17.3205 2
      vertex 32 -17.3205 80
      vertex 32 -17.3205 2
    endloop
  endfacet
  facet normal -0.35356 0.612387 -0.707091
    outer loop
      vertex -31 17.8979 0
      vertex -32 18.4752 1
      vertex 0 35.7957 0
    endloop
  endfacet
  facet normal 0 0 1
    outer loop
      vertex 32 18.4752 100
      vertex 30 17.3205 100
      vertex 32 -18.4752 100
    endloop
  endfacet
  facet normal 0 0 1
    outer loop
      vertex 0 36.9504 100
      vertex 30 17.3205 100
      vertex 32 18.4752 100
    endloop
  endfacet
  facet normal 0 0 1
    outer loop
      vertex 0 36.9504 100
      vertex 0 34.641 100
      vertex 30 17.3205 100
    endloop
  endfacet
  facet normal 0 0 1
    outer loop
      vertex 0 36.9504 100
      vertex -30 17.3205 100
      vertex 0 34.641 100
    endloop
  endfacet
  facet normal 0 0 1
    outer loop
      vertex -30 17.3205 100
      vertex -32 18.4752 100
      vertex -30 -17.3205 100
    endloop
  endfacet
  facet normal -0 0 1
    outer loop
      vertex -32 18.4752 100
      vertex -30 17.3205 100
      vertex 0 36.9504 100
    endloop
  endfacet
  facet normal -0 0 1
    outer loop
      vertex 30 -17.3205 100
      vertex 32 -18.4752 100
      vertex 30 17.3205 100
    endloop
  endfacet
  facet normal 0 0 1
    outer loop
      vertex 0 -34.641 100
      vertex 32 -18.4752 100
      vertex 30 -17.3205 100
    endloop
  endfacet
  facet normal -0 0 1
    outer loop
      vertex 0 -34.641 100
      vertex 0 -36.9504 100
      vertex 32 -18.4752 100
    endloop
  endfacet
  facet normal 0 0 1
    outer loop
      vertex -30 -17.3205 100
      vertex 0 -36.9504 100
      vertex 0 -34.641 100
    endloop
  endfacet
  facet normal 0 0 1
    outer loop
      vertex -30 -17.3205 100
      vertex -32 -18.4752 100
      vertex 0 -36.9504 100
    endloop
  endfacet
  facet normal 0 0 1
    outer loop
      vertex -32 -18.4752 100
      vertex -30 -17.3205 100
      vertex -32 18.4752 100
    endloop
  endfacet
  facet normal 0.500032 0.866007 0
    outer loop
      vertex 31 19.0526 80
      vertex 32 18.4752 100
      vertex 32 18.4752 80
    endloop
  endfacet
  facet normal 0.5 0.866026 2.16506e-06
    outer loop
      vertex 32 18.4752 100
      vertex 31 19.0526 80
      vertex 0 36.9504 100
    endloop
  endfacet
  facet normal 0.5 0.866026 0
    outer loop
      vertex 1 36.3731 63
      vertex 31 19.0526 80
      vertex 31 19.0526 63
    endloop
  endfacet
  facet normal 0.499999 0.866026 1.15265e-06
    outer loop
      vertex 31 19.0526 80
      vertex 1 36.3731 63
      vertex 0 36.9504 100
    endloop
  endfacet
  facet normal 0.499967 0.866044 0
    outer loop
      vertex 0 36.9504 60
      vertex 1 36.3731 63
      vertex 1 36.3731 60
    endloop
  endfacet
  facet normal 0.499967 0.866044 0
    outer loop
      vertex 1 36.3731 63
      vertex 0 36.9504 60
      vertex 0 36.9504 100
    endloop
  endfacet
  facet normal 0.353555 -0.612377 -0.707102
    outer loop
      vertex 31 -19.0165 0.96875
      vertex 0 -35.7957 0
      vertex 31 -17.8979 0
    endloop
  endfacet
  facet normal -0.353546 0.612359 -0.707122
    outer loop
      vertex 0 35.7957 0
      vertex -32 18.4752 1
      vertex -1 36.3731 1
    endloop
  endfacet
  facet normal -0.499967 0.866044 0
    outer loop
      vertex -1 36.3731 60
      vertex 0 36.9504 100
      vertex 0 36.9504 60
    endloop
  endfacet
  facet normal -0.5 0.866026 1.08253e-06
    outer loop
      vertex 0 36.9504 100
      vertex -1 36.3731 60
      vertex -32 18.4752 100
    endloop
  endfacet
  facet normal -0.500001 0.866025 0
    outer loop
      vertex -32 18.4752 1
      vertex -1 36.3731 60
      vertex -1 36.3731 1
    endloop
  endfacet
  facet normal -0.500001 0.866025 0
    outer loop
      vertex -1 36.3731 60
      vertex -32 18.4752 1
      vertex -32 18.4752 100
    endloop
  endfacet
  facet normal -0.353553 -0.612373 -0.707107
    outer loop
      vertex 0 -36.9504 1
      vertex -32 -18.4752 1
      vertex 0 -35.7957 0
    endloop
  endfacet
  facet normal 0 0 -1
    outer loop
      vertex -31 -17.8979 0
      vertex 0 35.7957 0
      vertex 0 -35.7957 0
    endloop
  endfacet
  facet normal 0 0 -1
    outer loop
      vertex 0 35.7957 0
      vertex -31 -17.8979 0
      vertex -31 17.8979 0
    endloop
  endfacet
  facet normal 0 0 -1
    outer loop
      vertex 62 -35.7957 0
      vertex 93 17.8979 0
      vertex 93 -17.8979 0
    endloop
  endfacet
  facet normal 0 0 -1
    outer loop
      vertex 62 -35.7957 0
      vertex 62 35.7957 0
      vertex 93 17.8979 0
    endloop
  endfacet
  facet normal 0 0 -1
    outer loop
      vertex 31 -17.8979 0
      vertex 62 35.7957 0
      vertex 62 -35.7957 0
    endloop
  endfacet
  facet normal 0 0 -1
    outer loop
      vertex 0 35.7957 0
      vertex 62 35.7957 0
      vertex 31 -17.8979 0
    endloop
  endfacet
  facet normal 0 0 -1
    outer loop
      vertex 62 35.7957 0
      vertex 0 35.7957 0
      vertex 62 71.5899 0
    endloop
  endfacet
  facet normal 0 0 -1
    outer loop
      vertex 0 35.7957 0
      vertex 31 -17.8979 0
      vertex 0 -35.7957 0
    endloop
  endfacet
  facet normal -0 0 -1
    outer loop
      vertex 62 71.5899 0
      vertex 0 35.7957 0
      vertex 31 89.4877 0
    endloop
  endfacet
  facet normal 0 0 -1
    outer loop
      vertex 31 89.4877 0
      vertex 0 35.7957 0
      vertex 0 71.5899 0
    endloop
  endfacet
  facet normal -1 0 0
    outer loop
      vertex -32 -18.4752 1
      vertex -32 18.4752 100
      vertex -32 18.4752 1
    endloop
  endfacet
  facet normal -1 -0 0
    outer loop
      vertex -32 18.4752 100
      vertex -32 -18.4752 1
      vertex -32 -18.4752 100
    endloop
  endfacet
  facet normal -0.707107 0 -0.707107
    outer loop
      vertex -31 -17.8979 0
      vertex -32 18.4752 1
      vertex -31 17.8979 0
    endloop
  endfacet
  facet normal -0.707107 -0 -0.707107
    outer loop
      vertex -32 18.4752 1
      vertex -31 -17.8979 0
      vertex -32 -18.4752 1
    endloop
  endfacet
  facet normal -0.353555 -0.612377 -0.707102
    outer loop
      vertex 31 -19.0165 0.96875
      vertex 31 -17.8979 0
      vertex 62 -35.7957 0
    endloop
  endfacet
  facet normal 0.5 -0.866026 0
    outer loop
      vertex 62 -36.9504 1
      vertex 94 -18.4752 80
      vertex 62 -36.9504 80
    endloop
  endfacet
  facet normal 0.5 -0.866026 0
    outer loop
      vertex 94 -18.4752 80
      vertex 62 -36.9504 1
      vertex 94 -18.4752 1
    endloop
  endfacet
  facet normal 0.353553 -0.612373 -0.707107
    outer loop
      vertex 94 -18.4752 1
      vertex 62 -36.9504 1
      vertex 62 -35.7957 0
    endloop
  endfacet
  facet normal 0.707107 0 -0.707107
    outer loop
      vertex 94 18.4752 1
      vertex 93 -17.8979 0
      vertex 93 17.8979 0
    endloop
  endfacet
  facet normal 0.707107 0 -0.707107
    outer loop
      vertex 93 -17.8979 0
      vertex 94 18.4752 1
      vertex 94 -18.4752 1
    endloop
  endfacet
  facet normal -0.499999 -0.866026 0
    outer loop
      vertex 31 -19.0526 1
      vertex 62 -36.9504 80
      vertex 31 -19.0526 80
    endloop
  endfacet
  facet normal -0.499999 -0.866026 -0
    outer loop
      vertex 62 -36.9504 80
      vertex 31 -19.0526 1
      vertex 62 -36.9504 1
    endloop
  endfacet
  facet normal 1 -0 0
    outer loop
      vertex 94 -18.4752 80
      vertex 94 18.4752 1
      vertex 94 18.4752 80
    endloop
  endfacet
  facet normal 1 0 0
    outer loop
      vertex 94 18.4752 1
      vertex 94 -18.4752 80
      vertex 94 -18.4752 1
    endloop
  endfacet
  facet normal 0 0 1
    outer loop
      vertex 94 18.4752 80
      vertex 92 17.3205 80
      vertex 94 -18.4752 80
    endloop
  endfacet
  facet normal 0 0 1
    outer loop
      vertex 62 36.9504 80
      vertex 92 17.3205 80
      vertex 94 18.4752 80
    endloop
  endfacet
  facet normal 0 0 1
    outer loop
      vertex 62 36.9504 80
      vertex 62 34.641 80
      vertex 92 17.3205 80
    endloop
  endfacet
  facet normal 0 0 1
    outer loop
      vertex 62 36.9504 80
      vertex 32 18.4752 80
      vertex 62 34.641 80
    endloop
  endfacet
  facet normal 0 -0 1
    outer loop
      vertex 32 18.4752 80
      vertex 62 36.9504 80
      vertex 31 19.0526 80
    endloop
  endfacet
  facet normal -0 0 1
    outer loop
      vertex 92 -17.3205 80
      vertex 94 -18.4752 80
      vertex 92 17.3205 80
    endloop
  endfacet
  facet normal 0 0 1
    outer loop
      vertex 62 -34.641 80
      vertex 94 -18.4752 80
      vertex 92 -17.3205 80
    endloop
  endfacet
  facet normal -0 0 1
    outer loop
      vertex 62 -34.641 80
      vertex 62 -36.9504 80
      vertex 94 -18.4752 80
    endloop
  endfacet
  facet normal -0 0 1
    outer loop
      vertex 32 -18.4752 80
      vertex 62 -34.641 80
      vertex 32 -17.3205 80
    endloop
  endfacet
  facet normal 0 0 1
    outer loop
      vertex 62 -34.641 80
      vertex 32 -18.4752 80
      vertex 62 -36.9504 80
    endloop
  endfacet
  facet normal 0 0 1
    outer loop
      vertex 62 -36.9504 80
      vertex 32 -18.4752 80
      vertex 31 -19.0526 80
    endloop
  endfacet
  facet normal 0 0 1
    outer loop
      vertex 62 34.641 80
      vertex 32 18.4752 80
      vertex 32 17.3205 80
    endloop
  endfacet
  facet normal 0.5 0.866026 2.16506e-06
    outer loop
      vertex 94 18.4752 80
      vertex 63 36.3731 60
      vertex 62 36.9504 80
    endloop
  endfacet
  facet normal 0.500001 0.866025 -0
    outer loop
      vertex 94 18.4752 1
      vertex 63 36.3731 60
      vertex 94 18.4752 80
    endloop
  endfacet
  facet normal 0.500001 0.866025 0
    outer loop
      vertex 63 36.3731 60
      vertex 94 18.4752 1
      vertex 63 36.3731 1
    endloop
  endfacet
  facet normal 0.499967 0.866044 0
    outer loop
      vertex 62 36.9504 80
      vertex 63 36.3731 60
      vertex 62 36.9504 60
    endloop
  endfacet
  facet normal 0.35356 -0.612387 -0.707091
    outer loop
      vertex 94 -18.4752 1
      vertex 62 -35.7957 0
      vertex 93 -17.8979 0
    endloop
  endfacet
  facet normal -0.499999 0.866026 2.46497e-06
    outer loop
      vertex 62 36.9504 80
      vertex 61 36.3731 63
      vertex 31 19.0526 80
    endloop
  endfacet
  facet normal -0.499967 0.866044 0
    outer loop
      vertex 62 36.9504 60
      vertex 61 36.3731 63
      vertex 62 36.9504 80
    endloop
  endfacet
  facet normal -0.499967 0.866044 0
    outer loop
      vertex 61 36.3731 63
      vertex 62 36.9504 60
      vertex 61 36.3731 60
    endloop
  endfacet
  facet normal -0.5 0.866026 0
    outer loop
      vertex 31 19.0526 80
      vertex 61 36.3731 63
      vertex 31 19.0526 63
    endloop
  endfacet
  facet normal -0.353552 -0.612373 -0.707107
    outer loop
      vertex 31 -19.0526 1
      vertex 62 -35.7957 0
      vertex 62 -36.9504 1
    endloop
  endfacet
  facet normal -0.353485 -0.612238 -0.707257
    outer loop
      vertex 62 -35.7957 0
      vertex 31 -19.0526 1
      vertex 31 -19.0165 0.96875
    endloop
  endfacet
  facet normal 0.353546 0.612359 -0.707122
    outer loop
      vertex 94 18.4752 1
      vertex 62 35.7957 0
      vertex 63 36.3731 1
    endloop
  endfacet
  facet normal 0.35356 0.612387 -0.707091
    outer loop
      vertex 93 17.8979 0
      vertex 62 35.7957 0
      vertex 94 18.4752 1
    endloop
  endfacet
  facet normal -0.353552 0.612373 -0.707107
    outer loop
      vertex 31 89.4877 0
      vertex 0 71.5899 0
      vertex 31 90.6424 1
    endloop
  endfacet
  facet normal 0.353552 0.612373 -0.707107
    outer loop
      vertex 62 71.5899 0
      vertex 31 89.4877 0
      vertex 31 90.6424 1
    endloop
  endfacet
  facet normal -1 0 0
    outer loop
      vertex -1 36.3731 1
      vertex -1 72.1672 60
      vertex -1 72.1672 1
    endloop
  endfacet
  facet normal -1 -0 0
    outer loop
      vertex -1 72.1672 60
      vertex -1 36.3731 1
      vertex -1 36.3731 60
    endloop
  endfacet
  facet normal 0.5 0.866026 -0
    outer loop
      vertex 63 72.1672 1
      vertex 31 90.6424 60
      vertex 63 72.1672 60
    endloop
  endfacet
  facet normal 0.5 0.866026 0
    outer loop
      vertex 31 90.6424 60
      vertex 63 72.1672 1
      vertex 31 90.6424 1
    endloop
  endfacet
  facet normal -0.353561 0.612386 -0.707091
    outer loop
      vertex 0 71.5899 0
      vertex -1 72.1672 1
      vertex 31 90.6424 1
    endloop
  endfacet
  facet normal 0.707107 0 -0.707107
    outer loop
      vertex 63 36.3731 1
      vertex 62 71.5899 0
      vertex 63 72.1672 1
    endloop
  endfacet
  facet normal 0.707107 0 -0.707107
    outer loop
      vertex 62 71.5899 0
      vertex 63 36.3731 1
      vertex 62 35.7957 0
    endloop
  endfacet
  facet normal -0.5 0.866026 0
    outer loop
      vertex 31 90.6424 1
      vertex -1 72.1672 60
      vertex 31 90.6424 60
    endloop
  endfacet
  facet normal -0.5 0.866026 0
    outer loop
      vertex -1 72.1672 60
      vertex 31 90.6424 1
      vertex -1 72.1672 1
    endloop
  endfacet
  facet normal 0 0 1
    outer loop
      vertex 63 72.1672 60
      vertex 62 36.9504 60
      vertex 63 36.3731 60
    endloop
  endfacet
  facet normal 0 0 1
    outer loop
      vertex 63 72.1672 60
      vertex 61 71.0125 60
      vertex 62 36.9504 60
    endloop
  endfacet
  facet normal 0 0 1
    outer loop
      vertex 31 90.6424 60
      vertex 61 71.0125 60
      vertex 63 72.1672 60
    endloop
  endfacet
  facet normal 0 0 1
    outer loop
      vertex 31 90.6424 60
      vertex 31 88.333 60
      vertex 61 71.0125 60
    endloop
  endfacet
  facet normal 0 0 1
    outer loop
      vertex 31 90.6424 60
      vertex 1 71.0125 60
      vertex 31 88.333 60
    endloop
  endfacet
  facet normal 0 0 1
    outer loop
      vertex 1 71.0125 60
      vertex 0 36.9504 60
      vertex 1 36.3731 60
    endloop
  endfacet
  facet normal -0 0 1
    outer loop
      vertex -1 72.1672 60
      vertex 1 71.0125 60
      vertex 31 90.6424 60
    endloop
  endfacet
  facet normal 0 0 1
    outer loop
      vertex -1 72.1672 60
      vertex 0 36.9504 60
      vertex 1 71.0125 60
    endloop
  endfacet
  facet normal 0 0 1
    outer loop
      vertex 0 36.9504 60
      vertex -1 72.1672 60
      vertex -1 36.3731 60
    endloop
  endfacet
  facet normal 0 0 1
    outer loop
      vertex 62 36.9504 60
      vertex 61 71.0125 60
      vertex 61 36.3731 60
    endloop
  endfacet
  facet normal 1 -0 0
    outer loop
      vertex 63 36.3731 60
      vertex 63 72.1672 1
      vertex 63 72.1672 60
    endloop
  endfacet
  facet normal 1 0 0
    outer loop
      vertex 63 72.1672 1
      vertex 63 36.3731 60
      vertex 63 36.3731 1
    endloop
  endfacet
  facet normal 0.353561 0.612386 -0.707091
    outer loop
      vertex 62 71.5899 0
      vertex 31 90.6424 1
      vertex 63 72.1672 1
    endloop
  endfacet
  facet normal -0.707107 0 -0.707107
    outer loop
      vertex 0 71.5899 0
      vertex -1 36.3731 1
      vertex -1 72.1672 1
    endloop
  endfacet
  facet normal -0.707107 0 -0.707107
    outer loop
      vertex -1 36.3731 1
      vertex 0 71.5899 0
      vertex 0 35.7957 0
    endloop
  endfacet
  facet normal -0.5 0.866026 0
    outer loop
      vertex 30 -17.3205 2
      vertex 0 -34.641 100
      vertex 30 -17.3205 100
    endloop
  endfacet
  facet normal -0.5 0.866026 0
    outer loop
      vertex 0 -34.641 100
      vertex 30 -17.3205 2
      vertex 0 -34.641 2
    endloop
  endfacet
  facet normal -1 0 0
    outer loop
      vertex 30 -17.3205 2
      vertex 30 17.3205 100
      vertex 30 17.3205 2
    endloop
  endfacet
  facet normal -1 -0 0
    outer loop
      vertex 30 17.3205 100
      vertex 30 -17.3205 2
      vertex 30 -17.3205 100
    endloop
  endfacet
  facet normal 0.5 -0.866026 0
    outer loop
      vertex -30 17.3205 2
      vertex 0 34.641 100
      vertex -30 17.3205 100
    endloop
  endfacet
  facet normal 0.5 -0.866026 0
    outer loop
      vertex 0 34.641 100
      vertex -30 17.3205 2
      vertex 0 34.641 2
    endloop
  endfacet
  facet normal -0.5 -0.866026 0
    outer loop
      vertex 0 34.641 2
      vertex 30 17.3205 100
      vertex 0 34.641 100
    endloop
  endfacet
  facet normal -0.5 -0.866026 -0
    outer loop
      vertex 30 17.3205 100
      vertex 0 34.641 2
      vertex 30 17.3205 2
    endloop
  endfacet
  facet normal 1 -0 0
    outer loop
      vertex -30 -17.3205 100
      vertex -30 17.3205 2
      vertex -30 17.3205 100
    endloop
  endfacet
  facet normal 1 0 0
    outer loop
      vertex -30 17.3205 2
      vertex -30 -17.3205 100
      vertex -30 -17.3205 2
    endloop
  endfacet
  facet normal 0.5 0.866026 -0
    outer loop
      vertex 0 -34.641 2
      vertex -30 -17.3205 100
      vertex 0 -34.641 100
    endloop
  endfacet
  facet normal 0.5 0.866026 0
    outer loop
      vertex -30 -17.3205 100
      vertex 0 -34.641 2
      vertex -30 -17.3205 2
    endloop
  endfacet
  facet normal 0 0 1
    outer loop
      vertex 0 34.641 2
      vertex 30 -17.3205 2
      vertex 30 17.3205 2
    endloop
  endfacet
  facet normal 0 0 1
    outer loop
      vertex 0 34.641 2
      vertex 0 -34.641 2
      vertex 30 -17.3205 2
    endloop
  endfacet
  facet normal -0 0 1
    outer loop
      vertex -30 17.3205 2
      vertex 0 -34.641 2
      vertex 0 34.641 2
    endloop
  endfacet
  facet normal 0 0 1
    outer loop
      vertex 0 -34.641 2
      vertex -30 17.3205 2
      vertex -30 -17.3205 2
    endloop
  endfacet
  facet normal -0.5 0.866026 0
    outer loop
      vertex 92 -17.3205 2
      vertex 62 -34.641 80
      vertex 92 -17.3205 80
    endloop
  endfacet
  facet normal -0.5 0.866026 0
    outer loop
      vertex 62 -34.641 80
      vertex 92 -17.3205 2
      vertex 62 -34.641 2
    endloop
  endfacet
  facet normal -1 0 0
    outer loop
      vertex 92 -17.3205 2
      vertex 92 17.3205 80
      vertex 92 17.3205 2
    endloop
  endfacet
  facet normal -1 -0 0
    outer loop
      vertex 92 17.3205 80
      vertex 92 -17.3205 2
      vertex 92 -17.3205 80
    endloop
  endfacet
  facet normal 0.5 -0.866026 0
    outer loop
      vertex 32 17.3205 2
      vertex 62 34.641 80
      vertex 32 17.3205 80
    endloop
  endfacet
  facet normal 0.5 -0.866026 0
    outer loop
      vertex 62 34.641 80
      vertex 32 17.3205 2
      vertex 62 34.641 2
    endloop
  endfacet
  facet normal -0.5 -0.866026 0
    outer loop
      vertex 62 34.641 2
      vertex 92 17.3205 80
      vertex 62 34.641 80
    endloop
  endfacet
  facet normal -0.5 -0.866026 -0
    outer loop
      vertex 92 17.3205 80
      vertex 62 34.641 2
      vertex 92 17.3205 2
    endloop
  endfacet
  facet normal 0.5 0.866026 -0
    outer loop
      vertex 62 -34.641 2
      vertex 32 -17.3205 80
      vertex 62 -34.641 80
    endloop
  endfacet
  facet normal 0.5 0.866026 0
    outer loop
      vertex 32 -17.3205 80
      vertex 62 -34.641 2
      vertex 32 -17.3205 2
    endloop
  endfacet
  facet normal 0 0 1
    outer loop
      vertex 62 34.641 2
      vertex 92 -17.3205 2
      vertex 92 17.3205 2
    endloop
  endfacet
  facet normal 0 0 1
    outer loop
      vertex 62 34.641 2
      vertex 62 -34.641 2
      vertex 92 -17.3205 2
    endloop
  endfacet
  facet normal -0 0 1
    outer loop
      vertex 32 17.3205 2
      vertex 62 -34.641 2
      vertex 62 34.641 2
    endloop
  endfacet
  facet normal 0 0 1
    outer loop
      vertex 62 -34.641 2
      vertex 32 17.3205 2
      vertex 32 -17.3205 2
    endloop
  endfacet
  facet normal -0.5 0.866026 0
    outer loop
      vertex 61 36.3715 2
      vertex 31 19.051 63
      vertex 61 36.3715 63
    endloop
  endfacet
  facet normal -0.5 0.866026 0
    outer loop
      vertex 31 19.051 63
      vertex 61 36.3715 2
      vertex 31 19.051 2
    endloop
  endfacet
  facet normal -1 0 0
    outer loop
      vertex 61 71.0125 2
      vertex 61 36.3731 60
      vertex 61 71.0125 60
    endloop
  endfacet
  facet normal -1 0 0
    outer loop
      vertex 61 36.3715 2
      vertex 61 36.3731 60
      vertex 61 71.0125 2
    endloop
  endfacet
  facet normal -1 0 0
    outer loop
      vertex 61 36.3715 63
      vertex 61 36.3731 60
      vertex 61 36.3715 2
    endloop
  endfacet
  facet normal -1 0 0
    outer loop
      vertex 61 36.3731 60
      vertex 61 36.3715 63
      vertex 61 36.3731 63
    endloop
  endfacet
  facet normal 0.5 -0.866026 0
    outer loop
      vertex 1 71.0125 2
      vertex 31 88.333 60
      vertex 1 71.0125 60
    endloop
  endfacet
  facet normal 0.5 -0.866026 0
    outer loop
      vertex 31 88.333 60
      vertex 1 71.0125 2
      vertex 31 88.333 2
    endloop
  endfacet
  facet normal -0.5 -0.866026 0
    outer loop
      vertex 31 88.333 2
      vertex 61 71.0125 60
      vertex 31 88.333 60
    endloop
  endfacet
  facet normal -0.5 -0.866026 -0
    outer loop
      vertex 61 71.0125 60
      vertex 31 88.333 2
      vertex 61 71.0125 2
    endloop
  endfacet
  facet normal 1 0 0
    outer loop
      vertex 1 36.3731 63
      vertex 1 36.3715 63
      vertex 1 36.3731 60
    endloop
  endfacet
  facet normal 1 -0 0
    outer loop
      vertex 1 36.3731 60
      vertex 1 71.0125 2
      vertex 1 71.0125 60
    endloop
  endfacet
  facet normal 1 0 0
    outer loop
      vertex 1 36.3731 60
      vertex 1 36.3715 2
      vertex 1 71.0125 2
    endloop
  endfacet
  facet normal 1 0 0
    outer loop
      vertex 1 36.3715 2
      vertex 1 36.3731 60
      vertex 1 36.3715 63
    endloop
  endfacet
  facet normal 0.5 0.866026 -0
    outer loop
      vertex 31 19.051 2
      vertex 1 36.3715 63
      vertex 31 19.051 63
    endloop
  endfacet
  facet normal 0.5 0.866026 0
    outer loop
      vertex 1 36.3715 63
      vertex 31 19.051 2
      vertex 1 36.3715 2
    endloop
  endfacet
  facet normal 0 0 -1
    outer loop
      vertex 31 19.0526 63
      vertex 61 36.3715 63
      vertex 31 19.051 63
    endloop
  endfacet
  facet normal -0 0 -1
    outer loop
      vertex 61 36.3715 63
      vertex 31 19.0526 63
      vertex 61 36.3731 63
    endloop
  endfacet
  facet normal 0 0 -1
    outer loop
      vertex 1 36.3715 63
      vertex 31 19.0526 63
      vertex 31 19.051 63
    endloop
  endfacet
  facet normal 0 0 -1
    outer loop
      vertex 31 19.0526 63
      vertex 1 36.3715 63
      vertex 1 36.3731 63
    endloop
  endfacet
  facet normal 0 0 1
    outer loop
      vertex 31 88.333 2
      vertex 61 36.3715 2
      vertex 61 71.0125 2
    endloop
  endfacet
  facet normal 0 0 1
    outer loop
      vertex 31 88.333 2
      vertex 31 19.051 2
      vertex 61 36.3715 2
    endloop
  endfacet
  facet normal -0 0 1
    outer loop
      vertex 1 71.0125 2
      vertex 31 19.051 2
      vertex 31 88.333 2
    endloop
  endfacet
  facet normal 0 0 1
    outer loop
      vertex 31 19.051 2
      vertex 1 71.0125 2
      vertex 1 36.3715 2
    endloop
  endfacet
endsolid OpenSCAD_Model
