solid OpenSCAD_Model
  facet normal 0.989175 0 -0.146738
    outer loop
      vertex 11.9759 0 5.40991
      vertex 11.9039 12 4.92455
      vertex 11.9759 12 5.40991
    endloop
  endfacet
  facet normal 0.989175 0 -0.146738
    outer loop
      vertex 11.9039 12 4.92455
      vertex 11.9759 0 5.40991
      vertex 11.9039 0 4.92455
    endloop
  endfacet
  facet normal 0.998793 0 -0.0491153
    outer loop
      vertex 12 0 5.9
      vertex 11.9759 12 5.40991
      vertex 12 12 5.9
    endloop
  endfacet
  facet normal 0.998793 0 -0.0491153
    outer loop
      vertex 11.9759 12 5.40991
      vertex 12 0 5.9
      vertex 11.9759 0 5.40991
    endloop
  endfacet
  facet normal 0.970043 0 -0.242934
    outer loop
      vertex 11.9039 0 4.92455
      vertex 11.7847 12 4.44858
      vertex 11.9039 12 4.92455
    endloop
  endfacet
  facet normal 0.970043 0 -0.242934
    outer loop
      vertex 11.7847 12 4.44858
      vertex 11.9039 0 4.92455
      vertex 11.7847 0 4.44858
    endloop
  endfacet
  facet normal 0.740861 -0 0.671658
    outer loop
      vertex 10.5355 0 9.43553
      vertex 10.8651 12 9.07197
      vertex 10.5355 12 9.43553
    endloop
  endfacet
  facet normal 0.740861 0 0.671658
    outer loop
      vertex 10.8651 12 9.07197
      vertex 10.5355 0 9.43553
      vertex 10.8651 0 9.07197
    endloop
  endfacet
  facet normal 0.803304 0 -0.595569
    outer loop
      vertex 11.1573 0 3.12215
      vertex 10.8651 12 2.72803
      vertex 11.1573 12 3.12215
    endloop
  endfacet
  facet normal 0.803304 0 -0.595569
    outer loop
      vertex 10.8651 12 2.72803
      vertex 11.1573 0 3.12215
      vertex 10.8651 0 2.72803
    endloop
  endfacet
  facet normal 0.998793 -0 0.0491153
    outer loop
      vertex 11.9759 0 6.39009
      vertex 12 12 5.9
      vertex 11.9759 12 6.39009
    endloop
  endfacet
  facet normal 0.998793 0 0.0491153
    outer loop
      vertex 12 12 5.9
      vertex 11.9759 0 6.39009
      vertex 12 0 5.9
    endloop
  endfacet
  facet normal -0.803207 0 -0.5957
    outer loop
      vertex 3.13495 0 2.72803
      vertex 2.84265 12 3.12215
      vertex 3.13495 12 2.72803
    endloop
  endfacet
  facet normal -0.803207 -0 -0.5957
    outer loop
      vertex 2.84265 12 3.12215
      vertex 3.13495 0 2.72803
      vertex 2.84265 0 3.12215
    endloop
  endfacet
  facet normal 0.514163 0 0.857692
    outer loop
      vertex 9.35698 12 10.3096
      vertex 9.77785 0 10.0573
      vertex 9.77785 12 10.0573
    endloop
  endfacet
  facet normal 0.514163 0 0.857692
    outer loop
      vertex 9.77785 0 10.0573
      vertex 9.35698 12 10.3096
      vertex 9.35698 0 10.3096
    endloop
  endfacet
  facet normal -0.740943 0 0.671568
    outer loop
      vertex 3.13495 0 9.07197
      vertex 3.46447 12 9.43553
      vertex 3.13495 12 9.07197
    endloop
  endfacet
  facet normal -0.740943 0 0.671568
    outer loop
      vertex 3.46447 12 9.43553
      vertex 3.13495 0 9.07197
      vertex 3.46447 0 9.43553
    endloop
  endfacet
  facet normal -0.941548 0 -0.336879
    outer loop
      vertex 2.3806 0 3.98658
      vertex 2.2153 12 4.44858
      vertex 2.3806 12 3.98658
    endloop
  endfacet
  facet normal -0.941548 -0 -0.336879
    outer loop
      vertex 2.2153 12 4.44858
      vertex 2.3806 0 3.98658
      vertex 2.2153 0 4.44858
    endloop
  endfacet
  facet normal -0.514163 0 0.857692
    outer loop
      vertex 4.22215 12 10.0573
      vertex 4.64302 0 10.3096
      vertex 4.64302 12 10.3096
    endloop
  endfacet
  facet normal -0.514163 0 0.857692
    outer loop
      vertex 4.64302 0 10.3096
      vertex 4.22215 12 10.0573
      vertex 4.22215 0 10.0573
    endloop
  endfacet
  facet normal -0.903988 0 0.427558
    outer loop
      vertex 2.3806 0 7.81342
      vertex 2.59039 12 8.25698
      vertex 2.3806 12 7.81342
    endloop
  endfacet
  facet normal -0.903988 0 0.427558
    outer loop
      vertex 2.59039 12 8.25698
      vertex 2.3806 0 7.81342
      vertex 2.59039 0 8.25698
    endloop
  endfacet
  facet normal -0.857728 0 0.514103
    outer loop
      vertex 2.59039 0 8.25698
      vertex 2.84265 12 8.67785
      vertex 2.59039 12 8.25698
    endloop
  endfacet
  facet normal -0.857728 0 0.514103
    outer loop
      vertex 2.84265 12 8.67785
      vertex 2.59039 0 8.25698
      vertex 2.84265 0 8.67785
    endloop
  endfacet
  facet normal 0.427688 0 0.903926
    outer loop
      vertex 9.16 12 10.4028
      vertex 9.35698 0 10.3096
      vertex 9.35698 12 10.3096
    endloop
  endfacet
  facet normal 0.427688 0 0.903926
    outer loop
      vertex 9.35698 0 10.3096
      vertex 9.16 12 10.4028
      vertex 9.16 0 10.4028
    endloop
  endfacet
  facet normal 0.90398 0 -0.427575
    outer loop
      vertex 11.6194 0 3.98658
      vertex 11.4096 12 3.54302
      vertex 11.6194 12 3.98658
    endloop
  endfacet
  facet normal 0.90398 0 -0.427575
    outer loop
      vertex 11.4096 12 3.54302
      vertex 11.6194 0 3.98658
      vertex 11.4096 0 3.54302
    endloop
  endfacet
  facet normal -0.427688 0 0.903926
    outer loop
      vertex 4.64302 12 10.3096
      vertex 4.84 0 10.4028
      vertex 4.84 12 10.4028
    endloop
  endfacet
  facet normal -0.427688 0 0.903926
    outer loop
      vertex 4.84 0 10.4028
      vertex 4.64302 12 10.3096
      vertex 4.64302 0 10.3096
    endloop
  endfacet
  facet normal 0 1 0
    outer loop
      vertex 9.16 12 8.1261
      vertex 9.35698 12 10.3096
      vertex 9.77785 12 10.0573
    endloop
  endfacet
  facet normal 0 1 0
    outer loop
      vertex 9.16 12 8.1261
      vertex 9.77785 12 10.0573
      vertex 10.172 12 9.76505
    endloop
  endfacet
  facet normal 0 1 0
    outer loop
      vertex 9.16 12 8.1261
      vertex 10.172 12 9.76505
      vertex 10.5355 12 9.43553
    endloop
  endfacet
  facet normal 0 1 0
    outer loop
      vertex 9.19467 12 8.09467
      vertex 10.5355 12 9.43553
      vertex 10.8651 12 9.07197
    endloop
  endfacet
  facet normal 0 1 0
    outer loop
      vertex 9.39922 12 7.86899
      vertex 10.8651 12 9.07197
      vertex 11.1573 12 8.67785
    endloop
  endfacet
  facet normal 0 1 0
    outer loop
      vertex 9.58066 12 7.62434
      vertex 11.1573 12 8.67785
      vertex 11.4096 12 8.25698
    endloop
  endfacet
  facet normal 0 1 0
    outer loop
      vertex 9.35698 12 10.3096
      vertex 9.16 12 8.1261
      vertex 9.16 12 10.4028
    endloop
  endfacet
  facet normal 0 1 0
    outer loop
      vertex 10.5355 12 9.43553
      vertex 9.19467 12 8.09467
      vertex 9.16 12 8.1261
    endloop
  endfacet
  facet normal 0 1 0
    outer loop
      vertex 10.8651 12 9.07197
      vertex 9.39922 12 7.86899
      vertex 9.19467 12 8.09467
    endloop
  endfacet
  facet normal 0 1 0
    outer loop
      vertex 9.73725 12 7.36309
      vertex 11.4096 12 8.25698
      vertex 11.6194 12 7.81342
    endloop
  endfacet
  facet normal 0 1 0
    outer loop
      vertex 11.1573 12 8.67785
      vertex 9.58066 12 7.62434
      vertex 9.39922 12 7.86899
    endloop
  endfacet
  facet normal 0 1 0
    outer loop
      vertex 11.4096 12 8.25698
      vertex 9.73725 12 7.36309
      vertex 9.58066 12 7.62434
    endloop
  endfacet
  facet normal 0 1 0
    outer loop
      vertex 9.86748 12 7.08775
      vertex 11.6194 12 7.81342
      vertex 11.7847 12 7.35142
    endloop
  endfacet
  facet normal 0 1 0
    outer loop
      vertex 11.6194 12 7.81342
      vertex 9.86748 12 7.08775
      vertex 9.73725 12 7.36309
    endloop
  endfacet
  facet normal 0 1 0
    outer loop
      vertex 9.97009 12 6.80097
      vertex 11.7847 12 7.35142
      vertex 11.9039 12 6.87545
    endloop
  endfacet
  facet normal 0 1 0
    outer loop
      vertex 11.7847 12 7.35142
      vertex 9.97009 12 6.80097
      vertex 9.86748 12 7.08775
    endloop
  endfacet
  facet normal 0 1 0
    outer loop
      vertex 11.9039 12 6.87545
      vertex 10.0441 12 6.50551
      vertex 9.97009 12 6.80097
    endloop
  endfacet
  facet normal 0 1 0
    outer loop
      vertex 11.9759 12 6.39009
      vertex 10.0441 12 6.50551
      vertex 11.9039 12 6.87545
    endloop
  endfacet
  facet normal 0 1 0
    outer loop
      vertex 11.9759 12 6.39009
      vertex 10.0888 12 6.20422
      vertex 10.0441 12 6.50551
    endloop
  endfacet
  facet normal 0 1 0
    outer loop
      vertex 12 12 5.9
      vertex 10.0888 12 6.20422
      vertex 11.9759 12 6.39009
    endloop
  endfacet
  facet normal 0 1 0
    outer loop
      vertex 12 12 5.9
      vertex 10.1037 12 5.9
      vertex 10.0888 12 6.20422
    endloop
  endfacet
  facet normal 0 1 0
    outer loop
      vertex 12 12 5.9
      vertex 10.0888 12 5.59578
      vertex 10.1037 12 5.9
    endloop
  endfacet
  facet normal 0 1 -0
    outer loop
      vertex 11.9759 12 5.40991
      vertex 10.0888 12 5.59578
      vertex 12 12 5.9
    endloop
  endfacet
  facet normal 0 1 0
    outer loop
      vertex 11.9759 12 5.40991
      vertex 10.0441 12 5.29449
      vertex 10.0888 12 5.59578
    endloop
  endfacet
  facet normal 0 1 -0
    outer loop
      vertex 11.9039 12 4.92455
      vertex 10.0441 12 5.29449
      vertex 11.9759 12 5.40991
    endloop
  endfacet
  facet normal 0 1 0
    outer loop
      vertex 10.0441 12 5.29449
      vertex 11.9039 12 4.92455
      vertex 9.97009 12 4.99903
    endloop
  endfacet
  facet normal 0 1 -0
    outer loop
      vertex 11.7847 12 4.44858
      vertex 9.97009 12 4.99903
      vertex 11.9039 12 4.92455
    endloop
  endfacet
  facet normal 0 1 0
    outer loop
      vertex 9.97009 12 4.99903
      vertex 11.7847 12 4.44858
      vertex 9.86748 12 4.71225
    endloop
  endfacet
  facet normal 0 1 -0
    outer loop
      vertex 11.6194 12 3.98658
      vertex 9.86748 12 4.71225
      vertex 11.7847 12 4.44858
    endloop
  endfacet
  facet normal 0 1 0
    outer loop
      vertex 9.86748 12 4.71225
      vertex 11.6194 12 3.98658
      vertex 9.73725 12 4.43691
    endloop
  endfacet
  facet normal 0 1 -0
    outer loop
      vertex 11.4096 12 3.54302
      vertex 9.73725 12 4.43691
      vertex 11.6194 12 3.98658
    endloop
  endfacet
  facet normal 0 1 0
    outer loop
      vertex 9.73725 12 4.43691
      vertex 11.4096 12 3.54302
      vertex 9.58066 12 4.17565
    endloop
  endfacet
  facet normal 0 1 -0
    outer loop
      vertex 11.1573 12 3.12215
      vertex 9.58066 12 4.17565
      vertex 11.4096 12 3.54302
    endloop
  endfacet
  facet normal 0 1 0
    outer loop
      vertex 9.58066 12 4.17565
      vertex 11.1573 12 3.12215
      vertex 9.39922 12 3.93101
    endloop
  endfacet
  facet normal 0 1 -0
    outer loop
      vertex 10.8651 12 2.72803
      vertex 9.39922 12 3.93101
      vertex 11.1573 12 3.12215
    endloop
  endfacet
  facet normal 0 1 -0
    outer loop
      vertex 10.5677 12 2.4
      vertex 9.39922 12 3.93101
      vertex 10.8651 12 2.72803
    endloop
  endfacet
  facet normal 0 1 0
    outer loop
      vertex 9.39922 12 3.93101
      vertex 10.5677 12 2.4
      vertex 9.19467 12 3.70533
    endloop
  endfacet
  facet normal 0 1 0
    outer loop
      vertex 9.19467 12 3.70533
      vertex 10.5677 12 2.4
      vertex 8.96899 12 3.50078
    endloop
  endfacet
  facet normal 0 1 0
    outer loop
      vertex 8.96899 12 3.50078
      vertex 10.5677 12 2.4
      vertex 8.72434 12 3.31933
    endloop
  endfacet
  facet normal 0 1 0
    outer loop
      vertex 8.72434 12 3.31933
      vertex 10.5677 12 2.4
      vertex 8.46309 12 3.16275
    endloop
  endfacet
  facet normal 0 1 0
    outer loop
      vertex 8.46309 12 3.16275
      vertex 10.5677 12 2.4
      vertex 8.18775 12 3.03252
    endloop
  endfacet
  facet normal 0 1 0
    outer loop
      vertex 8.18775 12 3.03252
      vertex 10.5677 12 2.4
      vertex 7.90097 12 2.92991
    endloop
  endfacet
  facet normal 0 1 0
    outer loop
      vertex 7.60551 12 2.8559
      vertex 10.5677 12 2.4
      vertex 7.30422 12 2.81121
    endloop
  endfacet
  facet normal 0 1 0
    outer loop
      vertex 7.90097 12 2.92991
      vertex 10.5677 12 2.4
      vertex 7.60551 12 2.8559
    endloop
  endfacet
  facet normal 0 1 -0
    outer loop
      vertex 4.84 12 8.1261
      vertex 4.64302 12 10.3096
      vertex 4.84 12 10.4028
    endloop
  endfacet
  facet normal 0 1 0
    outer loop
      vertex 4.64302 12 10.3096
      vertex 4.84 12 8.1261
      vertex 4.22215 12 10.0573
    endloop
  endfacet
  facet normal 0 1 0
    outer loop
      vertex 4.22215 12 10.0573
      vertex 4.84 12 8.1261
      vertex 3.82803 12 9.76505
    endloop
  endfacet
  facet normal 0 1 0
    outer loop
      vertex 3.82803 12 9.76505
      vertex 4.84 12 8.1261
      vertex 3.46447 12 9.43553
    endloop
  endfacet
  facet normal 0 1 -0
    outer loop
      vertex 4.80532 12 8.09467
      vertex 3.46447 12 9.43553
      vertex 4.84 12 8.1261
    endloop
  endfacet
  facet normal 0 1 0
    outer loop
      vertex 3.46447 12 9.43553
      vertex 4.80532 12 8.09467
      vertex 3.13495 12 9.07197
    endloop
  endfacet
  facet normal 0 1 -0
    outer loop
      vertex 4.60078 12 7.86899
      vertex 3.13495 12 9.07197
      vertex 4.80532 12 8.09467
    endloop
  endfacet
  facet normal 0 1 0
    outer loop
      vertex 3.13495 12 9.07197
      vertex 4.60078 12 7.86899
      vertex 2.84265 12 8.67785
    endloop
  endfacet
  facet normal 0 1 -0
    outer loop
      vertex 4.41934 12 7.62434
      vertex 2.84265 12 8.67785
      vertex 4.60078 12 7.86899
    endloop
  endfacet
  facet normal 0 1 0
    outer loop
      vertex 2.84265 12 8.67785
      vertex 4.41934 12 7.62434
      vertex 2.59039 12 8.25698
    endloop
  endfacet
  facet normal 0 1 -0
    outer loop
      vertex 4.26275 12 7.36309
      vertex 2.59039 12 8.25698
      vertex 4.41934 12 7.62434
    endloop
  endfacet
  facet normal 0 1 0
    outer loop
      vertex 2.59039 12 8.25698
      vertex 4.26275 12 7.36309
      vertex 2.3806 12 7.81342
    endloop
  endfacet
  facet normal 0 1 -0
    outer loop
      vertex 4.13252 12 7.08775
      vertex 2.3806 12 7.81342
      vertex 4.26275 12 7.36309
    endloop
  endfacet
  facet normal 0 1 0
    outer loop
      vertex 2.3806 12 7.81342
      vertex 4.13252 12 7.08775
      vertex 2.2153 12 7.35142
    endloop
  endfacet
  facet normal 0 1 -0
    outer loop
      vertex 4.02991 12 6.80097
      vertex 2.2153 12 7.35142
      vertex 4.13252 12 7.08775
    endloop
  endfacet
  facet normal 0 1 0
    outer loop
      vertex 2.2153 12 7.35142
      vertex 4.02991 12 6.80097
      vertex 2.09607 12 6.87545
    endloop
  endfacet
  facet normal 0 1 -0
    outer loop
      vertex 3.9559 12 6.50551
      vertex 2.09607 12 6.87545
      vertex 4.02991 12 6.80097
    endloop
  endfacet
  facet normal 0 1 0
    outer loop
      vertex 3.9559 12 6.50551
      vertex 2.02408 12 6.39009
      vertex 2.09607 12 6.87545
    endloop
  endfacet
  facet normal 0 1 -0
    outer loop
      vertex 3.91121 12 6.20422
      vertex 2.02408 12 6.39009
      vertex 3.9559 12 6.50551
    endloop
  endfacet
  facet normal 0 1 -0
    outer loop
      vertex 3.89626 12 5.9
      vertex 2.02408 12 6.39009
      vertex 3.91121 12 6.20422
    endloop
  endfacet
  facet normal 0 1 0
    outer loop
      vertex 3.89626 12 5.9
      vertex 2 12 5.9
      vertex 2.02408 12 6.39009
    endloop
  endfacet
  facet normal 0 1 0
    outer loop
      vertex 3.91121 12 5.59578
      vertex 2 12 5.9
      vertex 3.89626 12 5.9
    endloop
  endfacet
  facet normal 0 1 0
    outer loop
      vertex 3.91121 12 5.59578
      vertex 2.02408 12 5.40991
      vertex 2 12 5.9
    endloop
  endfacet
  facet normal 0 1 0
    outer loop
      vertex 3.9559 12 5.29449
      vertex 2.02408 12 5.40991
      vertex 3.91121 12 5.59578
    endloop
  endfacet
  facet normal 0 1 0
    outer loop
      vertex 2.09607 12 4.92455
      vertex 3.9559 12 5.29449
      vertex 4.02991 12 4.99903
    endloop
  endfacet
  facet normal 0 1 0
    outer loop
      vertex 3.9559 12 5.29449
      vertex 2.09607 12 4.92455
      vertex 2.02408 12 5.40991
    endloop
  endfacet
  facet normal 0 1 0
    outer loop
      vertex 2.2153 12 4.44858
      vertex 4.02991 12 4.99903
      vertex 4.13252 12 4.71225
    endloop
  endfacet
  facet normal 0 1 0
    outer loop
      vertex 4.02991 12 4.99903
      vertex 2.2153 12 4.44858
      vertex 2.09607 12 4.92455
    endloop
  endfacet
  facet normal 0 1 0
    outer loop
      vertex 2.3806 12 3.98658
      vertex 4.13252 12 4.71225
      vertex 4.26275 12 4.43691
    endloop
  endfacet
  facet normal 0 1 0
    outer loop
      vertex 2.59039 12 3.54302
      vertex 4.26275 12 4.43691
      vertex 4.41934 12 4.17565
    endloop
  endfacet
  facet normal 0 1 0
    outer loop
      vertex 4.13252 12 4.71225
      vertex 2.3806 12 3.98658
      vertex 2.2153 12 4.44858
    endloop
  endfacet
  facet normal 0 1 0
    outer loop
      vertex 2.84265 12 3.12215
      vertex 4.41934 12 4.17565
      vertex 4.60078 12 3.93101
    endloop
  endfacet
  facet normal 0 1 0
    outer loop
      vertex 3.43226 12 2.4
      vertex 4.60078 12 3.93101
      vertex 4.80532 12 3.70533
    endloop
  endfacet
  facet normal 0 1 0
    outer loop
      vertex 4.26275 12 4.43691
      vertex 2.59039 12 3.54302
      vertex 2.3806 12 3.98658
    endloop
  endfacet
  facet normal 0 1 0
    outer loop
      vertex 3.43226 12 2.4
      vertex 4.80532 12 3.70533
      vertex 5.03101 12 3.50078
    endloop
  endfacet
  facet normal 0 1 0
    outer loop
      vertex 3.43226 12 2.4
      vertex 5.03101 12 3.50078
      vertex 5.27565 12 3.31933
    endloop
  endfacet
  facet normal 0 1 0
    outer loop
      vertex 3.43226 12 2.4
      vertex 5.27565 12 3.31933
      vertex 5.53691 12 3.16275
    endloop
  endfacet
  facet normal 0 1 0
    outer loop
      vertex 4.41934 12 4.17565
      vertex 2.84265 12 3.12215
      vertex 2.59039 12 3.54302
    endloop
  endfacet
  facet normal 0 1 0
    outer loop
      vertex 3.43226 12 2.4
      vertex 5.53691 12 3.16275
      vertex 5.81225 12 3.03252
    endloop
  endfacet
  facet normal 0 1 0
    outer loop
      vertex 3.43226 12 2.4
      vertex 5.81225 12 3.03252
      vertex 6.09903 12 2.92991
    endloop
  endfacet
  facet normal 0 1 0
    outer loop
      vertex 3.43226 12 2.4
      vertex 6.09903 12 2.92991
      vertex 6.39449 12 2.8559
    endloop
  endfacet
  facet normal 0 1 0
    outer loop
      vertex 3.43226 12 2.4
      vertex 6.39449 12 2.8559
      vertex 6.69578 12 2.81121
    endloop
  endfacet
  facet normal 0 1 0
    outer loop
      vertex 4.60078 12 3.93101
      vertex 3.13495 12 2.72803
      vertex 2.84265 12 3.12215
    endloop
  endfacet
  facet normal 0 1 0
    outer loop
      vertex 0 12 0
      vertex 6.69578 12 2.81121
      vertex 7 12 2.79626
    endloop
  endfacet
  facet normal 0 1 0
    outer loop
      vertex 7.30422 12 2.81121
      vertex 10.5677 12 2.4
      vertex 7 12 2.79626
    endloop
  endfacet
  facet normal 0 1 0
    outer loop
      vertex 0 12 0
      vertex 7 12 2.79626
      vertex 10.5677 12 2.4
    endloop
  endfacet
  facet normal 0 1 0
    outer loop
      vertex 4.60078 12 3.93101
      vertex 3.43226 12 2.4
      vertex 3.13495 12 2.72803
    endloop
  endfacet
  facet normal 0 1 0
    outer loop
      vertex 15 12 0
      vertex 10.5677 12 2.4
      vertex 13.5 12 2.4
    endloop
  endfacet
  facet normal 0 1 0
    outer loop
      vertex 0 12 0
      vertex 10.5677 12 2.4
      vertex 15 12 0
    endloop
  endfacet
  facet normal 0 1 -0
    outer loop
      vertex 15 12 0
      vertex 13.5 12 2.4
      vertex 15 12 0.00999928
    endloop
  endfacet
  facet normal 0 1 0
    outer loop
      vertex 6.69578 12 2.81121
      vertex 0 12 0
      vertex 3.43226 12 2.4
    endloop
  endfacet
  facet normal -0 1 0
    outer loop
      vertex 0 12 0.00999928
      vertex 3.43226 12 2.4
      vertex 0 12 0
    endloop
  endfacet
  facet normal 0 1 0
    outer loop
      vertex 3.43226 12 2.4
      vertex 0 12 0.00999928
      vertex 1.5 12 2.4
    endloop
  endfacet
  facet normal 0.941548 0 -0.336879
    outer loop
      vertex 11.7847 0 4.44858
      vertex 11.6194 12 3.98658
      vertex 11.7847 12 4.44858
    endloop
  endfacet
  facet normal 0.941548 0 -0.336879
    outer loop
      vertex 11.6194 12 3.98658
      vertex 11.7847 0 4.44858
      vertex 11.6194 0 3.98658
    endloop
  endfacet
  facet normal -0.989178 0 0.146718
    outer loop
      vertex 2.02408 0 6.39009
      vertex 2.09607 12 6.87545
      vertex 2.02408 12 6.39009
    endloop
  endfacet
  facet normal -0.989178 0 0.146718
    outer loop
      vertex 2.09607 12 6.87545
      vertex 2.02408 0 6.39009
      vertex 2.09607 0 6.87545
    endloop
  endfacet
  facet normal -0.998795 0 -0.0490746
    outer loop
      vertex 2.02408 0 5.40991
      vertex 2 12 5.9
      vertex 2.02408 12 5.40991
    endloop
  endfacet
  facet normal -0.998795 -0 -0.0490746
    outer loop
      vertex 2 12 5.9
      vertex 2.02408 0 5.40991
      vertex 2 0 5.9
    endloop
  endfacet
  facet normal 0.970043 -0 0.242934
    outer loop
      vertex 11.7847 0 7.35142
      vertex 11.9039 12 6.87545
      vertex 11.7847 12 7.35142
    endloop
  endfacet
  facet normal 0.970043 0 0.242934
    outer loop
      vertex 11.9039 12 6.87545
      vertex 11.7847 0 7.35142
      vertex 11.9039 0 6.87545
    endloop
  endfacet
  facet normal -0.941548 0 0.336879
    outer loop
      vertex 2.2153 0 7.35142
      vertex 2.3806 12 7.81342
      vertex 2.2153 12 7.35142
    endloop
  endfacet
  facet normal -0.941548 0 0.336879
    outer loop
      vertex 2.3806 12 7.81342
      vertex 2.2153 0 7.35142
      vertex 2.3806 0 7.81342
    endloop
  endfacet
  facet normal -0.989178 0 -0.146718
    outer loop
      vertex 2.09607 0 4.92455
      vertex 2.02408 12 5.40991
      vertex 2.09607 12 4.92455
    endloop
  endfacet
  facet normal -0.989178 -0 -0.146718
    outer loop
      vertex 2.02408 12 5.40991
      vertex 2.09607 0 4.92455
      vertex 2.02408 0 5.40991
    endloop
  endfacet
  facet normal 0.989175 -0 0.146738
    outer loop
      vertex 11.9039 0 6.87545
      vertex 11.9759 12 6.39009
      vertex 11.9039 12 6.87545
    endloop
  endfacet
  facet normal 0.989175 0 0.146738
    outer loop
      vertex 11.9759 12 6.39009
      vertex 11.9039 0 6.87545
      vertex 11.9759 0 6.39009
    endloop
  endfacet
  facet normal -0.970029 0 0.242991
    outer loop
      vertex 2.09607 0 6.87545
      vertex 2.2153 12 7.35142
      vertex 2.09607 12 6.87545
    endloop
  endfacet
  facet normal -0.970029 0 0.242991
    outer loop
      vertex 2.2153 12 7.35142
      vertex 2.09607 0 6.87545
      vertex 2.2153 0 7.35142
    endloop
  endfacet
  facet normal 0.857692 0 -0.514163
    outer loop
      vertex 11.4096 0 3.54302
      vertex 11.1573 12 3.12215
      vertex 11.4096 12 3.54302
    endloop
  endfacet
  facet normal 0.857692 0 -0.514163
    outer loop
      vertex 11.1573 12 3.12215
      vertex 11.4096 0 3.54302
      vertex 11.1573 0 3.12215
    endloop
  endfacet
  facet normal 0.803304 -0 0.595569
    outer loop
      vertex 10.8651 0 9.07197
      vertex 11.1573 12 8.67785
      vertex 10.8651 12 9.07197
    endloop
  endfacet
  facet normal 0.803304 0 0.595569
    outer loop
      vertex 11.1573 12 8.67785
      vertex 10.8651 0 9.07197
      vertex 11.1573 0 8.67785
    endloop
  endfacet
  facet normal -0.74095 0 -0.67156
    outer loop
      vertex 3.43226 0 2.4
      vertex 3.13495 12 2.72803
      vertex 3.43226 12 2.4
    endloop
  endfacet
  facet normal -0.74095 -0 -0.67156
    outer loop
      vertex 3.13495 12 2.72803
      vertex 3.43226 0 2.4
      vertex 3.13495 0 2.72803
    endloop
  endfacet
  facet normal 0 -1 0
    outer loop
      vertex 4.84 0 8.1261
      vertex 4.64302 0 10.3096
      vertex 4.22215 0 10.0573
    endloop
  endfacet
  facet normal 0 -1 0
    outer loop
      vertex 4.84 0 8.1261
      vertex 4.22215 0 10.0573
      vertex 3.82803 0 9.76505
    endloop
  endfacet
  facet normal 0 -1 0
    outer loop
      vertex 4.84 0 8.1261
      vertex 3.82803 0 9.76505
      vertex 3.46447 0 9.43553
    endloop
  endfacet
  facet normal 0 -1 0
    outer loop
      vertex 4.80532 0 8.09467
      vertex 3.46447 0 9.43553
      vertex 3.13495 0 9.07197
    endloop
  endfacet
  facet normal 0 -1 0
    outer loop
      vertex 4.60078 0 7.86899
      vertex 3.13495 0 9.07197
      vertex 2.84265 0 8.67785
    endloop
  endfacet
  facet normal 0 -1 0
    outer loop
      vertex 4.41934 0 7.62434
      vertex 2.84265 0 8.67785
      vertex 2.59039 0 8.25698
    endloop
  endfacet
  facet normal 0 -1 0
    outer loop
      vertex 4.64302 0 10.3096
      vertex 4.84 0 8.1261
      vertex 4.84 0 10.4028
    endloop
  endfacet
  facet normal 0 -1 0
    outer loop
      vertex 3.46447 0 9.43553
      vertex 4.80532 0 8.09467
      vertex 4.84 0 8.1261
    endloop
  endfacet
  facet normal 0 -1 0
    outer loop
      vertex 3.13495 0 9.07197
      vertex 4.60078 0 7.86899
      vertex 4.80532 0 8.09467
    endloop
  endfacet
  facet normal 0 -1 0
    outer loop
      vertex 4.26275 0 7.36309
      vertex 2.59039 0 8.25698
      vertex 2.3806 0 7.81342
    endloop
  endfacet
  facet normal 0 -1 0
    outer loop
      vertex 2.84265 0 8.67785
      vertex 4.41934 0 7.62434
      vertex 4.60078 0 7.86899
    endloop
  endfacet
  facet normal 0 -1 0
    outer loop
      vertex 2.59039 0 8.25698
      vertex 4.26275 0 7.36309
      vertex 4.41934 0 7.62434
    endloop
  endfacet
  facet normal 0 -1 0
    outer loop
      vertex 4.13252 0 7.08775
      vertex 2.3806 0 7.81342
      vertex 2.2153 0 7.35142
    endloop
  endfacet
  facet normal 0 -1 0
    outer loop
      vertex 2.3806 0 7.81342
      vertex 4.13252 0 7.08775
      vertex 4.26275 0 7.36309
    endloop
  endfacet
  facet normal 0 -1 0
    outer loop
      vertex 4.02991 0 6.80097
      vertex 2.2153 0 7.35142
      vertex 2.09607 0 6.87545
    endloop
  endfacet
  facet normal 0 -1 0
    outer loop
      vertex 2.2153 0 7.35142
      vertex 4.02991 0 6.80097
      vertex 4.13252 0 7.08775
    endloop
  endfacet
  facet normal 0 -1 0
    outer loop
      vertex 2.09607 0 6.87545
      vertex 3.9559 0 6.50551
      vertex 4.02991 0 6.80097
    endloop
  endfacet
  facet normal 0 -1 0
    outer loop
      vertex 2.02408 0 6.39009
      vertex 3.9559 0 6.50551
      vertex 2.09607 0 6.87545
    endloop
  endfacet
  facet normal 0 -1 0
    outer loop
      vertex 2.02408 0 6.39009
      vertex 3.91121 0 6.20422
      vertex 3.9559 0 6.50551
    endloop
  endfacet
  facet normal 0 -1 0
    outer loop
      vertex 2 0 5.9
      vertex 3.91121 0 6.20422
      vertex 2.02408 0 6.39009
    endloop
  endfacet
  facet normal 0 -1 0
    outer loop
      vertex 2 0 5.9
      vertex 3.89626 0 5.9
      vertex 3.91121 0 6.20422
    endloop
  endfacet
  facet normal 0 -1 0
    outer loop
      vertex 2 0 5.9
      vertex 3.91121 0 5.59578
      vertex 3.89626 0 5.9
    endloop
  endfacet
  facet normal 0 -1 0
    outer loop
      vertex 2.02408 0 5.40991
      vertex 3.91121 0 5.59578
      vertex 2 0 5.9
    endloop
  endfacet
  facet normal 0 -1 0
    outer loop
      vertex 2.02408 0 5.40991
      vertex 3.9559 0 5.29449
      vertex 3.91121 0 5.59578
    endloop
  endfacet
  facet normal 0 -1 0
    outer loop
      vertex 2.09607 0 4.92455
      vertex 3.9559 0 5.29449
      vertex 2.02408 0 5.40991
    endloop
  endfacet
  facet normal 0 -1 -0
    outer loop
      vertex 3.9559 0 5.29449
      vertex 2.09607 0 4.92455
      vertex 4.02991 0 4.99903
    endloop
  endfacet
  facet normal 0 -1 0
    outer loop
      vertex 2.2153 0 4.44858
      vertex 4.02991 0 4.99903
      vertex 2.09607 0 4.92455
    endloop
  endfacet
  facet normal 0 -1 -0
    outer loop
      vertex 4.02991 0 4.99903
      vertex 2.2153 0 4.44858
      vertex 4.13252 0 4.71225
    endloop
  endfacet
  facet normal 0 -1 0
    outer loop
      vertex 2.3806 0 3.98658
      vertex 4.13252 0 4.71225
      vertex 2.2153 0 4.44858
    endloop
  endfacet
  facet normal 0 -1 -0
    outer loop
      vertex 4.13252 0 4.71225
      vertex 2.3806 0 3.98658
      vertex 4.26275 0 4.43691
    endloop
  endfacet
  facet normal 0 -1 0
    outer loop
      vertex 2.59039 0 3.54302
      vertex 4.26275 0 4.43691
      vertex 2.3806 0 3.98658
    endloop
  endfacet
  facet normal 0 -1 -0
    outer loop
      vertex 4.26275 0 4.43691
      vertex 2.59039 0 3.54302
      vertex 4.41934 0 4.17565
    endloop
  endfacet
  facet normal 0 -1 0
    outer loop
      vertex 2.84265 0 3.12215
      vertex 4.41934 0 4.17565
      vertex 2.59039 0 3.54302
    endloop
  endfacet
  facet normal 0 -1 -0
    outer loop
      vertex 4.41934 0 4.17565
      vertex 2.84265 0 3.12215
      vertex 4.60078 0 3.93101
    endloop
  endfacet
  facet normal 0 -1 0
    outer loop
      vertex 3.13495 0 2.72803
      vertex 4.60078 0 3.93101
      vertex 2.84265 0 3.12215
    endloop
  endfacet
  facet normal 0 -1 0
    outer loop
      vertex 3.43226 0 2.4
      vertex 4.60078 0 3.93101
      vertex 3.13495 0 2.72803
    endloop
  endfacet
  facet normal 0 -1 -0
    outer loop
      vertex 4.60078 0 3.93101
      vertex 3.43226 0 2.4
      vertex 4.80532 0 3.70533
    endloop
  endfacet
  facet normal 0 -1 -0
    outer loop
      vertex 4.80532 0 3.70533
      vertex 3.43226 0 2.4
      vertex 5.03101 0 3.50078
    endloop
  endfacet
  facet normal 0 -1 -0
    outer loop
      vertex 5.03101 0 3.50078
      vertex 3.43226 0 2.4
      vertex 5.27565 0 3.31933
    endloop
  endfacet
  facet normal 0 -1 -0
    outer loop
      vertex 5.27565 0 3.31933
      vertex 3.43226 0 2.4
      vertex 5.53691 0 3.16275
    endloop
  endfacet
  facet normal 0 -1 -0
    outer loop
      vertex 5.53691 0 3.16275
      vertex 3.43226 0 2.4
      vertex 5.81225 0 3.03252
    endloop
  endfacet
  facet normal 0 -1 -0
    outer loop
      vertex 5.81225 0 3.03252
      vertex 3.43226 0 2.4
      vertex 6.09903 0 2.92991
    endloop
  endfacet
  facet normal 0 -1 -0
    outer loop
      vertex 6.39449 0 2.8559
      vertex 3.43226 0 2.4
      vertex 6.69578 0 2.81121
    endloop
  endfacet
  facet normal 0 -1 -0
    outer loop
      vertex 6.09903 0 2.92991
      vertex 3.43226 0 2.4
      vertex 6.39449 0 2.8559
    endloop
  endfacet
  facet normal 0 -1 0
    outer loop
      vertex 9.16 0 8.1261
      vertex 9.35698 0 10.3096
      vertex 9.16 0 10.4028
    endloop
  endfacet
  facet normal 0 -1 -0
    outer loop
      vertex 9.35698 0 10.3096
      vertex 9.16 0 8.1261
      vertex 9.77785 0 10.0573
    endloop
  endfacet
  facet normal 0 -1 -0
    outer loop
      vertex 9.77785 0 10.0573
      vertex 9.16 0 8.1261
      vertex 10.172 0 9.76505
    endloop
  endfacet
  facet normal 0 -1 -0
    outer loop
      vertex 10.172 0 9.76505
      vertex 9.16 0 8.1261
      vertex 10.5355 0 9.43553
    endloop
  endfacet
  facet normal 0 -1 0
    outer loop
      vertex 9.19467 0 8.09467
      vertex 10.5355 0 9.43553
      vertex 9.16 0 8.1261
    endloop
  endfacet
  facet normal 0 -1 -0
    outer loop
      vertex 10.5355 0 9.43553
      vertex 9.19467 0 8.09467
      vertex 10.8651 0 9.07197
    endloop
  endfacet
  facet normal 0 -1 0
    outer loop
      vertex 9.39922 0 7.86899
      vertex 10.8651 0 9.07197
      vertex 9.19467 0 8.09467
    endloop
  endfacet
  facet normal 0 -1 -0
    outer loop
      vertex 10.8651 0 9.07197
      vertex 9.39922 0 7.86899
      vertex 11.1573 0 8.67785
    endloop
  endfacet
  facet normal 0 -1 0
    outer loop
      vertex 9.58066 0 7.62434
      vertex 11.1573 0 8.67785
      vertex 9.39922 0 7.86899
    endloop
  endfacet
  facet normal 0 -1 -0
    outer loop
      vertex 11.1573 0 8.67785
      vertex 9.58066 0 7.62434
      vertex 11.4096 0 8.25698
    endloop
  endfacet
  facet normal 0 -1 0
    outer loop
      vertex 9.73725 0 7.36309
      vertex 11.4096 0 8.25698
      vertex 9.58066 0 7.62434
    endloop
  endfacet
  facet normal 0 -1 -0
    outer loop
      vertex 11.4096 0 8.25698
      vertex 9.73725 0 7.36309
      vertex 11.6194 0 7.81342
    endloop
  endfacet
  facet normal 0 -1 0
    outer loop
      vertex 9.86748 0 7.08775
      vertex 11.6194 0 7.81342
      vertex 9.73725 0 7.36309
    endloop
  endfacet
  facet normal 0 -1 -0
    outer loop
      vertex 11.6194 0 7.81342
      vertex 9.86748 0 7.08775
      vertex 11.7847 0 7.35142
    endloop
  endfacet
  facet normal 0 -1 0
    outer loop
      vertex 9.97009 0 6.80097
      vertex 11.7847 0 7.35142
      vertex 9.86748 0 7.08775
    endloop
  endfacet
  facet normal 0 -1 -0
    outer loop
      vertex 11.7847 0 7.35142
      vertex 9.97009 0 6.80097
      vertex 11.9039 0 6.87545
    endloop
  endfacet
  facet normal 0 -1 0
    outer loop
      vertex 10.0441 0 6.50551
      vertex 11.9039 0 6.87545
      vertex 9.97009 0 6.80097
    endloop
  endfacet
  facet normal 0 -1 0
    outer loop
      vertex 10.0441 0 6.50551
      vertex 11.9759 0 6.39009
      vertex 11.9039 0 6.87545
    endloop
  endfacet
  facet normal 0 -1 0
    outer loop
      vertex 10.0888 0 6.20422
      vertex 11.9759 0 6.39009
      vertex 10.0441 0 6.50551
    endloop
  endfacet
  facet normal 0 -1 0
    outer loop
      vertex 10.1037 0 5.9
      vertex 11.9759 0 6.39009
      vertex 10.0888 0 6.20422
    endloop
  endfacet
  facet normal 0 -1 0
    outer loop
      vertex 10.1037 0 5.9
      vertex 12 0 5.9
      vertex 11.9759 0 6.39009
    endloop
  endfacet
  facet normal 0 -1 0
    outer loop
      vertex 10.0888 0 5.59578
      vertex 12 0 5.9
      vertex 10.1037 0 5.9
    endloop
  endfacet
  facet normal 0 -1 0
    outer loop
      vertex 10.0888 0 5.59578
      vertex 11.9759 0 5.40991
      vertex 12 0 5.9
    endloop
  endfacet
  facet normal 0 -1 0
    outer loop
      vertex 10.0441 0 5.29449
      vertex 11.9759 0 5.40991
      vertex 10.0888 0 5.59578
    endloop
  endfacet
  facet normal 0 -1 0
    outer loop
      vertex 11.9039 0 4.92455
      vertex 10.0441 0 5.29449
      vertex 9.97009 0 4.99903
    endloop
  endfacet
  facet normal 0 -1 0
    outer loop
      vertex 10.0441 0 5.29449
      vertex 11.9039 0 4.92455
      vertex 11.9759 0 5.40991
    endloop
  endfacet
  facet normal 0 -1 0
    outer loop
      vertex 11.7847 0 4.44858
      vertex 9.97009 0 4.99903
      vertex 9.86748 0 4.71225
    endloop
  endfacet
  facet normal 0 -1 0
    outer loop
      vertex 9.97009 0 4.99903
      vertex 11.7847 0 4.44858
      vertex 11.9039 0 4.92455
    endloop
  endfacet
  facet normal 0 -1 0
    outer loop
      vertex 11.6194 0 3.98658
      vertex 9.86748 0 4.71225
      vertex 9.73725 0 4.43691
    endloop
  endfacet
  facet normal 0 -1 0
    outer loop
      vertex 11.4096 0 3.54302
      vertex 9.73725 0 4.43691
      vertex 9.58066 0 4.17565
    endloop
  endfacet
  facet normal 0 -1 0
    outer loop
      vertex 9.86748 0 4.71225
      vertex 11.6194 0 3.98658
      vertex 11.7847 0 4.44858
    endloop
  endfacet
  facet normal 0 -1 0
    outer loop
      vertex 11.1573 0 3.12215
      vertex 9.58066 0 4.17565
      vertex 9.39922 0 3.93101
    endloop
  endfacet
  facet normal 0 -1 0
    outer loop
      vertex 10.5677 0 2.4
      vertex 9.39922 0 3.93101
      vertex 9.19467 0 3.70533
    endloop
  endfacet
  facet normal 0 -1 0
    outer loop
      vertex 9.73725 0 4.43691
      vertex 11.4096 0 3.54302
      vertex 11.6194 0 3.98658
    endloop
  endfacet
  facet normal 0 -1 0
    outer loop
      vertex 10.5677 0 2.4
      vertex 9.19467 0 3.70533
      vertex 8.96899 0 3.50078
    endloop
  endfacet
  facet normal 0 -1 0
    outer loop
      vertex 10.5677 0 2.4
      vertex 8.96899 0 3.50078
      vertex 8.72434 0 3.31933
    endloop
  endfacet
  facet normal 0 -1 0
    outer loop
      vertex 10.5677 0 2.4
      vertex 8.72434 0 3.31933
      vertex 8.46309 0 3.16275
    endloop
  endfacet
  facet normal 0 -1 0
    outer loop
      vertex 9.58066 0 4.17565
      vertex 11.1573 0 3.12215
      vertex 11.4096 0 3.54302
    endloop
  endfacet
  facet normal 0 -1 0
    outer loop
      vertex 10.5677 0 2.4
      vertex 8.46309 0 3.16275
      vertex 8.18775 0 3.03252
    endloop
  endfacet
  facet normal 0 -1 0
    outer loop
      vertex 10.5677 0 2.4
      vertex 8.18775 0 3.03252
      vertex 7.90097 0 2.92991
    endloop
  endfacet
  facet normal 0 -1 0
    outer loop
      vertex 10.5677 0 2.4
      vertex 7.90097 0 2.92991
      vertex 7.60551 0 2.8559
    endloop
  endfacet
  facet normal 0 -1 0
    outer loop
      vertex 10.5677 0 2.4
      vertex 7.60551 0 2.8559
      vertex 7.30422 0 2.81121
    endloop
  endfacet
  facet normal 0 -1 0
    outer loop
      vertex 9.39922 0 3.93101
      vertex 10.8651 0 2.72803
      vertex 11.1573 0 3.12215
    endloop
  endfacet
  facet normal 0 -1 0
    outer loop
      vertex 10.5677 0 2.4
      vertex 7.30422 0 2.81121
      vertex 7 0 2.79626
    endloop
  endfacet
  facet normal 0 -1 0
    outer loop
      vertex 0 0 0
      vertex 6.69578 0 2.81121
      vertex 3.43226 0 2.4
    endloop
  endfacet
  facet normal 0 -1 -0
    outer loop
      vertex 6.69578 0 2.81121
      vertex 0 0 0
      vertex 7 0 2.79626
    endloop
  endfacet
  facet normal 0 -1 0
    outer loop
      vertex 9.39922 0 3.93101
      vertex 10.5677 0 2.4
      vertex 10.8651 0 2.72803
    endloop
  endfacet
  facet normal 0 -1 0
    outer loop
      vertex 0 0 0.00999928
      vertex 3.43226 0 2.4
      vertex 1.5 0 2.4
    endloop
  endfacet
  facet normal 0 -1 -0
    outer loop
      vertex 7 0 2.79626
      vertex 0 0 0
      vertex 10.5677 0 2.4
    endloop
  endfacet
  facet normal 0 -1 0
    outer loop
      vertex 3.43226 0 2.4
      vertex 0 0 0.00999928
      vertex 0 0 0
    endloop
  endfacet
  facet normal 0 -1 0
    outer loop
      vertex 15 0 0
      vertex 10.5677 0 2.4
      vertex 0 0 0
    endloop
  endfacet
  facet normal 0 -1 0
    outer loop
      vertex 10.5677 0 2.4
      vertex 15 0 0
      vertex 13.5 0 2.4
    endloop
  endfacet
  facet normal 0 -1 0
    outer loop
      vertex 13.5 0 2.4
      vertex 15 0 0
      vertex 15 0 0.00999928
    endloop
  endfacet
  facet normal 0.90398 -0 0.427575
    outer loop
      vertex 11.4096 0 8.25698
      vertex 11.6194 12 7.81342
      vertex 11.4096 12 8.25698
    endloop
  endfacet
  facet normal 0.90398 0 0.427575
    outer loop
      vertex 11.6194 12 7.81342
      vertex 11.4096 0 8.25698
      vertex 11.6194 0 7.81342
    endloop
  endfacet
  facet normal 0.941548 -0 0.336879
    outer loop
      vertex 11.6194 0 7.81342
      vertex 11.7847 12 7.35142
      vertex 11.6194 12 7.81342
    endloop
  endfacet
  facet normal 0.941548 0 0.336879
    outer loop
      vertex 11.7847 12 7.35142
      vertex 11.6194 0 7.81342
      vertex 11.7847 0 7.35142
    endloop
  endfacet
  facet normal 0.740849 0 -0.671672
    outer loop
      vertex 10.8651 0 2.72803
      vertex 10.5677 12 2.4
      vertex 10.8651 12 2.72803
    endloop
  endfacet
  facet normal 0.740849 0 -0.671672
    outer loop
      vertex 10.5677 12 2.4
      vertex 10.8651 0 2.72803
      vertex 10.5677 0 2.4
    endloop
  endfacet
  facet normal 0.857692 -0 0.514163
    outer loop
      vertex 11.1573 0 8.67785
      vertex 11.4096 12 8.25698
      vertex 11.1573 12 8.67785
    endloop
  endfacet
  facet normal 0.857692 0 0.514163
    outer loop
      vertex 11.4096 12 8.25698
      vertex 11.1573 0 8.67785
      vertex 11.4096 0 8.25698
    endloop
  endfacet
  facet normal 0.671629 0 0.740887
    outer loop
      vertex 10.172 12 9.76505
      vertex 10.5355 0 9.43553
      vertex 10.5355 12 9.43553
    endloop
  endfacet
  facet normal 0.671629 0 0.740887
    outer loop
      vertex 10.5355 0 9.43553
      vertex 10.172 12 9.76505
      vertex 10.172 0 9.76505
    endloop
  endfacet
  facet normal -0.970029 0 -0.242991
    outer loop
      vertex 2.2153 0 4.44858
      vertex 2.09607 12 4.92455
      vertex 2.2153 12 4.44858
    endloop
  endfacet
  facet normal -0.970029 -0 -0.242991
    outer loop
      vertex 2.09607 12 4.92455
      vertex 2.2153 0 4.44858
      vertex 2.09607 0 4.92455
    endloop
  endfacet
  facet normal -0.903988 0 -0.427558
    outer loop
      vertex 2.59039 0 3.54302
      vertex 2.3806 12 3.98658
      vertex 2.59039 12 3.54302
    endloop
  endfacet
  facet normal -0.903988 -0 -0.427558
    outer loop
      vertex 2.3806 12 3.98658
      vertex 2.59039 0 3.54302
      vertex 2.3806 0 3.98658
    endloop
  endfacet
  facet normal -0.998795 0 0.0490746
    outer loop
      vertex 2 0 5.9
      vertex 2.02408 12 6.39009
      vertex 2 12 5.9
    endloop
  endfacet
  facet normal -0.998795 0 0.0490746
    outer loop
      vertex 2.02408 12 6.39009
      vertex 2 0 5.9
      vertex 2.02408 0 6.39009
    endloop
  endfacet
  facet normal -0.671568 0 0.740943
    outer loop
      vertex 3.46447 12 9.43553
      vertex 3.82803 0 9.76505
      vertex 3.82803 12 9.76505
    endloop
  endfacet
  facet normal -0.671568 0 0.740943
    outer loop
      vertex 3.82803 0 9.76505
      vertex 3.46447 12 9.43553
      vertex 3.46447 0 9.43553
    endloop
  endfacet
  facet normal 0.595605 0 0.803277
    outer loop
      vertex 9.77785 12 10.0573
      vertex 10.172 0 9.76505
      vertex 10.172 12 9.76505
    endloop
  endfacet
  facet normal 0.595605 0 0.803277
    outer loop
      vertex 10.172 0 9.76505
      vertex 9.77785 12 10.0573
      vertex 9.77785 0 10.0573
    endloop
  endfacet
  facet normal -0.803207 0 0.5957
    outer loop
      vertex 2.84265 0 8.67785
      vertex 3.13495 12 9.07197
      vertex 2.84265 12 8.67785
    endloop
  endfacet
  facet normal -0.803207 0 0.5957
    outer loop
      vertex 3.13495 12 9.07197
      vertex 2.84265 0 8.67785
      vertex 3.13495 0 9.07197
    endloop
  endfacet
  facet normal -0.857728 0 -0.514103
    outer loop
      vertex 2.84265 0 3.12215
      vertex 2.59039 12 3.54302
      vertex 2.84265 12 3.12215
    endloop
  endfacet
  facet normal -0.857728 -0 -0.514103
    outer loop
      vertex 2.59039 12 3.54302
      vertex 2.84265 0 3.12215
      vertex 2.59039 0 3.54302
    endloop
  endfacet
  facet normal -0.595634 0 0.803256
    outer loop
      vertex 3.82803 12 9.76505
      vertex 4.22215 0 10.0573
      vertex 4.22215 12 10.0573
    endloop
  endfacet
  facet normal -0.595634 0 0.803256
    outer loop
      vertex 4.22215 0 10.0573
      vertex 3.82803 12 9.76505
      vertex 3.82803 0 9.76505
    endloop
  endfacet
  facet normal 0 0 -1
    outer loop
      vertex 0 0 0
      vertex 15 12 0
      vertex 15 0 0
    endloop
  endfacet
  facet normal -0 0 -1
    outer loop
      vertex 15 12 0
      vertex 0 0 0
      vertex 0 12 0
    endloop
  endfacet
  facet normal -1 0 0
    outer loop
      vertex 0 0 0
      vertex 0 12 0.00999928
      vertex 0 12 0
    endloop
  endfacet
  facet normal -1 -0 0
    outer loop
      vertex 0 12 0.00999928
      vertex 0 0 0
      vertex 0 0 0.00999928
    endloop
  endfacet
  facet normal -0.847001 0 0.531591
    outer loop
      vertex 0 0 0.00999928
      vertex 1.5 12 2.4
      vertex 0 12 0.00999928
    endloop
  endfacet
  facet normal -0.847001 0 0.531591
    outer loop
      vertex 1.5 12 2.4
      vertex 0 0 0.00999928
      vertex 1.5 0 2.4
    endloop
  endfacet
  facet normal -0 0 1
    outer loop
      vertex 1.5 12 2.4
      vertex 3.43226 0 2.4
      vertex 3.43226 12 2.4
    endloop
  endfacet
  facet normal 0 0 1
    outer loop
      vertex 3.43226 0 2.4
      vertex 1.5 12 2.4
      vertex 1.5 0 2.4
    endloop
  endfacet
  facet normal -0 0 1
    outer loop
      vertex 10.5677 12 2.4
      vertex 13.5 0 2.4
      vertex 13.5 12 2.4
    endloop
  endfacet
  facet normal 0 0 1
    outer loop
      vertex 13.5 0 2.4
      vertex 10.5677 12 2.4
      vertex 10.5677 0 2.4
    endloop
  endfacet
  facet normal 0.847001 -0 0.531591
    outer loop
      vertex 13.5 0 2.4
      vertex 15 12 0.00999928
      vertex 13.5 12 2.4
    endloop
  endfacet
  facet normal 0.847001 0 0.531591
    outer loop
      vertex 15 12 0.00999928
      vertex 13.5 0 2.4
      vertex 15 0 0.00999928
    endloop
  endfacet
  facet normal 1 -0 0
    outer loop
      vertex 15 0 0.00999928
      vertex 15 12 0
      vertex 15 12 0.00999928
    endloop
  endfacet
  facet normal 1 0 0
    outer loop
      vertex 15 12 0
      vertex 15 0 0.00999928
      vertex 15 0 0
    endloop
  endfacet
  facet normal -0.989173 0 0.146756
    outer loop
      vertex 10.0441 0 5.29449
      vertex 10.0888 12 5.59578
      vertex 10.0441 12 5.29449
    endloop
  endfacet
  facet normal -0.989173 0 0.146756
    outer loop
      vertex 10.0888 12 5.59578
      vertex 10.0441 0 5.29449
      vertex 10.0888 0 5.59578
    endloop
  endfacet
  facet normal -0.998803 0 0.0489191
    outer loop
      vertex 10.0888 0 5.59578
      vertex 10.1037 12 5.9
      vertex 10.0888 12 5.59578
    endloop
  endfacet
  facet normal -0.998803 0 0.0489191
    outer loop
      vertex 10.1037 12 5.9
      vertex 10.0888 0 5.59578
      vertex 10.1037 0 5.9
    endloop
  endfacet
  facet normal -0.97003 0 0.242984
    outer loop
      vertex 9.97009 0 4.99903
      vertex 10.0441 12 5.29449
      vertex 9.97009 12 4.99903
    endloop
  endfacet
  facet normal -0.97003 0 0.242984
    outer loop
      vertex 10.0441 12 5.29449
      vertex 9.97009 0 4.99903
      vertex 10.0441 0 5.29449
    endloop
  endfacet
  facet normal -0.242984 0 0.97003
    outer loop
      vertex 7.60551 12 2.8559
      vertex 7.90097 0 2.92991
      vertex 7.90097 12 2.92991
    endloop
  endfacet
  facet normal -0.242984 0 0.97003
    outer loop
      vertex 7.90097 0 2.92991
      vertex 7.60551 12 2.8559
      vertex 7.60551 0 2.8559
    endloop
  endfacet
  facet normal -0.59571 0 0.803199
    outer loop
      vertex 8.72434 12 3.31933
      vertex 8.96899 0 3.50078
      vertex 8.96899 12 3.50078
    endloop
  endfacet
  facet normal -0.59571 0 0.803199
    outer loop
      vertex 8.96899 0 3.50078
      vertex 8.72434 12 3.31933
      vertex 8.72434 0 3.31933
    endloop
  endfacet
  facet normal 0.514071 0 0.857748
    outer loop
      vertex 5.27565 12 3.31933
      vertex 5.53691 0 3.16275
      vertex 5.53691 12 3.16275
    endloop
  endfacet
  facet normal 0.514071 0 0.857748
    outer loop
      vertex 5.53691 0 3.16275
      vertex 5.27565 12 3.31933
      vertex 5.27565 0 3.31933
    endloop
  endfacet
  facet normal -0.671569 0 0.740942
    outer loop
      vertex 8.96899 12 3.50078
      vertex 9.19467 0 3.70533
      vertex 9.19467 12 3.70533
    endloop
  endfacet
  facet normal -0.671569 0 0.740942
    outer loop
      vertex 9.19467 0 3.70533
      vertex 8.96899 12 3.50078
      vertex 8.96899 0 3.50078
    endloop
  endfacet
  facet normal 0.998795 0 -0.0490828
    outer loop
      vertex 3.91121 0 6.20422
      vertex 3.89626 12 5.9
      vertex 3.91121 12 6.20422
    endloop
  endfacet
  facet normal 0.998795 0 -0.0490828
    outer loop
      vertex 3.89626 12 5.9
      vertex 3.91121 0 6.20422
      vertex 3.89626 0 5.9
    endloop
  endfacet
  facet normal 0.671534 0 -0.740974
    outer loop
      vertex 4.80532 0 8.09467
      vertex 4.84 12 8.1261
      vertex 4.84 0 8.1261
    endloop
  endfacet
  facet normal 0.671534 0 -0.740974
    outer loop
      vertex 4.84 12 8.1261
      vertex 4.80532 0 8.09467
      vertex 4.80532 12 8.09467
    endloop
  endfacet
  facet normal -0.336885 0 0.941546
    outer loop
      vertex 7.90097 12 2.92991
      vertex 8.18775 0 3.03252
      vertex 8.18775 12 3.03252
    endloop
  endfacet
  facet normal -0.336885 0 0.941546
    outer loop
      vertex 8.18775 0 3.03252
      vertex 7.90097 12 2.92991
      vertex 7.90097 0 2.92991
    endloop
  endfacet
  facet normal 0.989178 0 -0.146724
    outer loop
      vertex 3.9559 0 6.50551
      vertex 3.91121 12 6.20422
      vertex 3.9559 12 6.50551
    endloop
  endfacet
  facet normal 0.989178 0 -0.146724
    outer loop
      vertex 3.91121 12 6.20422
      vertex 3.9559 0 6.50551
      vertex 3.91121 0 6.20422
    endloop
  endfacet
  facet normal 0.427565 0 0.903984
    outer loop
      vertex 5.53691 12 3.16275
      vertex 5.81225 0 3.03252
      vertex 5.81225 12 3.03252
    endloop
  endfacet
  facet normal 0.427565 0 0.903984
    outer loop
      vertex 5.81225 0 3.03252
      vertex 5.53691 12 3.16275
      vertex 5.53691 0 3.16275
    endloop
  endfacet
  facet normal 0.941546 0 -0.336885
    outer loop
      vertex 4.13252 0 7.08775
      vertex 4.02991 12 6.80097
      vertex 4.13252 12 7.08775
    endloop
  endfacet
  facet normal 0.941546 0 -0.336885
    outer loop
      vertex 4.02991 12 6.80097
      vertex 4.13252 0 7.08775
      vertex 4.02991 0 6.80097
    endloop
  endfacet
  facet normal -0.803203 0 0.595705
    outer loop
      vertex 9.39922 0 3.93101
      vertex 9.58066 12 4.17565
      vertex 9.39922 12 3.93101
    endloop
  endfacet
  facet normal -0.803203 0 0.595705
    outer loop
      vertex 9.58066 12 4.17565
      vertex 9.39922 0 3.93101
      vertex 9.58066 0 4.17565
    endloop
  endfacet
  facet normal -0.427565 0 0.903984
    outer loop
      vertex 8.18775 12 3.03252
      vertex 8.46309 0 3.16275
      vertex 8.46309 12 3.16275
    endloop
  endfacet
  facet normal -0.427565 0 0.903984
    outer loop
      vertex 8.46309 0 3.16275
      vertex 8.18775 12 3.03252
      vertex 8.18775 0 3.03252
    endloop
  endfacet
  facet normal -0.998803 0 -0.0489191
    outer loop
      vertex 10.1037 0 5.9
      vertex 10.0888 12 6.20422
      vertex 10.1037 12 5.9
    endloop
  endfacet
  facet normal -0.998803 -0 -0.0489191
    outer loop
      vertex 10.0888 12 6.20422
      vertex 10.1037 0 5.9
      vertex 10.0888 0 6.20422
    endloop
  endfacet
  facet normal -0.989173 0 -0.146756
    outer loop
      vertex 10.0888 0 6.20422
      vertex 10.0441 12 6.50551
      vertex 10.0888 12 6.20422
    endloop
  endfacet
  facet normal -0.989173 -0 -0.146756
    outer loop
      vertex 10.0441 12 6.50551
      vertex 10.0888 0 6.20422
      vertex 10.0441 0 6.50551
    endloop
  endfacet
  facet normal 0.857733 -0 0.514095
    outer loop
      vertex 4.26275 0 4.43691
      vertex 4.41934 12 4.17565
      vertex 4.26275 12 4.43691
    endloop
  endfacet
  facet normal 0.857733 0 0.514095
    outer loop
      vertex 4.41934 12 4.17565
      vertex 4.26275 0 4.43691
      vertex 4.41934 0 4.17565
    endloop
  endfacet
  facet normal -0.514085 0 0.857739
    outer loop
      vertex 8.46309 12 3.16275
      vertex 8.72434 0 3.31933
      vertex 8.72434 12 3.31933
    endloop
  endfacet
  facet normal -0.514085 0 0.857739
    outer loop
      vertex 8.72434 0 3.31933
      vertex 8.46309 12 3.16275
      vertex 8.46309 0 3.16275
    endloop
  endfacet
  facet normal 0.595726 0 0.803188
    outer loop
      vertex 5.03101 12 3.50078
      vertex 5.27565 0 3.31933
      vertex 5.27565 12 3.31933
    endloop
  endfacet
  facet normal 0.595726 0 0.803188
    outer loop
      vertex 5.27565 0 3.31933
      vertex 5.03101 12 3.50078
      vertex 5.03101 0 3.50078
    endloop
  endfacet
  facet normal -0.941546 0 0.336885
    outer loop
      vertex 9.86748 0 4.71225
      vertex 9.97009 12 4.99903
      vertex 9.86748 12 4.71225
    endloop
  endfacet
  facet normal -0.941546 0 0.336885
    outer loop
      vertex 9.97009 12 4.99903
      vertex 9.86748 0 4.71225
      vertex 9.97009 0 4.99903
    endloop
  endfacet
  facet normal 0.97003 -0 0.242984
    outer loop
      vertex 3.9559 0 5.29449
      vertex 4.02991 12 4.99903
      vertex 3.9559 12 5.29449
    endloop
  endfacet
  facet normal 0.97003 0 0.242984
    outer loop
      vertex 4.02991 12 4.99903
      vertex 3.9559 0 5.29449
      vertex 4.02991 0 4.99903
    endloop
  endfacet
  facet normal 0.941546 -0 0.336885
    outer loop
      vertex 4.02991 0 4.99903
      vertex 4.13252 12 4.71225
      vertex 4.02991 12 4.99903
    endloop
  endfacet
  facet normal 0.941546 0 0.336885
    outer loop
      vertex 4.13252 12 4.71225
      vertex 4.02991 0 4.99903
      vertex 4.13252 0 4.71225
    endloop
  endfacet
  facet normal -0.740942 0 -0.671569
    outer loop
      vertex 9.39922 0 7.86899
      vertex 9.19467 12 8.09467
      vertex 9.39922 12 7.86899
    endloop
  endfacet
  facet normal -0.740942 -0 -0.671569
    outer loop
      vertex 9.19467 12 8.09467
      vertex 9.39922 0 7.86899
      vertex 9.19467 0 8.09467
    endloop
  endfacet
  facet normal 0.903984 0 -0.427565
    outer loop
      vertex 4.26275 0 7.36309
      vertex 4.13252 12 7.08775
      vertex 4.26275 12 7.36309
    endloop
  endfacet
  facet normal 0.903984 0 -0.427565
    outer loop
      vertex 4.13252 12 7.08775
      vertex 4.26275 0 7.36309
      vertex 4.13252 0 7.08775
    endloop
  endfacet
  facet normal 0.146724 0 0.989178
    outer loop
      vertex 6.39449 12 2.8559
      vertex 6.69578 0 2.81121
      vertex 6.69578 12 2.81121
    endloop
  endfacet
  facet normal 0.146724 0 0.989178
    outer loop
      vertex 6.69578 0 2.81121
      vertex 6.39449 12 2.8559
      vertex 6.39449 0 2.8559
    endloop
  endfacet
  facet normal 0.0490828 0 0.998795
    outer loop
      vertex 6.69578 12 2.81121
      vertex 7 0 2.79626
      vertex 7 12 2.79626
    endloop
  endfacet
  facet normal 0.0490828 0 0.998795
    outer loop
      vertex 7 0 2.79626
      vertex 6.69578 12 2.81121
      vertex 6.69578 0 2.81121
    endloop
  endfacet
  facet normal 0.242984 0 0.97003
    outer loop
      vertex 6.09903 12 2.92991
      vertex 6.39449 0 2.8559
      vertex 6.39449 12 2.8559
    endloop
  endfacet
  facet normal 0.242984 0 0.97003
    outer loop
      vertex 6.39449 0 2.8559
      vertex 6.09903 12 2.92991
      vertex 6.09903 0 2.92991
    endloop
  endfacet
  facet normal -0.941546 0 -0.336885
    outer loop
      vertex 9.97009 0 6.80097
      vertex 9.86748 12 7.08775
      vertex 9.97009 12 6.80097
    endloop
  endfacet
  facet normal -0.941546 -0 -0.336885
    outer loop
      vertex 9.86748 12 7.08775
      vertex 9.97009 0 6.80097
      vertex 9.86748 0 7.08775
    endloop
  endfacet
  facet normal -0.803215 0 -0.595689
    outer loop
      vertex 9.58066 0 7.62434
      vertex 9.39922 12 7.86899
      vertex 9.58066 12 7.62434
    endloop
  endfacet
  facet normal -0.803215 -0 -0.595689
    outer loop
      vertex 9.39922 12 7.86899
      vertex 9.58066 0 7.62434
      vertex 9.39922 0 7.86899
    endloop
  endfacet
  facet normal 0.740958 -0 0.671551
    outer loop
      vertex 4.60078 0 3.93101
      vertex 4.80532 12 3.70533
      vertex 4.60078 12 3.93101
    endloop
  endfacet
  facet normal 0.740958 0 0.671551
    outer loop
      vertex 4.80532 12 3.70533
      vertex 4.60078 0 3.93101
      vertex 4.80532 0 3.70533
    endloop
  endfacet
  facet normal -0.97003 0 -0.242984
    outer loop
      vertex 10.0441 0 6.50551
      vertex 9.97009 12 6.80097
      vertex 10.0441 12 6.50551
    endloop
  endfacet
  facet normal -0.97003 -0 -0.242984
    outer loop
      vertex 9.97009 12 6.80097
      vertex 10.0441 0 6.50551
      vertex 9.97009 0 6.80097
    endloop
  endfacet
  facet normal 0.998795 -0 0.0490828
    outer loop
      vertex 3.89626 0 5.9
      vertex 3.91121 12 5.59578
      vertex 3.89626 12 5.9
    endloop
  endfacet
  facet normal 0.998795 0 0.0490828
    outer loop
      vertex 3.91121 12 5.59578
      vertex 3.89626 0 5.9
      vertex 3.91121 0 5.59578
    endloop
  endfacet
  facet normal -0.903984 0 0.427565
    outer loop
      vertex 9.73725 0 4.43691
      vertex 9.86748 12 4.71225
      vertex 9.73725 12 4.43691
    endloop
  endfacet
  facet normal -0.903984 0 0.427565
    outer loop
      vertex 9.86748 12 4.71225
      vertex 9.73725 0 4.43691
      vertex 9.86748 0 4.71225
    endloop
  endfacet
  facet normal -0.740942 0 0.671569
    outer loop
      vertex 9.19467 0 3.70533
      vertex 9.39922 12 3.93101
      vertex 9.19467 12 3.70533
    endloop
  endfacet
  facet normal -0.740942 0 0.671569
    outer loop
      vertex 9.39922 12 3.93101
      vertex 9.19467 0 3.70533
      vertex 9.39922 0 3.93101
    endloop
  endfacet
  facet normal -0.857733 0 0.514095
    outer loop
      vertex 9.58066 0 4.17565
      vertex 9.73725 12 4.43691
      vertex 9.58066 12 4.17565
    endloop
  endfacet
  facet normal -0.857733 0 0.514095
    outer loop
      vertex 9.73725 12 4.43691
      vertex 9.58066 0 4.17565
      vertex 9.73725 0 4.43691
    endloop
  endfacet
  facet normal -0.0490828 0 0.998795
    outer loop
      vertex 7 12 2.79626
      vertex 7.30422 0 2.81121
      vertex 7.30422 12 2.81121
    endloop
  endfacet
  facet normal -0.0490828 0 0.998795
    outer loop
      vertex 7.30422 0 2.81121
      vertex 7 12 2.79626
      vertex 7 0 2.79626
    endloop
  endfacet
  facet normal 0.671553 0 0.740957
    outer loop
      vertex 4.80532 12 3.70533
      vertex 5.03101 0 3.50078
      vertex 5.03101 12 3.50078
    endloop
  endfacet
  facet normal 0.671553 0 0.740957
    outer loop
      vertex 5.03101 0 3.50078
      vertex 4.80532 12 3.70533
      vertex 4.80532 0 3.70533
    endloop
  endfacet
  facet normal 0.336885 0 0.941546
    outer loop
      vertex 5.81225 12 3.03252
      vertex 6.09903 0 2.92991
      vertex 6.09903 12 2.92991
    endloop
  endfacet
  facet normal 0.336885 0 0.941546
    outer loop
      vertex 6.09903 0 2.92991
      vertex 5.81225 12 3.03252
      vertex 5.81225 0 3.03252
    endloop
  endfacet
  facet normal 0.803215 0 -0.595689
    outer loop
      vertex 4.60078 0 7.86899
      vertex 4.41934 12 7.62434
      vertex 4.60078 12 7.86899
    endloop
  endfacet
  facet normal 0.803215 0 -0.595689
    outer loop
      vertex 4.41934 12 7.62434
      vertex 4.60078 0 7.86899
      vertex 4.41934 0 7.62434
    endloop
  endfacet
  facet normal 0.97003 0 -0.242984
    outer loop
      vertex 4.02991 0 6.80097
      vertex 3.9559 12 6.50551
      vertex 4.02991 12 6.80097
    endloop
  endfacet
  facet normal 0.97003 0 -0.242984
    outer loop
      vertex 3.9559 12 6.50551
      vertex 4.02991 0 6.80097
      vertex 3.9559 0 6.50551
    endloop
  endfacet
  facet normal -0.146724 0 0.989178
    outer loop
      vertex 7.30422 12 2.81121
      vertex 7.60551 0 2.8559
      vertex 7.60551 12 2.8559
    endloop
  endfacet
  facet normal -0.146724 0 0.989178
    outer loop
      vertex 7.60551 0 2.8559
      vertex 7.30422 12 2.81121
      vertex 7.30422 0 2.81121
    endloop
  endfacet
  facet normal 0.740958 0 -0.671551
    outer loop
      vertex 4.80532 0 8.09467
      vertex 4.60078 12 7.86899
      vertex 4.80532 12 8.09467
    endloop
  endfacet
  facet normal 0.740958 0 -0.671551
    outer loop
      vertex 4.60078 12 7.86899
      vertex 4.80532 0 8.09467
      vertex 4.60078 0 7.86899
    endloop
  endfacet
  facet normal -0.857725 0 -0.514109
    outer loop
      vertex 9.73725 0 7.36309
      vertex 9.58066 12 7.62434
      vertex 9.73725 12 7.36309
    endloop
  endfacet
  facet normal -0.857725 -0 -0.514109
    outer loop
      vertex 9.58066 12 7.62434
      vertex 9.73725 0 7.36309
      vertex 9.58066 0 7.62434
    endloop
  endfacet
  facet normal -0.903984 0 -0.427565
    outer loop
      vertex 9.86748 0 7.08775
      vertex 9.73725 12 7.36309
      vertex 9.86748 12 7.08775
    endloop
  endfacet
  facet normal -0.903984 -0 -0.427565
    outer loop
      vertex 9.73725 12 7.36309
      vertex 9.86748 0 7.08775
      vertex 9.73725 0 7.36309
    endloop
  endfacet
  facet normal 0.803203 -0 0.595705
    outer loop
      vertex 4.41934 0 4.17565
      vertex 4.60078 12 3.93101
      vertex 4.41934 12 4.17565
    endloop
  endfacet
  facet normal 0.803203 0 0.595705
    outer loop
      vertex 4.60078 12 3.93101
      vertex 4.41934 0 4.17565
      vertex 4.60078 0 3.93101
    endloop
  endfacet
  facet normal 0.903984 -0 0.427565
    outer loop
      vertex 4.13252 0 4.71225
      vertex 4.26275 12 4.43691
      vertex 4.13252 12 4.71225
    endloop
  endfacet
  facet normal 0.903984 0 0.427565
    outer loop
      vertex 4.26275 12 4.43691
      vertex 4.13252 0 4.71225
      vertex 4.26275 0 4.43691
    endloop
  endfacet
  facet normal 0.989178 -0 0.146724
    outer loop
      vertex 3.91121 0 5.59578
      vertex 3.9559 12 5.29449
      vertex 3.91121 12 5.59578
    endloop
  endfacet
  facet normal 0.989178 0 0.146724
    outer loop
      vertex 3.9559 12 5.29449
      vertex 3.91121 0 5.59578
      vertex 3.9559 0 5.29449
    endloop
  endfacet
  facet normal 0.857725 0 -0.514109
    outer loop
      vertex 4.41934 0 7.62434
      vertex 4.26275 12 7.36309
      vertex 4.41934 12 7.62434
    endloop
  endfacet
  facet normal 0.857725 0 -0.514109
    outer loop
      vertex 4.26275 12 7.36309
      vertex 4.41934 0 7.62434
      vertex 4.26275 0 7.36309
    endloop
  endfacet
  facet normal -0.67164 0 -0.740877
    outer loop
      vertex 9.16 0 8.1261
      vertex 9.19467 12 8.09467
      vertex 9.19467 0 8.09467
    endloop
  endfacet
  facet normal -0.67164 0 -0.740877
    outer loop
      vertex 9.19467 12 8.09467
      vertex 9.16 0 8.1261
      vertex 9.16 12 8.1261
    endloop
  endfacet
  facet normal -1 0 0
    outer loop
      vertex 9.16 0 8.1261
      vertex 9.16 12 10.4028
      vertex 9.16 12 8.1261
    endloop
  endfacet
  facet normal -1 -0 0
    outer loop
      vertex 9.16 12 10.4028
      vertex 9.16 0 8.1261
      vertex 9.16 0 10.4028
    endloop
  endfacet
  facet normal 1 -0 0
    outer loop
      vertex 4.84 0 10.4028
      vertex 4.84 12 8.1261
      vertex 4.84 12 10.4028
    endloop
  endfacet
  facet normal 1 0 0
    outer loop
      vertex 4.84 12 8.1261
      vertex 4.84 0 10.4028
      vertex 4.84 0 8.1261
    endloop
  endfacet
endsolid OpenSCAD_Model
