solid OpenSCAD_Model
  facet normal -0.860498 0.495482 0.118499
    outer loop
      vertex 31.8634 -55.189 8.50575
      vertex 37.3369 -64.6693 87.8927
      vertex 31.4838 -54.5315 3
    endloop
  endfacet
  facet normal 0.860498 0.495482 0.118499
    outer loop
      vertex -31.8634 -55.189 8.50575
      vertex -31.4838 -54.5315 3
      vertex -37.3369 -64.6693 87.8927
    endloop
  endfacet
  facet normal -0.859915 0.496473 0.118577
    outer loop
      vertex 64.8997 0 17.0115
      vertex 62.9676 0 3
      vertex 31.8609 -53.8783 3
    endloop
  endfacet
  facet normal -0.859915 -0.496473 0.118577
    outer loop
      vertex 64.8997 0 17.0115
      vertex 76.2376 0 99.2337
      vertex 37.3369 64.6693 87.8927
    endloop
  endfacet
  facet normal 0.859914 -0.496471 0.118593
    outer loop
      vertex -38.7052 67.0394 107.74
      vertex -39.0955 67.7154 113.4
      vertex -78.1227 0.118228 113.4
    endloop
  endfacet
  facet normal 0.8598 0.497085 0.116839
    outer loop
      vertex -78.1227 -0.118228 113.4
      vertex -37.3369 -64.6693 87.8927
      vertex -78.1764 -0.025344 113.4
    endloop
  endfacet
  facet normal 0.859916 0.496474 0.118571
    outer loop
      vertex -37.3369 -64.6693 87.8927
      vertex -78.1227 -0.118228 113.4
      vertex -38.7052 -67.0394 107.74
    endloop
  endfacet
  facet normal 0 0.992945 0.118578
    outer loop
      vertex 37.3369 -64.6693 87.8927
      vertex -39.0955 -67.7154 113.4
      vertex 39.0955 -67.7154 113.4
    endloop
  endfacet
  facet normal 0 0.992945 0.118578
    outer loop
      vertex -39.0955 -67.7154 113.4
      vertex 37.3369 -64.6693 87.8927
      vertex -37.3369 -64.6693 87.8927
    endloop
  endfacet
  facet normal -0.85993 0.496448 0.118575
    outer loop
      vertex 37.3369 -64.6693 87.8927
      vertex 31.8609 -53.8783 3
      vertex 31.4838 -54.5315 3
    endloop
  endfacet
  facet normal -0.859915 0.496473 0.118577
    outer loop
      vertex 31.8609 -53.8783 3
      vertex 37.3369 -64.6693 87.8927
      vertex 64.8997 0 17.0115
    endloop
  endfacet
  facet normal -0.740173 -0.671782 -0.0291935
    outer loop
      vertex 39.0955 -67.7154 113.4
      vertex 38.7052 -67.0394 107.74
      vertex 37.3369 -64.6693 87.8927
    endloop
  endfacet
  facet normal -0.860384 0.495644 0.118639
    outer loop
      vertex 76.2376 0 99.2337
      vertex 78.1764 -0.025344 113.4
      vertex 78.191 0 113.4
    endloop
  endfacet
  facet normal -0.859915 0.496473 0.118576
    outer loop
      vertex 78.1764 -0.025344 113.4
      vertex 76.2376 0 99.2337
      vertex 37.3369 -64.6693 87.8927
    endloop
  endfacet
  facet normal 0.85993 -0.496448 0.118575
    outer loop
      vertex -37.3369 64.6693 87.8927
      vertex -31.8609 53.8783 3
      vertex -31.4838 54.5315 3
    endloop
  endfacet
  facet normal 0.859915 -0.496473 0.118577
    outer loop
      vertex -31.8609 53.8783 3
      vertex -37.3369 64.6693 87.8927
      vertex -64.8997 0 17.0115
    endloop
  endfacet
  facet normal -0.8598 0.497085 0.116839
    outer loop
      vertex 37.3369 -64.6693 87.8927
      vertex 78.1227 -0.118228 113.4
      vertex 78.1764 -0.025344 113.4
    endloop
  endfacet
  facet normal -0.859916 0.496474 0.118571
    outer loop
      vertex 78.1227 -0.118228 113.4
      vertex 37.3369 -64.6693 87.8927
      vertex 38.7052 -67.0394 107.74
    endloop
  endfacet
  facet normal -0.859914 0.496471 0.118593
    outer loop
      vertex 39.0955 -67.7154 113.4
      vertex 78.1227 -0.118228 113.4
      vertex 38.7052 -67.0394 107.74
    endloop
  endfacet
  facet normal 0 -0.992945 0.118576
    outer loop
      vertex -31.8634 55.189 8.50575
      vertex 37.3369 64.6693 87.8927
      vertex -37.3369 64.6693 87.8927
    endloop
  endfacet
  facet normal 0 -0.992945 0.118576
    outer loop
      vertex 37.3369 64.6693 87.8927
      vertex -31.8634 55.189 8.50575
      vertex 31.8634 55.189 8.50575
    endloop
  endfacet
  facet normal -0.859915 -0.496473 0.118576
    outer loop
      vertex 76.2376 0 99.2337
      vertex 78.1764 0.025344 113.4
      vertex 37.3369 64.6693 87.8927
    endloop
  endfacet
  facet normal -0.860384 -0.495644 0.118639
    outer loop
      vertex 78.1764 0.025344 113.4
      vertex 76.2376 0 99.2337
      vertex 78.191 0 113.4
    endloop
  endfacet
  facet normal 0 0.992945 0.118576
    outer loop
      vertex 31.8634 -55.189 8.50575
      vertex -37.3369 -64.6693 87.8927
      vertex 37.3369 -64.6693 87.8927
    endloop
  endfacet
  facet normal 0 0.992945 0.118576
    outer loop
      vertex -37.3369 -64.6693 87.8927
      vertex 31.8634 -55.189 8.50575
      vertex -31.8634 -55.189 8.50575
    endloop
  endfacet
  facet normal 0.859915 -0.496473 0.118577
    outer loop
      vertex -62.9676 0 3
      vertex -31.8609 53.8783 3
      vertex -64.8997 0 17.0115
    endloop
  endfacet
  facet normal 0.859915 0.496473 0.118577
    outer loop
      vertex -37.3369 -64.6693 87.8927
      vertex -64.8997 0 17.0115
      vertex -76.2376 0 99.2337
    endloop
  endfacet
  facet normal -0.740173 0.671782 -0.0291935
    outer loop
      vertex 38.7052 67.0394 107.74
      vertex 39.0955 67.7154 113.4
      vertex 37.3369 64.6693 87.8927
    endloop
  endfacet
  facet normal 0 -0.992945 0.118578
    outer loop
      vertex -37.3369 64.6693 87.8927
      vertex 39.0955 67.7154 113.4
      vertex -39.0955 67.7154 113.4
    endloop
  endfacet
  facet normal 0 -0.992945 0.118578
    outer loop
      vertex 39.0955 67.7154 113.4
      vertex -37.3369 64.6693 87.8927
      vertex 37.3369 64.6693 87.8927
    endloop
  endfacet
  facet normal -0.859915 -0.496473 0.118577
    outer loop
      vertex 62.9676 0 3
      vertex 64.8997 0 17.0115
      vertex 31.8609 53.8783 3
    endloop
  endfacet
  facet normal -0.859915 0.496473 0.118577
    outer loop
      vertex 76.2376 0 99.2337
      vertex 64.8997 0 17.0115
      vertex 37.3369 -64.6693 87.8927
    endloop
  endfacet
  facet normal -0.859916 -0.496474 0.118571
    outer loop
      vertex 37.3369 64.6693 87.8927
      vertex 78.1227 0.118228 113.4
      vertex 38.7052 67.0394 107.74
    endloop
  endfacet
  facet normal -0.8598 -0.497085 0.116839
    outer loop
      vertex 78.1227 0.118228 113.4
      vertex 37.3369 64.6693 87.8927
      vertex 78.1764 0.025344 113.4
    endloop
  endfacet
  facet normal 0.740173 -0.671782 -0.0291935
    outer loop
      vertex -39.0955 -67.7154 113.4
      vertex -37.3369 -64.6693 87.8927
      vertex -38.7052 -67.0394 107.74
    endloop
  endfacet
  facet normal 0.859914 0.496471 0.118593
    outer loop
      vertex -39.0955 -67.7154 113.4
      vertex -38.7052 -67.0394 107.74
      vertex -78.1227 -0.118228 113.4
    endloop
  endfacet
  facet normal 0 0.992945 0.118578
    outer loop
      vertex 31.4838 -54.5315 3
      vertex -31.8634 -55.189 8.50575
      vertex 31.8634 -55.189 8.50575
    endloop
  endfacet
  facet normal 0 0.992945 0.118578
    outer loop
      vertex -31.8634 -55.189 8.50575
      vertex 31.4838 -54.5315 3
      vertex -31.4838 -54.5315 3
    endloop
  endfacet
  facet normal 0 -0.992945 0.118578
    outer loop
      vertex -31.4838 54.5315 3
      vertex 31.8634 55.189 8.50575
      vertex -31.8634 55.189 8.50575
    endloop
  endfacet
  facet normal 0 -0.992945 0.118578
    outer loop
      vertex 31.8634 55.189 8.50575
      vertex -31.4838 54.5315 3
      vertex 31.4838 54.5315 3
    endloop
  endfacet
  facet normal 0.860498 -0.495482 0.118499
    outer loop
      vertex -31.4838 54.5315 3
      vertex -31.8634 55.189 8.50575
      vertex -37.3369 64.6693 87.8927
    endloop
  endfacet
  facet normal -0.85993 -0.496448 0.118575
    outer loop
      vertex 31.8609 53.8783 3
      vertex 37.3369 64.6693 87.8927
      vertex 31.4838 54.5315 3
    endloop
  endfacet
  facet normal -0.859915 -0.496473 0.118577
    outer loop
      vertex 37.3369 64.6693 87.8927
      vertex 31.8609 53.8783 3
      vertex 64.8997 0 17.0115
    endloop
  endfacet
  facet normal 0.860384 -0.495644 0.118639
    outer loop
      vertex -76.2376 0 99.2337
      vertex -78.1764 0.025344 113.4
      vertex -78.191 0 113.4
    endloop
  endfacet
  facet normal 0.859915 -0.496473 0.118576
    outer loop
      vertex -78.1764 0.025344 113.4
      vertex -76.2376 0 99.2337
      vertex -37.3369 64.6693 87.8927
    endloop
  endfacet
  facet normal -0.860498 -0.495482 0.118499
    outer loop
      vertex 31.4838 54.5315 3
      vertex 37.3369 64.6693 87.8927
      vertex 31.8634 55.189 8.50575
    endloop
  endfacet
  facet normal -0.859914 -0.496471 0.118593
    outer loop
      vertex 78.1227 0.118228 113.4
      vertex 39.0955 67.7154 113.4
      vertex 38.7052 67.0394 107.74
    endloop
  endfacet
  facet normal 0.740173 0.671782 -0.0291935
    outer loop
      vertex -38.7052 67.0394 107.74
      vertex -37.3369 64.6693 87.8927
      vertex -39.0955 67.7154 113.4
    endloop
  endfacet
  facet normal 0.859916 -0.496474 0.118571
    outer loop
      vertex -78.1227 0.118228 113.4
      vertex -37.3369 64.6693 87.8927
      vertex -38.7052 67.0394 107.74
    endloop
  endfacet
  facet normal 0.8598 -0.497085 0.116839
    outer loop
      vertex -37.3369 64.6693 87.8927
      vertex -78.1227 0.118228 113.4
      vertex -78.1764 0.025344 113.4
    endloop
  endfacet
  facet normal 0.859915 -0.496473 0.118577
    outer loop
      vertex -64.8997 0 17.0115
      vertex -37.3369 64.6693 87.8927
      vertex -76.2376 0 99.2337
    endloop
  endfacet
  facet normal 0.860384 0.495644 0.118639
    outer loop
      vertex -78.1764 -0.025344 113.4
      vertex -76.2376 0 99.2337
      vertex -78.191 0 113.4
    endloop
  endfacet
  facet normal 0.859915 0.496473 0.118576
    outer loop
      vertex -76.2376 0 99.2337
      vertex -78.1764 -0.025344 113.4
      vertex -37.3369 -64.6693 87.8927
    endloop
  endfacet
  facet normal 0.859915 0.496473 0.118577
    outer loop
      vertex -31.8609 -53.8783 3
      vertex -62.9676 0 3
      vertex -64.8997 0 17.0115
    endloop
  endfacet
  facet normal 0.859915 0.496473 0.118577
    outer loop
      vertex -37.3369 -64.6693 87.8927
      vertex -31.8609 -53.8783 3
      vertex -64.8997 0 17.0115
    endloop
  endfacet
  facet normal 0.85993 0.496448 0.118575
    outer loop
      vertex -31.8609 -53.8783 3
      vertex -37.3369 -64.6693 87.8927
      vertex -31.4838 -54.5315 3
    endloop
  endfacet
  facet normal -0 0 1
    outer loop
      vertex 3.32588 2.22228 3
      vertex 62.9676 0 3
      vertex 31.8609 53.8783 3
    endloop
  endfacet
  facet normal 0 0 1
    outer loop
      vertex 0 4 3
      vertex 31.8609 53.8783 3
      vertex 31.4838 54.5315 3
    endloop
  endfacet
  facet normal 0 0 1
    outer loop
      vertex 3.92314 -0.780361 3
      vertex 62.9676 0 3
      vertex 4 0 3
    endloop
  endfacet
  facet normal 0 0 1
    outer loop
      vertex 3.69552 -1.53073 3
      vertex 62.9676 0 3
      vertex 3.92314 -0.780361 3
    endloop
  endfacet
  facet normal 0 0 1
    outer loop
      vertex 62.9676 0 3
      vertex 3.92314 0.780361 3
      vertex 4 0 3
    endloop
  endfacet
  facet normal 0 0 1
    outer loop
      vertex 62.9676 0 3
      vertex 3.69552 1.53073 3
      vertex 3.92314 0.780361 3
    endloop
  endfacet
  facet normal 0 0 1
    outer loop
      vertex 62.9676 0 3
      vertex 3.32588 2.22228 3
      vertex 3.69552 1.53073 3
    endloop
  endfacet
  facet normal 0 0 1
    outer loop
      vertex 31.8609 53.8783 3
      vertex 2.82843 2.82843 3
      vertex 3.32588 2.22228 3
    endloop
  endfacet
  facet normal 0 0 1
    outer loop
      vertex 31.8609 53.8783 3
      vertex 2.22228 3.32588 3
      vertex 2.82843 2.82843 3
    endloop
  endfacet
  facet normal 0 0 1
    outer loop
      vertex 31.8609 53.8783 3
      vertex 1.53073 3.69552 3
      vertex 2.22228 3.32588 3
    endloop
  endfacet
  facet normal 0 0 1
    outer loop
      vertex 31.8609 53.8783 3
      vertex 0.780361 3.92314 3
      vertex 1.53073 3.69552 3
    endloop
  endfacet
  facet normal 0 0 1
    outer loop
      vertex 31.8609 53.8783 3
      vertex 0 4 3
      vertex 0.780361 3.92314 3
    endloop
  endfacet
  facet normal -0 0 1
    outer loop
      vertex -31.4838 54.5315 3
      vertex 0 4 3
      vertex 31.4838 54.5315 3
    endloop
  endfacet
  facet normal -0 0 1
    outer loop
      vertex -31.8609 53.8783 3
      vertex 0 4 3
      vertex -31.4838 54.5315 3
    endloop
  endfacet
  facet normal 0 0 1
    outer loop
      vertex 0 4 3
      vertex -31.8609 53.8783 3
      vertex -0.780361 3.92314 3
    endloop
  endfacet
  facet normal 0 0 1
    outer loop
      vertex -0.780361 3.92314 3
      vertex -31.8609 53.8783 3
      vertex -1.53073 3.69552 3
    endloop
  endfacet
  facet normal 0 0 1
    outer loop
      vertex -1.53073 3.69552 3
      vertex -31.8609 53.8783 3
      vertex -2.22228 3.32588 3
    endloop
  endfacet
  facet normal 0 0 1
    outer loop
      vertex -3.32588 2.22228 3
      vertex -62.9676 0 3
      vertex -3.69552 1.53073 3
    endloop
  endfacet
  facet normal 0 0 1
    outer loop
      vertex -62.9676 0 3
      vertex -3.32588 2.22228 3
      vertex -31.8609 53.8783 3
    endloop
  endfacet
  facet normal 0 0 1
    outer loop
      vertex -2.82843 2.82843 3
      vertex -31.8609 53.8783 3
      vertex -3.32588 2.22228 3
    endloop
  endfacet
  facet normal 0 0 1
    outer loop
      vertex -2.22228 3.32588 3
      vertex -31.8609 53.8783 3
      vertex -2.82843 2.82843 3
    endloop
  endfacet
  facet normal 0 0 1
    outer loop
      vertex 3.32588 -2.22228 3
      vertex 62.9676 0 3
      vertex 3.69552 -1.53073 3
    endloop
  endfacet
  facet normal 0 0 1
    outer loop
      vertex 62.9676 0 3
      vertex 3.32588 -2.22228 3
      vertex 31.8609 -53.8783 3
    endloop
  endfacet
  facet normal -0 0 1
    outer loop
      vertex 2.82843 -2.82843 3
      vertex 31.8609 -53.8783 3
      vertex 3.32588 -2.22228 3
    endloop
  endfacet
  facet normal -0 0 1
    outer loop
      vertex 2.22228 -3.32588 3
      vertex 31.8609 -53.8783 3
      vertex 2.82843 -2.82843 3
    endloop
  endfacet
  facet normal -0 0 1
    outer loop
      vertex 1.53073 -3.69552 3
      vertex 31.8609 -53.8783 3
      vertex 2.22228 -3.32588 3
    endloop
  endfacet
  facet normal -0 0 1
    outer loop
      vertex 0.780361 -3.92314 3
      vertex 31.8609 -53.8783 3
      vertex 1.53073 -3.69552 3
    endloop
  endfacet
  facet normal -0 0 1
    outer loop
      vertex 0 -4 3
      vertex 31.8609 -53.8783 3
      vertex 0.780361 -3.92314 3
    endloop
  endfacet
  facet normal 0 0 1
    outer loop
      vertex 31.8609 -53.8783 3
      vertex 0 -4 3
      vertex 31.4838 -54.5315 3
    endloop
  endfacet
  facet normal 0 0 1
    outer loop
      vertex -31.8609 -53.8783 3
      vertex 0 -4 3
      vertex -0.780361 -3.92314 3
    endloop
  endfacet
  facet normal 0 0 1
    outer loop
      vertex -31.8609 -53.8783 3
      vertex -0.780361 -3.92314 3
      vertex -1.53073 -3.69552 3
    endloop
  endfacet
  facet normal 0 0 1
    outer loop
      vertex -31.8609 -53.8783 3
      vertex -1.53073 -3.69552 3
      vertex -2.22228 -3.32588 3
    endloop
  endfacet
  facet normal 0 0 1
    outer loop
      vertex -31.8609 -53.8783 3
      vertex -2.22228 -3.32588 3
      vertex -2.82843 -2.82843 3
    endloop
  endfacet
  facet normal 0 0 1
    outer loop
      vertex -31.8609 -53.8783 3
      vertex -2.82843 -2.82843 3
      vertex -3.32588 -2.22228 3
    endloop
  endfacet
  facet normal 0 0 1
    outer loop
      vertex -3.69552 1.53073 3
      vertex -62.9676 0 3
      vertex -3.92314 0.780361 3
    endloop
  endfacet
  facet normal 0 0 1
    outer loop
      vertex -3.92314 0.780361 3
      vertex -62.9676 0 3
      vertex -4 0 3
    endloop
  endfacet
  facet normal 0 0 1
    outer loop
      vertex 0 -4 3
      vertex -31.4838 -54.5315 3
      vertex 31.4838 -54.5315 3
    endloop
  endfacet
  facet normal 0 0 1
    outer loop
      vertex -62.9676 0 3
      vertex -3.32588 -2.22228 3
      vertex -3.69552 -1.53073 3
    endloop
  endfacet
  facet normal 0 0 1
    outer loop
      vertex -4 0 3
      vertex -62.9676 0 3
      vertex -3.92314 -0.780361 3
    endloop
  endfacet
  facet normal 0 0 1
    outer loop
      vertex -3.92314 -0.780361 3
      vertex -62.9676 0 3
      vertex -3.69552 -1.53073 3
    endloop
  endfacet
  facet normal 0 0 1
    outer loop
      vertex 0 -4 3
      vertex -31.8609 -53.8783 3
      vertex -31.4838 -54.5315 3
    endloop
  endfacet
  facet normal 0 0 1
    outer loop
      vertex -3.32588 -2.22228 3
      vertex -62.9676 0 3
      vertex -31.8609 -53.8783 3
    endloop
  endfacet
  facet normal 0 0 -1
    outer loop
      vertex 62.6314 -4 1.19
      vertex 62.6314 4 1.19
      vertex 64.9408 0 1.19
    endloop
  endfacet
  facet normal 0 0 -1
    outer loop
      vertex 62.6314 -4 1.19
      vertex 4 0 1.19
      vertex 62.6314 4 1.19
    endloop
  endfacet
  facet normal 0 0 -1
    outer loop
      vertex 62.6314 -4 1.19
      vertex 3.92314 -0.780361 1.19
      vertex 4 0 1.19
    endloop
  endfacet
  facet normal 0 0 -1
    outer loop
      vertex 62.6314 -4 1.19
      vertex 3.69552 -1.53073 1.19
      vertex 3.92314 -0.780361 1.19
    endloop
  endfacet
  facet normal 0 0 -1
    outer loop
      vertex 62.6314 -4 1.19
      vertex 3.32588 -2.22228 1.19
      vertex 3.69552 -1.53073 1.19
    endloop
  endfacet
  facet normal 0 0 -1
    outer loop
      vertex 2.3094 -4 1.19
      vertex 3.32588 -2.22228 1.19
      vertex 62.6314 -4 1.19
    endloop
  endfacet
  facet normal 0 0 -1
    outer loop
      vertex 3.32588 -2.22228 1.19
      vertex 2.3094 -4 1.19
      vertex 2.82843 -2.82843 1.19
    endloop
  endfacet
  facet normal 0 0 -1
    outer loop
      vertex 2.3094 -4 1.19
      vertex 2.22228 -3.32588 1.19
      vertex 2.82843 -2.82843 1.19
    endloop
  endfacet
  facet normal 0 0 -1
    outer loop
      vertex 2.3094 -4 1.19
      vertex 1.53073 -3.69552 1.19
      vertex 2.22228 -3.32588 1.19
    endloop
  endfacet
  facet normal 0 0 -1
    outer loop
      vertex 2.3094 -4 1.19
      vertex 0.780361 -3.92314 1.19
      vertex 1.53073 -3.69552 1.19
    endloop
  endfacet
  facet normal 0 0 -1
    outer loop
      vertex 2.3094 -4 1.19
      vertex 0 -4 1.19
      vertex 0.780361 -3.92314 1.19
    endloop
  endfacet
  facet normal 0 0 -1
    outer loop
      vertex -3.92314 -0.780361 1.19
      vertex -4.6188 0 1.19
      vertex -4 0 1.19
    endloop
  endfacet
  facet normal 0 0 -1
    outer loop
      vertex -3.69552 -1.53073 1.19
      vertex -4.6188 0 1.19
      vertex -3.92314 -0.780361 1.19
    endloop
  endfacet
  facet normal 0 0 -1
    outer loop
      vertex -3.32588 -2.22228 1.19
      vertex -4.6188 0 1.19
      vertex -3.69552 -1.53073 1.19
    endloop
  endfacet
  facet normal 0 0 -1
    outer loop
      vertex -27.8516 -56.2404 1.19
      vertex 0 -4 1.19
      vertex 2.3094 -4 1.19
    endloop
  endfacet
  facet normal 0 0 -1
    outer loop
      vertex -27.8516 -56.2404 1.19
      vertex -0.780361 -3.92314 1.19
      vertex 0 -4 1.19
    endloop
  endfacet
  facet normal 0 0 -1
    outer loop
      vertex -27.8516 -56.2404 1.19
      vertex -1.53073 -3.69552 1.19
      vertex -0.780361 -3.92314 1.19
    endloop
  endfacet
  facet normal 0 0 -1
    outer loop
      vertex -27.8516 -56.2404 1.19
      vertex -2.22228 -3.32588 1.19
      vertex -1.53073 -3.69552 1.19
    endloop
  endfacet
  facet normal 0 0 -1
    outer loop
      vertex -34.7798 -52.2404 1.19
      vertex -2.22228 -3.32588 1.19
      vertex -27.8516 -56.2404 1.19
    endloop
  endfacet
  facet normal -0 0 -1
    outer loop
      vertex -2.22228 -3.32588 1.19
      vertex -34.7798 -52.2404 1.19
      vertex -2.82843 -2.82843 1.19
    endloop
  endfacet
  facet normal -0 0 -1
    outer loop
      vertex -2.82843 -2.82843 1.19
      vertex -34.7798 -52.2404 1.19
      vertex -3.32588 -2.22228 1.19
    endloop
  endfacet
  facet normal 0 0 -1
    outer loop
      vertex -34.7798 -52.2404 1.19
      vertex -27.8516 -56.2404 1.19
      vertex -32.4704 -56.2404 1.19
    endloop
  endfacet
  facet normal -0 0 -1
    outer loop
      vertex -3.32588 -2.22228 1.19
      vertex -34.7798 -52.2404 1.19
      vertex -4.6188 0 1.19
    endloop
  endfacet
  facet normal 0 0 -1
    outer loop
      vertex 3.92314 0.780361 1.19
      vertex 62.6314 4 1.19
      vertex 4 0 1.19
    endloop
  endfacet
  facet normal 0 0 -1
    outer loop
      vertex 3.69552 1.53073 1.19
      vertex 62.6314 4 1.19
      vertex 3.92314 0.780361 1.19
    endloop
  endfacet
  facet normal 0 0 -1
    outer loop
      vertex 3.32588 2.22228 1.19
      vertex 62.6314 4 1.19
      vertex 3.69552 1.53073 1.19
    endloop
  endfacet
  facet normal 0 0 -1
    outer loop
      vertex 2.3094 4 1.19
      vertex 3.32588 2.22228 1.19
      vertex 2.82843 2.82843 1.19
    endloop
  endfacet
  facet normal 0 0 -1
    outer loop
      vertex 3.32588 2.22228 1.19
      vertex 2.3094 4 1.19
      vertex 62.6314 4 1.19
    endloop
  endfacet
  facet normal 0 0 -1
    outer loop
      vertex 2.22228 3.32588 1.19
      vertex 2.3094 4 1.19
      vertex 2.82843 2.82843 1.19
    endloop
  endfacet
  facet normal 0 0 -1
    outer loop
      vertex 1.53073 3.69552 1.19
      vertex 2.3094 4 1.19
      vertex 2.22228 3.32588 1.19
    endloop
  endfacet
  facet normal 0 0 -1
    outer loop
      vertex 0.780361 3.92314 1.19
      vertex 2.3094 4 1.19
      vertex 1.53073 3.69552 1.19
    endloop
  endfacet
  facet normal 0 0 -1
    outer loop
      vertex 0 4 1.19
      vertex 2.3094 4 1.19
      vertex 0.780361 3.92314 1.19
    endloop
  endfacet
  facet normal 0 0 -1
    outer loop
      vertex -4.6188 0 1.19
      vertex -3.92314 0.780361 1.19
      vertex -4 0 1.19
    endloop
  endfacet
  facet normal 0 0 -1
    outer loop
      vertex -4.6188 0 1.19
      vertex -3.69552 1.53073 1.19
      vertex -3.92314 0.780361 1.19
    endloop
  endfacet
  facet normal 0 0 -1
    outer loop
      vertex -4.6188 0 1.19
      vertex -3.32588 2.22228 1.19
      vertex -3.69552 1.53073 1.19
    endloop
  endfacet
  facet normal 0 0 -1
    outer loop
      vertex 0 4 1.19
      vertex -27.8516 56.2404 1.19
      vertex 2.3094 4 1.19
    endloop
  endfacet
  facet normal 0 0 -1
    outer loop
      vertex -0.780361 3.92314 1.19
      vertex -27.8516 56.2404 1.19
      vertex 0 4 1.19
    endloop
  endfacet
  facet normal 0 0 -1
    outer loop
      vertex -1.53073 3.69552 1.19
      vertex -27.8516 56.2404 1.19
      vertex -0.780361 3.92314 1.19
    endloop
  endfacet
  facet normal 0 0 -1
    outer loop
      vertex -2.22228 3.32588 1.19
      vertex -27.8516 56.2404 1.19
      vertex -1.53073 3.69552 1.19
    endloop
  endfacet
  facet normal 0 0 -1
    outer loop
      vertex -34.7798 52.2404 1.19
      vertex -2.22228 3.32588 1.19
      vertex -2.82843 2.82843 1.19
    endloop
  endfacet
  facet normal 0 0 -1
    outer loop
      vertex -34.7798 52.2404 1.19
      vertex -2.82843 2.82843 1.19
      vertex -3.32588 2.22228 1.19
    endloop
  endfacet
  facet normal 0 0 -1
    outer loop
      vertex -34.7798 52.2404 1.19
      vertex -3.32588 2.22228 1.19
      vertex -4.6188 0 1.19
    endloop
  endfacet
  facet normal 0 0 -1
    outer loop
      vertex -2.22228 3.32588 1.19
      vertex -34.7798 52.2404 1.19
      vertex -27.8516 56.2404 1.19
    endloop
  endfacet
  facet normal -0 0 -1
    outer loop
      vertex -27.8516 56.2404 1.19
      vertex -34.7798 52.2404 1.19
      vertex -32.4704 56.2404 1.19
    endloop
  endfacet
  facet normal 0 -1 0
    outer loop
      vertex 2.3094 4 1.19
      vertex 62.6285 4 1.16914
      vertex 62.6314 4 1.19
    endloop
  endfacet
  facet normal 0 -1 0
    outer loop
      vertex 62.4615 4 0
      vertex 2.3094 4 1.19
      vertex 2.3094 4 0
    endloop
  endfacet
  facet normal 0 -1 0
    outer loop
      vertex 2.3094 4 1.19
      vertex 62.4615 4 0
      vertex 62.6285 4 1.16914
    endloop
  endfacet
  facet normal 0 1 -0
    outer loop
      vertex 62.6285 -4 1.16914
      vertex 2.3094 -4 1.19
      vertex 62.6314 -4 1.19
    endloop
  endfacet
  facet normal 0 1 -0
    outer loop
      vertex 62.4615 -4 0
      vertex 2.3094 -4 1.19
      vertex 62.6285 -4 1.16914
    endloop
  endfacet
  facet normal 0 1 0
    outer loop
      vertex 2.3094 -4 1.19
      vertex 62.4615 -4 0
      vertex 2.3094 -4 0
    endloop
  endfacet
  facet normal -0.866025 -0.5 -0
    outer loop
      vertex 2.3094 4 1.19
      vertex -27.7667 56.0933 0
      vertex 2.3094 4 0
    endloop
  endfacet
  facet normal -0.866025 -0.5 2.05221e-05
    outer loop
      vertex -27.7667 56.0933 0
      vertex 2.3094 4 1.19
      vertex -27.8516 56.2404 1.19
    endloop
  endfacet
  facet normal 0.866025 0.5 -2.05221e-05
    outer loop
      vertex -4.6188 0 1.19
      vertex -34.6949 52.0933 0
      vertex -34.7798 52.2404 1.19
    endloop
  endfacet
  facet normal 0.866025 0.5 0
    outer loop
      vertex -34.6949 52.0933 0
      vertex -4.6188 0 1.19
      vertex -4.6188 0 0
    endloop
  endfacet
  facet normal 0.866025 -0.5 0
    outer loop
      vertex -4.6188 0 1.19
      vertex -34.6949 -52.0933 0
      vertex -4.6188 0 0
    endloop
  endfacet
  facet normal 0.866025 -0.5 -2.05221e-05
    outer loop
      vertex -34.6949 -52.0933 0
      vertex -4.6188 0 1.19
      vertex -34.7798 -52.2404 1.19
    endloop
  endfacet
  facet normal -0.866025 0.5 0
    outer loop
      vertex -27.7667 -56.0933 0
      vertex 2.3094 -4 1.19
      vertex 2.3094 -4 0
    endloop
  endfacet
  facet normal -0.866025 0.5 2.05221e-05
    outer loop
      vertex 2.3094 -4 1.19
      vertex -27.7667 -56.0933 0
      vertex -27.8516 -56.2404 1.19
    endloop
  endfacet
  facet normal -0.997461 -2.81246e-11 0.071212
    outer loop
      vertex 32.5879 -56.4438 2.835
      vertex 32.3855 -56.0933 0
      vertex 33.5999 -58.1968 17.01
    endloop
  endfacet
  facet normal 0 0 1
    outer loop
      vertex 80.9637 0 113.4
      vertex 78.1764 0.025344 113.4
      vertex 78.191 0 113.4
    endloop
  endfacet
  facet normal 0 0 1
    outer loop
      vertex 80.9637 0 113.4
      vertex 78.1227 0.118228 113.4
      vertex 78.1764 0.025344 113.4
    endloop
  endfacet
  facet normal 0 0 1
    outer loop
      vertex 40.4818 70.1166 113.4
      vertex 78.1227 0.118228 113.4
      vertex 80.9637 0 113.4
    endloop
  endfacet
  facet normal 0 0 1
    outer loop
      vertex 40.4818 70.1166 113.4
      vertex 39.0955 67.7154 113.4
      vertex 78.1227 0.118228 113.4
    endloop
  endfacet
  facet normal 0 0 1
    outer loop
      vertex 40.4818 70.1166 113.4
      vertex -39.0955 67.7154 113.4
      vertex 39.0955 67.7154 113.4
    endloop
  endfacet
  facet normal -0 0 1
    outer loop
      vertex -40.4818 70.1166 113.4
      vertex -39.0955 67.7154 113.4
      vertex 40.4818 70.1166 113.4
    endloop
  endfacet
  facet normal 0 0 1
    outer loop
      vertex -40.4818 70.1166 113.4
      vertex -78.1227 0.118228 113.4
      vertex -39.0955 67.7154 113.4
    endloop
  endfacet
  facet normal 0 0 1
    outer loop
      vertex -80.9637 0 113.4
      vertex -78.1227 0.118228 113.4
      vertex -40.4818 70.1166 113.4
    endloop
  endfacet
  facet normal 0 0 1
    outer loop
      vertex -78.1227 0.118228 113.4
      vertex -80.9637 0 113.4
      vertex -78.1764 0.025344 113.4
    endloop
  endfacet
  facet normal 0 0 1
    outer loop
      vertex -78.1764 0.025344 113.4
      vertex -80.9637 0 113.4
      vertex -78.191 0 113.4
    endloop
  endfacet
  facet normal 0 0 1
    outer loop
      vertex 78.1764 -0.025344 113.4
      vertex 80.9637 0 113.4
      vertex 78.191 0 113.4
    endloop
  endfacet
  facet normal 0 0 1
    outer loop
      vertex 78.1227 -0.118228 113.4
      vertex 80.9637 0 113.4
      vertex 78.1764 -0.025344 113.4
    endloop
  endfacet
  facet normal -0 0 1
    outer loop
      vertex 78.1227 -0.118228 113.4
      vertex 40.4818 -70.1166 113.4
      vertex 80.9637 0 113.4
    endloop
  endfacet
  facet normal -0 0 1
    outer loop
      vertex 39.0955 -67.7154 113.4
      vertex 40.4818 -70.1166 113.4
      vertex 78.1227 -0.118228 113.4
    endloop
  endfacet
  facet normal -0 0 1
    outer loop
      vertex -39.0955 -67.7154 113.4
      vertex 40.4818 -70.1166 113.4
      vertex 39.0955 -67.7154 113.4
    endloop
  endfacet
  facet normal 0 0 1
    outer loop
      vertex -39.0955 -67.7154 113.4
      vertex -40.4818 -70.1166 113.4
      vertex 40.4818 -70.1166 113.4
    endloop
  endfacet
  facet normal 0 0 1
    outer loop
      vertex -78.1227 -0.118228 113.4
      vertex -40.4818 -70.1166 113.4
      vertex -39.0955 -67.7154 113.4
    endloop
  endfacet
  facet normal 0 0 1
    outer loop
      vertex -80.9637 0 113.4
      vertex -78.1227 -0.118228 113.4
      vertex -78.1764 -0.025344 113.4
    endloop
  endfacet
  facet normal -0 0 1
    outer loop
      vertex -80.9637 0 113.4
      vertex -78.1764 -0.025344 113.4
      vertex -78.191 0 113.4
    endloop
  endfacet
  facet normal 0 0 1
    outer loop
      vertex -78.1227 -0.118228 113.4
      vertex -80.9637 0 113.4
      vertex -40.4818 -70.1166 113.4
    endloop
  endfacet
  facet normal 0.888144 0.444072 0.118325
    outer loop
      vertex -32.5879 -56.4438 2.835
      vertex -39.8746 -69.0648 104.895
      vertex -33.5999 -58.1968 17.01
    endloop
  endfacet
  facet normal 0 0.99244 -0.122728
    outer loop
      vertex 32.5879 56.4438 2.835
      vertex -39.8746 69.0648 104.895
      vertex 39.8746 69.0648 104.895
    endloop
  endfacet
  facet normal 0 0.99244 -0.122728
    outer loop
      vertex -39.8746 69.0648 104.895
      vertex 32.5879 56.4438 2.835
      vertex -32.5879 56.4438 2.835
    endloop
  endfacet
  facet normal 0.859479 -0.49622 -0.122728
    outer loop
      vertex 76.9155 0 85.05
      vertex 33.5999 -58.1968 17.01
      vertex 68.8191 0 28.35
    endloop
  endfacet
  facet normal -0.888144 -0.444072 -0.118325
    outer loop
      vertex -33.5999 -58.1968 17.01
      vertex -39.8746 -69.0648 104.895
      vertex -37.6481 -65.2084 73.71
    endloop
  endfacet
  facet normal -0.859479 0.49622 -0.122728
    outer loop
      vertex -64.7709 0 0
      vertex -68.8191 0 28.35
      vertex -33.5999 58.1968 17.01
    endloop
  endfacet
  facet normal 0.859475 -0.496217 -0.122767
    outer loop
      vertex 62.6285 -4 1.16914
      vertex 32.3855 -56.0933 0
      vertex 62.4615 -4 0
    endloop
  endfacet
  facet normal 0.859479 -0.49622 -0.122725
    outer loop
      vertex 32.3855 -56.0933 0
      vertex 62.6285 -4 1.16914
      vertex 33.5999 -58.1968 17.01
    endloop
  endfacet
  facet normal 0.506667 0.850476 0.14135
    outer loop
      vertex -32.5879 -56.4438 2.835
      vertex -33.5999 -58.1968 17.01
      vertex -32.4704 -56.2404 1.19
    endloop
  endfacet
  facet normal 0 -0.99244 -0.122733
    outer loop
      vertex -39.8746 -69.0648 104.895
      vertex 40.4818 -70.1166 113.4
      vertex -40.4818 -70.1166 113.4
    endloop
  endfacet
  facet normal 0 -0.99244 -0.122733
    outer loop
      vertex 40.4818 -70.1166 113.4
      vertex -39.8746 -69.0648 104.895
      vertex 39.8746 -69.0648 104.895
    endloop
  endfacet
  facet normal -0.859478 0.496221 -0.122727
    outer loop
      vertex -37.6481 65.2084 73.71
      vertex -80.9637 0 113.4
      vertex -40.4818 70.1166 113.4
    endloop
  endfacet
  facet normal 0.859479 -0.49622 -0.122729
    outer loop
      vertex 68.8191 0 28.35
      vertex 62.6314 -4 1.19
      vertex 64.9408 0 1.19
    endloop
  endfacet
  facet normal 0.86022 -0.495701 -0.11959
    outer loop
      vertex 62.6314 -4 1.19
      vertex 33.5999 -58.1968 17.01
      vertex 62.6285 -4 1.16914
    endloop
  endfacet
  facet normal 0.859479 -0.49622 -0.122729
    outer loop
      vertex 33.5999 -58.1968 17.01
      vertex 62.6314 -4 1.19
      vertex 68.8191 0 28.35
    endloop
  endfacet
  facet normal 0.859479 0.49622 -0.122728
    outer loop
      vertex 68.8191 0 28.35
      vertex 33.5999 58.1968 17.01
      vertex 76.9155 0 85.05
    endloop
  endfacet
  facet normal 0.859478 -0.496221 -0.122727
    outer loop
      vertex 37.6481 -65.2084 73.71
      vertex 33.5999 -58.1968 17.01
      vertex 76.9155 0 85.05
    endloop
  endfacet
  facet normal 0.859478 -0.496221 -0.122727
    outer loop
      vertex 40.4818 -70.1166 113.4
      vertex 37.6481 -65.2084 73.71
      vertex 80.9637 0 113.4
    endloop
  endfacet
  facet normal -0.859478 0.496221 -0.122727
    outer loop
      vertex -33.5999 58.1968 17.01
      vertex -76.9155 0 85.05
      vertex -37.6481 65.2084 73.71
    endloop
  endfacet
  facet normal -0.859479 0.49622 -0.122728
    outer loop
      vertex -68.8191 0 28.35
      vertex -76.9155 0 85.05
      vertex -33.5999 58.1968 17.01
    endloop
  endfacet
  facet normal 0.859478 -0.49622 -0.122728
    outer loop
      vertex 80.9637 0 113.4
      vertex 37.6481 -65.2084 73.71
      vertex 76.9155 0 85.05
    endloop
  endfacet
  facet normal -0.888144 -0.444072 0.118325
    outer loop
      vertex 40.4818 70.1166 113.4
      vertex 37.6481 65.2084 73.71
      vertex 39.8746 69.0648 104.895
    endloop
  endfacet
  facet normal -0.859478 0.49622 -0.122728
    outer loop
      vertex -76.9155 0 85.05
      vertex -80.9637 0 113.4
      vertex -37.6481 65.2084 73.71
    endloop
  endfacet
  facet normal -0.859478 -0.496221 -0.122727
    outer loop
      vertex -40.4818 -70.1166 113.4
      vertex -80.9637 0 113.4
      vertex -37.6481 -65.2084 73.71
    endloop
  endfacet
  facet normal -0.888144 0.444072 0.118325
    outer loop
      vertex 39.8746 -69.0648 104.895
      vertex 32.5879 -56.4438 2.835
      vertex 33.5999 -58.1968 17.01
    endloop
  endfacet
  facet normal 0.888144 -0.444072 0.118325
    outer loop
      vertex -33.5999 58.1968 17.01
      vertex -39.8746 69.0648 104.895
      vertex -32.5879 56.4438 2.835
    endloop
  endfacet
  facet normal 0 0.992442 -0.122713
    outer loop
      vertex 32.5879 56.4438 2.835
      vertex -27.8516 56.2404 1.19
      vertex -32.5879 56.4438 2.835
    endloop
  endfacet
  facet normal -3.85921e-07 0.992444 -0.122699
    outer loop
      vertex 32.3855 56.0933 0
      vertex -27.8516 56.2404 1.19
      vertex 32.5879 56.4438 2.835
    endloop
  endfacet
  facet normal 0 0.992446 -0.12268
    outer loop
      vertex -27.8516 56.2404 1.19
      vertex 32.3855 56.0933 0
      vertex -27.7667 56.0933 0
    endloop
  endfacet
  facet normal 0 0.992442 -0.122713
    outer loop
      vertex -32.5879 56.4438 2.835
      vertex -27.8516 56.2404 1.19
      vertex -32.4704 56.2404 1.19
    endloop
  endfacet
  facet normal 0.859478 0.496221 -0.122727
    outer loop
      vertex 80.9637 0 113.4
      vertex 37.6481 65.2084 73.71
      vertex 40.4818 70.1166 113.4
    endloop
  endfacet
  facet normal 0.859478 0.49622 -0.122728
    outer loop
      vertex 76.9155 0 85.05
      vertex 37.6481 65.2084 73.71
      vertex 80.9637 0 113.4
    endloop
  endfacet
  facet normal 0.888144 0.444072 0.118325
    outer loop
      vertex -39.8746 -69.0648 104.895
      vertex -40.4818 -70.1166 113.4
      vertex -37.6481 -65.2084 73.71
    endloop
  endfacet
  facet normal -0 -0.992442 -0.122713
    outer loop
      vertex -27.8516 -56.2404 1.19
      vertex -32.5879 -56.4438 2.835
      vertex -32.4704 -56.2404 1.19
    endloop
  endfacet
  facet normal 0 -0.992442 -0.122713
    outer loop
      vertex -32.5879 -56.4438 2.835
      vertex -27.8516 -56.2404 1.19
      vertex 32.5879 -56.4438 2.835
    endloop
  endfacet
  facet normal -0 -0.992446 -0.12268
    outer loop
      vertex 32.3855 -56.0933 0
      vertex -27.8516 -56.2404 1.19
      vertex -27.7667 -56.0933 0
    endloop
  endfacet
  facet normal -3.85921e-07 -0.992444 -0.122699
    outer loop
      vertex -27.8516 -56.2404 1.19
      vertex 32.3855 -56.0933 0
      vertex 32.5879 -56.4438 2.835
    endloop
  endfacet
  facet normal -0.997461 2.74996e-11 0.071212
    outer loop
      vertex 33.5999 58.1968 17.01
      vertex 32.3855 56.0933 0
      vertex 32.5879 56.4438 2.835
    endloop
  endfacet
  facet normal -0.888144 -0.444072 0.118325
    outer loop
      vertex 33.5999 58.1968 17.01
      vertex 32.5879 56.4438 2.835
      vertex 39.8746 69.0648 104.895
    endloop
  endfacet
  facet normal 0 0.99244 -0.122733
    outer loop
      vertex 39.8746 69.0648 104.895
      vertex -40.4818 70.1166 113.4
      vertex 40.4818 70.1166 113.4
    endloop
  endfacet
  facet normal 0 0.99244 -0.122733
    outer loop
      vertex -40.4818 70.1166 113.4
      vertex 39.8746 69.0648 104.895
      vertex -39.8746 69.0648 104.895
    endloop
  endfacet
  facet normal 0.888144 -0.444072 -0.118325
    outer loop
      vertex 39.8746 -69.0648 104.895
      vertex 33.5999 -58.1968 17.01
      vertex 37.6481 -65.2084 73.71
    endloop
  endfacet
  facet normal -0.888144 0.444072 0.118325
    outer loop
      vertex 39.8746 -69.0648 104.895
      vertex 37.6481 -65.2084 73.71
      vertex 40.4818 -70.1166 113.4
    endloop
  endfacet
  facet normal -0.859478 -0.496221 -0.122727
    outer loop
      vertex -37.6481 -65.2084 73.71
      vertex -76.9155 0 85.05
      vertex -33.5999 -58.1968 17.01
    endloop
  endfacet
  facet normal 0 -0.99244 -0.122728
    outer loop
      vertex -32.5879 -56.4438 2.835
      vertex 39.8746 -69.0648 104.895
      vertex -39.8746 -69.0648 104.895
    endloop
  endfacet
  facet normal 0 -0.99244 -0.122728
    outer loop
      vertex 39.8746 -69.0648 104.895
      vertex -32.5879 -56.4438 2.835
      vertex 32.5879 -56.4438 2.835
    endloop
  endfacet
  facet normal -0.859478 -0.49622 -0.122728
    outer loop
      vertex -37.6481 -65.2084 73.71
      vertex -80.9637 0 113.4
      vertex -76.9155 0 85.05
    endloop
  endfacet
  facet normal -0.859486 -0.496223 -0.12266
    outer loop
      vertex -34.7798 -52.2404 1.19
      vertex -64.7709 0 0
      vertex -34.6949 -52.0933 0
    endloop
  endfacet
  facet normal -0.859478 -0.49622 -0.12273
    outer loop
      vertex -34.7798 -52.2404 1.19
      vertex -33.5999 -58.1968 17.01
      vertex -64.7709 0 0
    endloop
  endfacet
  facet normal -0.859478 -0.49622 -0.12273
    outer loop
      vertex -33.5999 -58.1968 17.01
      vertex -34.7798 -52.2404 1.19
      vertex -32.4704 -56.2404 1.19
    endloop
  endfacet
  facet normal 0 0 -1
    outer loop
      vertex 32.3855 -56.0933 0
      vertex 2.3094 -4 0
      vertex 62.4615 -4 0
    endloop
  endfacet
  facet normal 0 -0 -1
    outer loop
      vertex 2.3094 -4 0
      vertex 32.3855 -56.0933 0
      vertex -27.7667 -56.0933 0
    endloop
  endfacet
  facet normal 0 0 -1
    outer loop
      vertex 2.3094 4 0
      vertex 32.3855 56.0933 0
      vertex 62.4615 4 0
    endloop
  endfacet
  facet normal -0 0 -1
    outer loop
      vertex 32.3855 56.0933 0
      vertex 2.3094 4 0
      vertex -27.7667 56.0933 0
    endloop
  endfacet
  facet normal 0 0 -1
    outer loop
      vertex -64.7709 0 0
      vertex -4.6188 0 0
      vertex -34.6949 -52.0933 0
    endloop
  endfacet
  facet normal 0 0 -1
    outer loop
      vertex -4.6188 0 0
      vertex -64.7709 0 0
      vertex -34.6949 52.0933 0
    endloop
  endfacet
  facet normal 0.506667 -0.850476 0.14135
    outer loop
      vertex -32.4704 56.2404 1.19
      vertex -33.5999 58.1968 17.01
      vertex -32.5879 56.4438 2.835
    endloop
  endfacet
  facet normal -0.859478 0.49622 -0.12273
    outer loop
      vertex -34.7798 52.2404 1.19
      vertex -33.5999 58.1968 17.01
      vertex -32.4704 56.2404 1.19
    endloop
  endfacet
  facet normal -0.859478 0.49622 -0.12273
    outer loop
      vertex -34.7798 52.2404 1.19
      vertex -64.7709 0 0
      vertex -33.5999 58.1968 17.01
    endloop
  endfacet
  facet normal -0.859486 0.496223 -0.12266
    outer loop
      vertex -64.7709 0 0
      vertex -34.7798 52.2404 1.19
      vertex -34.6949 52.0933 0
    endloop
  endfacet
  facet normal 0.859478 0.496221 -0.122727
    outer loop
      vertex 76.9155 0 85.05
      vertex 33.5999 58.1968 17.01
      vertex 37.6481 65.2084 73.71
    endloop
  endfacet
  facet normal 0.888144 0.444072 -0.118325
    outer loop
      vertex 37.6481 65.2084 73.71
      vertex 33.5999 58.1968 17.01
      vertex 39.8746 69.0648 104.895
    endloop
  endfacet
  facet normal -0.888144 0.444072 -0.118325
    outer loop
      vertex -37.6481 65.2084 73.71
      vertex -39.8746 69.0648 104.895
      vertex -33.5999 58.1968 17.01
    endloop
  endfacet
  facet normal 0.888144 -0.444072 0.118325
    outer loop
      vertex -37.6481 65.2084 73.71
      vertex -40.4818 70.1166 113.4
      vertex -39.8746 69.0648 104.895
    endloop
  endfacet
  facet normal -0.859479 -0.49622 -0.122728
    outer loop
      vertex -33.5999 -58.1968 17.01
      vertex -76.9155 0 85.05
      vertex -68.8191 0 28.35
    endloop
  endfacet
  facet normal -0.859479 -0.49622 -0.122728
    outer loop
      vertex -33.5999 -58.1968 17.01
      vertex -68.8191 0 28.35
      vertex -64.7709 0 0
    endloop
  endfacet
  facet normal 0.859479 0.49622 -0.122729
    outer loop
      vertex 68.8191 0 28.35
      vertex 62.6314 4 1.19
      vertex 33.5999 58.1968 17.01
    endloop
  endfacet
  facet normal 0.859479 0.49622 -0.122729
    outer loop
      vertex 62.6314 4 1.19
      vertex 68.8191 0 28.35
      vertex 64.9408 0 1.19
    endloop
  endfacet
  facet normal 0.86022 0.495701 -0.11959
    outer loop
      vertex 33.5999 58.1968 17.01
      vertex 62.6314 4 1.19
      vertex 62.6285 4 1.16914
    endloop
  endfacet
  facet normal 0.859479 0.49622 -0.122725
    outer loop
      vertex 62.6285 4 1.16914
      vertex 32.3855 56.0933 0
      vertex 33.5999 58.1968 17.01
    endloop
  endfacet
  facet normal 0.859475 0.496217 -0.122767
    outer loop
      vertex 32.3855 56.0933 0
      vertex 62.6285 4 1.16914
      vertex 62.4615 4 0
    endloop
  endfacet
  facet normal 0.471396 -0.881922 0
    outer loop
      vertex -2.22228 3.32588 1.19
      vertex -1.53073 3.69552 3
      vertex -2.22228 3.32588 3
    endloop
  endfacet
  facet normal 0.471396 -0.881922 0
    outer loop
      vertex -1.53073 3.69552 3
      vertex -2.22228 3.32588 1.19
      vertex -1.53073 3.69552 1.19
    endloop
  endfacet
  facet normal -0.471396 -0.881922 0
    outer loop
      vertex 1.53073 3.69552 1.19
      vertex 2.22228 3.32588 3
      vertex 1.53073 3.69552 3
    endloop
  endfacet
  facet normal -0.471396 -0.881922 -0
    outer loop
      vertex 2.22228 3.32588 3
      vertex 1.53073 3.69552 1.19
      vertex 2.22228 3.32588 1.19
    endloop
  endfacet
  facet normal -0.956941 -0.290282 0
    outer loop
      vertex 3.92314 0.780361 1.19
      vertex 3.69552 1.53073 3
      vertex 3.69552 1.53073 1.19
    endloop
  endfacet
  facet normal -0.956941 -0.290282 0
    outer loop
      vertex 3.69552 1.53073 3
      vertex 3.92314 0.780361 1.19
      vertex 3.92314 0.780361 3
    endloop
  endfacet
  facet normal -0.995185 -0.0980186 0
    outer loop
      vertex 4 0 1.19
      vertex 3.92314 0.780361 3
      vertex 3.92314 0.780361 1.19
    endloop
  endfacet
  facet normal -0.995185 -0.0980186 0
    outer loop
      vertex 3.92314 0.780361 3
      vertex 4 0 1.19
      vertex 4 0 3
    endloop
  endfacet
  facet normal -0.881922 -0.471396 0
    outer loop
      vertex 3.69552 1.53073 1.19
      vertex 3.32588 2.22228 3
      vertex 3.32588 2.22228 1.19
    endloop
  endfacet
  facet normal -0.881922 -0.471396 0
    outer loop
      vertex 3.32588 2.22228 3
      vertex 3.69552 1.53073 1.19
      vertex 3.69552 1.53073 3
    endloop
  endfacet
  facet normal -0.0980186 -0.995185 0
    outer loop
      vertex 0 4 1.19
      vertex 0.780361 3.92314 3
      vertex 0 4 3
    endloop
  endfacet
  facet normal -0.0980186 -0.995185 -0
    outer loop
      vertex 0.780361 3.92314 3
      vertex 0 4 1.19
      vertex 0.780361 3.92314 1.19
    endloop
  endfacet
  facet normal -0.0980186 0.995185 0
    outer loop
      vertex 0.780361 -3.92314 1.19
      vertex 0 -4 3
      vertex 0.780361 -3.92314 3
    endloop
  endfacet
  facet normal -0.0980186 0.995185 0
    outer loop
      vertex 0 -4 3
      vertex 0.780361 -3.92314 1.19
      vertex 0 -4 1.19
    endloop
  endfacet
  facet normal -0.290282 -0.956941 0
    outer loop
      vertex 0.780361 3.92314 1.19
      vertex 1.53073 3.69552 3
      vertex 0.780361 3.92314 3
    endloop
  endfacet
  facet normal -0.290282 -0.956941 -0
    outer loop
      vertex 1.53073 3.69552 3
      vertex 0.780361 3.92314 1.19
      vertex 1.53073 3.69552 1.19
    endloop
  endfacet
  facet normal -0.63439 -0.773013 0
    outer loop
      vertex 2.22228 3.32588 1.19
      vertex 2.82843 2.82843 3
      vertex 2.22228 3.32588 3
    endloop
  endfacet
  facet normal -0.63439 -0.773013 -0
    outer loop
      vertex 2.82843 2.82843 3
      vertex 2.22228 3.32588 1.19
      vertex 2.82843 2.82843 1.19
    endloop
  endfacet
  facet normal -0.773013 0.63439 0
    outer loop
      vertex 2.82843 -2.82843 1.19
      vertex 3.32588 -2.22228 3
      vertex 3.32588 -2.22228 1.19
    endloop
  endfacet
  facet normal -0.773013 0.63439 0
    outer loop
      vertex 3.32588 -2.22228 3
      vertex 2.82843 -2.82843 1.19
      vertex 2.82843 -2.82843 3
    endloop
  endfacet
  facet normal 0.63439 -0.773013 0
    outer loop
      vertex -2.82843 2.82843 1.19
      vertex -2.22228 3.32588 3
      vertex -2.82843 2.82843 3
    endloop
  endfacet
  facet normal 0.63439 -0.773013 0
    outer loop
      vertex -2.22228 3.32588 3
      vertex -2.82843 2.82843 1.19
      vertex -2.22228 3.32588 1.19
    endloop
  endfacet
  facet normal -0.471396 0.881922 0
    outer loop
      vertex 2.22228 -3.32588 1.19
      vertex 1.53073 -3.69552 3
      vertex 2.22228 -3.32588 3
    endloop
  endfacet
  facet normal -0.471396 0.881922 0
    outer loop
      vertex 1.53073 -3.69552 3
      vertex 2.22228 -3.32588 1.19
      vertex 1.53073 -3.69552 1.19
    endloop
  endfacet
  facet normal 0.881922 0.471396 0
    outer loop
      vertex -3.32588 -2.22228 3
      vertex -3.69552 -1.53073 1.19
      vertex -3.69552 -1.53073 3
    endloop
  endfacet
  facet normal 0.881922 0.471396 0
    outer loop
      vertex -3.69552 -1.53073 1.19
      vertex -3.32588 -2.22228 3
      vertex -3.32588 -2.22228 1.19
    endloop
  endfacet
  facet normal -0.995185 0.0980186 0
    outer loop
      vertex 3.92314 -0.780361 1.19
      vertex 4 0 3
      vertex 4 0 1.19
    endloop
  endfacet
  facet normal -0.995185 0.0980186 0
    outer loop
      vertex 4 0 3
      vertex 3.92314 -0.780361 1.19
      vertex 3.92314 -0.780361 3
    endloop
  endfacet
  facet normal 0.290282 -0.956941 0
    outer loop
      vertex -1.53073 3.69552 1.19
      vertex -0.780361 3.92314 3
      vertex -1.53073 3.69552 3
    endloop
  endfacet
  facet normal 0.290282 -0.956941 0
    outer loop
      vertex -0.780361 3.92314 3
      vertex -1.53073 3.69552 1.19
      vertex -0.780361 3.92314 1.19
    endloop
  endfacet
  facet normal 0.0980186 0.995185 -0
    outer loop
      vertex 0 -4 1.19
      vertex -0.780361 -3.92314 3
      vertex 0 -4 3
    endloop
  endfacet
  facet normal 0.0980186 0.995185 0
    outer loop
      vertex -0.780361 -3.92314 3
      vertex 0 -4 1.19
      vertex -0.780361 -3.92314 1.19
    endloop
  endfacet
  facet normal 0.881922 -0.471396 0
    outer loop
      vertex -3.69552 1.53073 3
      vertex -3.32588 2.22228 1.19
      vertex -3.32588 2.22228 3
    endloop
  endfacet
  facet normal 0.881922 -0.471396 0
    outer loop
      vertex -3.32588 2.22228 1.19
      vertex -3.69552 1.53073 3
      vertex -3.69552 1.53073 1.19
    endloop
  endfacet
  facet normal -0.290282 0.956941 0
    outer loop
      vertex 1.53073 -3.69552 1.19
      vertex 0.780361 -3.92314 3
      vertex 1.53073 -3.69552 3
    endloop
  endfacet
  facet normal -0.290282 0.956941 0
    outer loop
      vertex 0.780361 -3.92314 3
      vertex 1.53073 -3.69552 1.19
      vertex 0.780361 -3.92314 1.19
    endloop
  endfacet
  facet normal 0.290282 0.956941 -0
    outer loop
      vertex -0.780361 -3.92314 1.19
      vertex -1.53073 -3.69552 3
      vertex -0.780361 -3.92314 3
    endloop
  endfacet
  facet normal 0.290282 0.956941 0
    outer loop
      vertex -1.53073 -3.69552 3
      vertex -0.780361 -3.92314 1.19
      vertex -1.53073 -3.69552 1.19
    endloop
  endfacet
  facet normal -0.956941 0.290282 0
    outer loop
      vertex 3.69552 -1.53073 1.19
      vertex 3.92314 -0.780361 3
      vertex 3.92314 -0.780361 1.19
    endloop
  endfacet
  facet normal -0.956941 0.290282 0
    outer loop
      vertex 3.92314 -0.780361 3
      vertex 3.69552 -1.53073 1.19
      vertex 3.69552 -1.53073 3
    endloop
  endfacet
  facet normal -0.773013 -0.63439 0
    outer loop
      vertex 3.32588 2.22228 1.19
      vertex 2.82843 2.82843 3
      vertex 2.82843 2.82843 1.19
    endloop
  endfacet
  facet normal -0.773013 -0.63439 0
    outer loop
      vertex 2.82843 2.82843 3
      vertex 3.32588 2.22228 1.19
      vertex 3.32588 2.22228 3
    endloop
  endfacet
  facet normal 0.995185 -0.0980186 0
    outer loop
      vertex -4 0 3
      vertex -3.92314 0.780361 1.19
      vertex -3.92314 0.780361 3
    endloop
  endfacet
  facet normal 0.995185 -0.0980186 0
    outer loop
      vertex -3.92314 0.780361 1.19
      vertex -4 0 3
      vertex -4 0 1.19
    endloop
  endfacet
  facet normal -0.63439 0.773013 0
    outer loop
      vertex 2.82843 -2.82843 1.19
      vertex 2.22228 -3.32588 3
      vertex 2.82843 -2.82843 3
    endloop
  endfacet
  facet normal -0.63439 0.773013 0
    outer loop
      vertex 2.22228 -3.32588 3
      vertex 2.82843 -2.82843 1.19
      vertex 2.22228 -3.32588 1.19
    endloop
  endfacet
  facet normal 0.63439 0.773013 -0
    outer loop
      vertex -2.22228 -3.32588 1.19
      vertex -2.82843 -2.82843 3
      vertex -2.22228 -3.32588 3
    endloop
  endfacet
  facet normal 0.63439 0.773013 0
    outer loop
      vertex -2.82843 -2.82843 3
      vertex -2.22228 -3.32588 1.19
      vertex -2.82843 -2.82843 1.19
    endloop
  endfacet
  facet normal 0.0980186 -0.995185 0
    outer loop
      vertex -0.780361 3.92314 1.19
      vertex 0 4 3
      vertex -0.780361 3.92314 3
    endloop
  endfacet
  facet normal 0.0980186 -0.995185 0
    outer loop
      vertex 0 4 3
      vertex -0.780361 3.92314 1.19
      vertex 0 4 1.19
    endloop
  endfacet
  facet normal -0.881922 0.471396 0
    outer loop
      vertex 3.32588 -2.22228 1.19
      vertex 3.69552 -1.53073 3
      vertex 3.69552 -1.53073 1.19
    endloop
  endfacet
  facet normal -0.881922 0.471396 0
    outer loop
      vertex 3.69552 -1.53073 3
      vertex 3.32588 -2.22228 1.19
      vertex 3.32588 -2.22228 3
    endloop
  endfacet
  facet normal 0.956941 0.290282 0
    outer loop
      vertex -3.69552 -1.53073 3
      vertex -3.92314 -0.780361 1.19
      vertex -3.92314 -0.780361 3
    endloop
  endfacet
  facet normal 0.956941 0.290282 0
    outer loop
      vertex -3.92314 -0.780361 1.19
      vertex -3.69552 -1.53073 3
      vertex -3.69552 -1.53073 1.19
    endloop
  endfacet
  facet normal 0.995185 0.0980186 0
    outer loop
      vertex -3.92314 -0.780361 3
      vertex -4 0 1.19
      vertex -4 0 3
    endloop
  endfacet
  facet normal 0.995185 0.0980186 0
    outer loop
      vertex -4 0 1.19
      vertex -3.92314 -0.780361 3
      vertex -3.92314 -0.780361 1.19
    endloop
  endfacet
  facet normal 0.773013 0.63439 0
    outer loop
      vertex -2.82843 -2.82843 3
      vertex -3.32588 -2.22228 1.19
      vertex -3.32588 -2.22228 3
    endloop
  endfacet
  facet normal 0.773013 0.63439 0
    outer loop
      vertex -3.32588 -2.22228 1.19
      vertex -2.82843 -2.82843 3
      vertex -2.82843 -2.82843 1.19
    endloop
  endfacet
  facet normal 0.773013 -0.63439 0
    outer loop
      vertex -3.32588 2.22228 3
      vertex -2.82843 2.82843 1.19
      vertex -2.82843 2.82843 3
    endloop
  endfacet
  facet normal 0.773013 -0.63439 0
    outer loop
      vertex -2.82843 2.82843 1.19
      vertex -3.32588 2.22228 3
      vertex -3.32588 2.22228 1.19
    endloop
  endfacet
  facet normal 0.956941 -0.290282 0
    outer loop
      vertex -3.92314 0.780361 3
      vertex -3.69552 1.53073 1.19
      vertex -3.69552 1.53073 3
    endloop
  endfacet
  facet normal 0.956941 -0.290282 0
    outer loop
      vertex -3.69552 1.53073 1.19
      vertex -3.92314 0.780361 3
      vertex -3.92314 0.780361 1.19
    endloop
  endfacet
  facet normal 0.471396 0.881922 -0
    outer loop
      vertex -1.53073 -3.69552 1.19
      vertex -2.22228 -3.32588 3
      vertex -1.53073 -3.69552 3
    endloop
  endfacet
  facet normal 0.471396 0.881922 0
    outer loop
      vertex -2.22228 -3.32588 3
      vertex -1.53073 -3.69552 1.19
      vertex -2.22228 -3.32588 1.19
    endloop
  endfacet
endsolid OpenSCAD_Model
