solid OpenSCAD_Model
  facet normal 0.931338 0.338979 -0.133048
    outer loop
      vertex 65.6932 0 0
      vertex 50.3239 42.2268 0
      vertex 67.6932 0 14
    endloop
  endfacet
  facet normal -0.759234 0.637073 -0.133047
    outer loop
      vertex -61.7314 22.4684 0
      vertex -63.6108 23.1524 14
      vertex -33.8466 58.624 14
    endloop
  endfacet
  facet normal 0.931338 -0.338979 -0.133048
    outer loop
      vertex 67.6932 0 14
      vertex 50.3239 -42.2268 0
      vertex 65.6932 0 0
    endloop
  endfacet
  facet normal -0.759235 0.637073 -0.133046
    outer loop
      vertex -32.8466 56.892 0
      vertex -61.7314 22.4684 0
      vertex -33.8466 58.624 14
    endloop
  endfacet
  facet normal 0.495555 -0.858326 -0.133048
    outer loop
      vertex 11.7548 -66.6648 14
      vertex 11.4075 -64.6952 0
      vertex 50.3239 -42.2268 0
    endloop
  endfacet
  facet normal 0 0 -1
    outer loop
      vertex 50.3239 -42.2268 0
      vertex 50.3239 42.2268 0
      vertex 65.6932 0 0
    endloop
  endfacet
  facet normal 0 0 -1
    outer loop
      vertex 11.4075 -64.6952 0
      vertex 50.3239 42.2268 0
      vertex 50.3239 -42.2268 0
    endloop
  endfacet
  facet normal 0 0 -1
    outer loop
      vertex 11.4075 -64.6952 0
      vertex 11.4075 64.6952 0
      vertex 50.3239 42.2268 0
    endloop
  endfacet
  facet normal 0 0 -1
    outer loop
      vertex -32.8466 -56.892 0
      vertex 11.4075 64.6952 0
      vertex 11.4075 -64.6952 0
    endloop
  endfacet
  facet normal 0 0 -1
    outer loop
      vertex -32.8466 -56.892 0
      vertex -32.8466 56.892 0
      vertex 11.4075 64.6952 0
    endloop
  endfacet
  facet normal 0 0 -1
    outer loop
      vertex -61.7314 -22.4684 0
      vertex -32.8466 56.892 0
      vertex -32.8466 -56.892 0
    endloop
  endfacet
  facet normal 0 0 -1
    outer loop
      vertex -32.8466 56.892 0
      vertex -61.7314 -22.4684 0
      vertex -61.7314 22.4684 0
    endloop
  endfacet
  facet normal -0.172105 -0.976052 -0.133047
    outer loop
      vertex 11.7548 -66.6648 14
      vertex -33.8466 -58.624 14
      vertex 11.4075 -64.6952 0
    endloop
  endfacet
  facet normal 0.495554 0.858326 -0.13305
    outer loop
      vertex 50.3239 42.2268 0
      vertex 11.7548 66.6648 14
      vertex 51.856 43.5124 14
    endloop
  endfacet
  facet normal 0.495554 -0.858326 -0.13305
    outer loop
      vertex 51.856 -43.5124 14
      vertex 11.7548 -66.6648 14
      vertex 50.3239 -42.2268 0
    endloop
  endfacet
  facet normal 0.931338 -0.338979 -0.13305
    outer loop
      vertex 51.856 -43.5124 14
      vertex 50.3239 -42.2268 0
      vertex 67.6932 0 14
    endloop
  endfacet
  facet normal -0.172105 0.976052 -0.133047
    outer loop
      vertex 11.4075 64.6952 0
      vertex -33.8466 58.624 14
      vertex 11.7548 66.6648 14
    endloop
  endfacet
  facet normal 0.495555 0.858326 -0.133048
    outer loop
      vertex 50.3239 42.2268 0
      vertex 11.4075 64.6952 0
      vertex 11.7548 66.6648 14
    endloop
  endfacet
  facet normal 0 0 1
    outer loop
      vertex 67.6932 0 14
      vertex 52.1692 34.6928 14
      vertex 64.7963 0 14
    endloop
  endfacet
  facet normal 0 0 1
    outer loop
      vertex 51.856 43.5124 14
      vertex 52.1692 34.6928 14
      vertex 67.6932 0 14
    endloop
  endfacet
  facet normal 0 0 1
    outer loop
      vertex 51.856 43.5124 14
      vertex 49.6369 41.6503 14
      vertex 52.1692 34.6928 14
    endloop
  endfacet
  facet normal 0 0 1
    outer loop
      vertex 51.856 43.5124 14
      vertex 43.2248 45.3522 14
      vertex 49.6369 41.6503 14
    endloop
  endfacet
  facet normal 0 0 1
    outer loop
      vertex 11.7548 66.6648 14
      vertex 43.2248 45.3522 14
      vertex 51.856 43.5124 14
    endloop
  endfacet
  facet normal 0 0 1
    outer loop
      vertex 11.7548 66.6648 14
      vertex 11.2518 63.8119 14
      vertex 43.2248 45.3522 14
    endloop
  endfacet
  facet normal 0 0 1
    outer loop
      vertex 11.7548 66.6648 14
      vertex -25.1067 57.4009 14
      vertex 11.2518 63.8119 14
    endloop
  endfacet
  facet normal -0 0 1
    outer loop
      vertex -33.8466 58.624 14
      vertex -25.1067 57.4009 14
      vertex 11.7548 66.6648 14
    endloop
  endfacet
  facet normal 0 0 1
    outer loop
      vertex -25.1067 57.4009 14
      vertex -33.8466 58.624 14
      vertex -32.3982 56.1153 14
    endloop
  endfacet
  facet normal 0 0 1
    outer loop
      vertex -33.8466 58.624 14
      vertex -37.1573 50.4435 14
      vertex -32.3982 56.1153 14
    endloop
  endfacet
  facet normal 0 0 1
    outer loop
      vertex -63.6108 23.1524 14
      vertex -37.1573 50.4435 14
      vertex -33.8466 58.624 14
    endloop
  endfacet
  facet normal 0 0 1
    outer loop
      vertex -60.8886 22.1616 14
      vertex -63.6108 23.1524 14
      vertex -60.8886 -22.1616 14
    endloop
  endfacet
  facet normal 0 0 1
    outer loop
      vertex -37.1573 50.4435 14
      vertex -63.6108 23.1524 14
      vertex -60.8886 22.1616 14
    endloop
  endfacet
  facet normal 0 0 1
    outer loop
      vertex 52.1692 -34.6928 14
      vertex 67.6932 0 14
      vertex 64.7963 0 14
    endloop
  endfacet
  facet normal -0 0 1
    outer loop
      vertex 52.1692 -34.6928 14
      vertex 51.856 -43.5124 14
      vertex 67.6932 0 14
    endloop
  endfacet
  facet normal -0 0 1
    outer loop
      vertex 49.6369 -41.6503 14
      vertex 51.856 -43.5124 14
      vertex 52.1692 -34.6928 14
    endloop
  endfacet
  facet normal 0 0 1
    outer loop
      vertex 43.2248 -45.3522 14
      vertex 51.856 -43.5124 14
      vertex 49.6369 -41.6503 14
    endloop
  endfacet
  facet normal -0 0 1
    outer loop
      vertex 43.2248 -45.3522 14
      vertex 11.7548 -66.6648 14
      vertex 51.856 -43.5124 14
    endloop
  endfacet
  facet normal -0 0 1
    outer loop
      vertex 11.2518 -63.8119 14
      vertex 11.7548 -66.6648 14
      vertex 43.2248 -45.3522 14
    endloop
  endfacet
  facet normal 0 0 1
    outer loop
      vertex -25.1067 -57.4009 14
      vertex 11.7548 -66.6648 14
      vertex 11.2518 -63.8119 14
    endloop
  endfacet
  facet normal 0 0 1
    outer loop
      vertex -33.8466 -58.624 14
      vertex -25.1067 -57.4009 14
      vertex -32.3982 -56.1153 14
    endloop
  endfacet
  facet normal 0 0 1
    outer loop
      vertex -25.1067 -57.4009 14
      vertex -33.8466 -58.624 14
      vertex 11.7548 -66.6648 14
    endloop
  endfacet
  facet normal 0 0 1
    outer loop
      vertex -37.1573 -50.4435 14
      vertex -33.8466 -58.624 14
      vertex -32.3982 -56.1153 14
    endloop
  endfacet
  facet normal -0 0 1
    outer loop
      vertex -63.6108 -23.1524 14
      vertex -37.1573 -50.4435 14
      vertex -60.8886 -22.1616 14
    endloop
  endfacet
  facet normal 0 0 1
    outer loop
      vertex -37.1573 -50.4435 14
      vertex -63.6108 -23.1524 14
      vertex -33.8466 -58.624 14
    endloop
  endfacet
  facet normal 0 0 1
    outer loop
      vertex -63.6108 -23.1524 14
      vertex -60.8886 -22.1616 14
      vertex -63.6108 23.1524 14
    endloop
  endfacet
  facet normal 0.931338 0.338979 -0.13305
    outer loop
      vertex 67.6932 0 14
      vertex 50.3239 42.2268 0
      vertex 51.856 43.5124 14
    endloop
  endfacet
  facet normal -0.759234 -0.637073 -0.133047
    outer loop
      vertex -33.8466 -58.624 14
      vertex -63.6108 -23.1524 14
      vertex -61.7314 -22.4684 0
    endloop
  endfacet
  facet normal -0.991109 0 -0.133049
    outer loop
      vertex -61.7314 -22.4684 0
      vertex -63.6108 23.1524 14
      vertex -61.7314 22.4684 0
    endloop
  endfacet
  facet normal -0.991109 -0 -0.133049
    outer loop
      vertex -63.6108 23.1524 14
      vertex -61.7314 -22.4684 0
      vertex -63.6108 -23.1524 14
    endloop
  endfacet
  facet normal -0.759235 -0.637073 -0.133046
    outer loop
      vertex -33.8466 -58.624 14
      vertex -61.7314 -22.4684 0
      vertex -32.8466 -56.892 0
    endloop
  endfacet
  facet normal -0.172105 -0.976053 -0.133045
    outer loop
      vertex 11.4075 -64.6952 0
      vertex -33.8466 -58.624 14
      vertex -32.8466 -56.892 0
    endloop
  endfacet
  facet normal -0.172105 0.976053 -0.133045
    outer loop
      vertex -32.8466 56.892 0
      vertex -33.8466 58.624 14
      vertex 11.4075 64.6952 0
    endloop
  endfacet
  facet normal -0.495557 -0.858326 0.133045
    outer loop
      vertex 43.2248 45.3522 14
      vertex 11.2518 63.8119 14
      vertex 10.964 62.18 2.4
    endloop
  endfacet
  facet normal -0.495557 0.858326 0.133045
    outer loop
      vertex 11.2518 -63.8119 14
      vertex 43.2248 -45.3522 14
      vertex 10.964 -62.18 2.4
    endloop
  endfacet
  facet normal -0.931339 -0.338978 0.133045
    outer loop
      vertex 63.1392 0 2.4
      vertex 64.7963 0 14
      vertex 52.1692 34.6928 14
    endloop
  endfacet
  facet normal -0.931339 -0.338977 0.133053
    outer loop
      vertex 48.3674 40.5851 2.4
      vertex 52.1692 34.6928 14
      vertex 49.6369 41.6503 14
    endloop
  endfacet
  facet normal -0.931338 -0.33898 0.133051
    outer loop
      vertex 52.1692 34.6928 14
      vertex 48.3674 40.5851 2.4
      vertex 63.1392 0 2.4
    endloop
  endfacet
  facet normal -0.931338 0.33898 0.133051
    outer loop
      vertex 48.3674 -40.5851 2.4
      vertex 52.1692 -34.6928 14
      vertex 63.1392 0 2.4
    endloop
  endfacet
  facet normal -0.931339 0.338977 0.133053
    outer loop
      vertex 52.1692 -34.6928 14
      vertex 48.3674 -40.5851 2.4
      vertex 49.6369 -41.6503 14
    endloop
  endfacet
  facet normal 0.172105 -0.976053 0.133042
    outer loop
      vertex 10.964 62.18 2.4
      vertex 11.2518 63.8119 14
      vertex -25.1067 57.4009 14
    endloop
  endfacet
  facet normal 0.75924 -0.637064 0.133054
    outer loop
      vertex -37.1573 50.4435 14
      vertex -31.5696 54.6801 2.4
      vertex -32.3982 56.1153 14
    endloop
  endfacet
  facet normal 0.759234 -0.637073 0.133047
    outer loop
      vertex -31.5696 54.6801 2.4
      vertex -37.1573 50.4435 14
      vertex -59.3314 21.5949 2.4
    endloop
  endfacet
  facet normal -0.931339 0.338978 0.133045
    outer loop
      vertex 64.7963 0 14
      vertex 63.1392 0 2.4
      vertex 52.1692 -34.6928 14
    endloop
  endfacet
  facet normal 0.759235 -0.637073 0.133044
    outer loop
      vertex -59.3314 21.5949 2.4
      vertex -37.1573 50.4435 14
      vertex -60.8886 22.1616 14
    endloop
  endfacet
  facet normal -0.495542 0.858333 0.133051
    outer loop
      vertex 48.3674 -40.5851 2.4
      vertex 43.2248 -45.3522 14
      vertex 49.6369 -41.6503 14
    endloop
  endfacet
  facet normal -0.495556 0.858326 0.133042
    outer loop
      vertex 43.2248 -45.3522 14
      vertex 48.3674 -40.5851 2.4
      vertex 10.964 -62.18 2.4
    endloop
  endfacet
  facet normal 0.172105 0.976053 0.133042
    outer loop
      vertex 11.2518 -63.8119 14
      vertex 10.964 -62.18 2.4
      vertex -25.1067 -57.4009 14
    endloop
  endfacet
  facet normal 0.99111 0 0.133048
    outer loop
      vertex -60.8886 22.1616 14
      vertex -59.3314 -21.5949 2.4
      vertex -59.3314 21.5949 2.4
    endloop
  endfacet
  facet normal 0.99111 0 0.133048
    outer loop
      vertex -59.3314 -21.5949 2.4
      vertex -60.8886 22.1616 14
      vertex -60.8886 -22.1616 14
    endloop
  endfacet
  facet normal 0 0 1
    outer loop
      vertex 48.3674 40.5851 2.4
      vertex 48.3674 -40.5851 2.4
      vertex 63.1392 0 2.4
    endloop
  endfacet
  facet normal 0 0 1
    outer loop
      vertex 10.964 62.18 2.4
      vertex 48.3674 -40.5851 2.4
      vertex 48.3674 40.5851 2.4
    endloop
  endfacet
  facet normal 0 0 1
    outer loop
      vertex 10.964 62.18 2.4
      vertex 10.964 -62.18 2.4
      vertex 48.3674 -40.5851 2.4
    endloop
  endfacet
  facet normal -0 0 1
    outer loop
      vertex -31.5696 54.6801 2.4
      vertex 10.964 -62.18 2.4
      vertex 10.964 62.18 2.4
    endloop
  endfacet
  facet normal 0 0 1
    outer loop
      vertex -31.5696 54.6801 2.4
      vertex -31.5696 -54.6801 2.4
      vertex 10.964 -62.18 2.4
    endloop
  endfacet
  facet normal -0 0 1
    outer loop
      vertex -59.3314 21.5949 2.4
      vertex -31.5696 -54.6801 2.4
      vertex -31.5696 54.6801 2.4
    endloop
  endfacet
  facet normal 0 0 1
    outer loop
      vertex -31.5696 -54.6801 2.4
      vertex -59.3314 21.5949 2.4
      vertex -59.3314 -21.5949 2.4
    endloop
  endfacet
  facet normal 0.759235 0.637073 0.133044
    outer loop
      vertex -37.1573 -50.4435 14
      vertex -59.3314 -21.5949 2.4
      vertex -60.8886 -22.1616 14
    endloop
  endfacet
  facet normal -0.495556 -0.858326 0.133042
    outer loop
      vertex 48.3674 40.5851 2.4
      vertex 43.2248 45.3522 14
      vertex 10.964 62.18 2.4
    endloop
  endfacet
  facet normal -0.495542 -0.858333 0.133051
    outer loop
      vertex 43.2248 45.3522 14
      vertex 48.3674 40.5851 2.4
      vertex 49.6369 41.6503 14
    endloop
  endfacet
  facet normal 0.759234 0.637073 0.133047
    outer loop
      vertex -37.1573 -50.4435 14
      vertex -31.5696 -54.6801 2.4
      vertex -59.3314 -21.5949 2.4
    endloop
  endfacet
  facet normal 0.75924 0.637064 0.133054
    outer loop
      vertex -31.5696 -54.6801 2.4
      vertex -37.1573 -50.4435 14
      vertex -32.3982 -56.1153 14
    endloop
  endfacet
  facet normal 0.172106 0.976052 0.133046
    outer loop
      vertex -31.5696 -54.6801 2.4
      vertex -25.1067 -57.4009 14
      vertex 10.964 -62.18 2.4
    endloop
  endfacet
  facet normal 0.172093 0.976054 0.133054
    outer loop
      vertex -25.1067 -57.4009 14
      vertex -31.5696 -54.6801 2.4
      vertex -32.3982 -56.1153 14
    endloop
  endfacet
  facet normal 0.172093 -0.976054 0.133054
    outer loop
      vertex -31.5696 54.6801 2.4
      vertex -25.1067 57.4009 14
      vertex -32.3982 56.1153 14
    endloop
  endfacet
  facet normal 0.172106 -0.976052 0.133046
    outer loop
      vertex -25.1067 57.4009 14
      vertex -31.5696 54.6801 2.4
      vertex 10.964 62.18 2.4
    endloop
  endfacet
endsolid OpenSCAD_Model
