solid OpenSCAD_Model
  facet normal 0 1 -0
    outer loop
      vertex 5 40 5
      vertex 0 40 12
      vertex 5 40 12
    endloop
  endfacet
  facet normal 0 1 0
    outer loop
      vertex 5 40 5
      vertex 0 40 0
      vertex 0 40 12
    endloop
  endfacet
  facet normal 0 1 0
    outer loop
      vertex 23 40 5
      vertex 0 40 0
      vertex 5 40 5
    endloop
  endfacet
  facet normal 0 1 0
    outer loop
      vertex 65.5672 40 84.4546
      vertex 69 40 29.4703
      vertex 60 40 43.8703
    endloop
  endfacet
  facet normal 0 1 0
    outer loop
      vertex 69 40 29.4703
      vertex 85 40 5
      vertex 60 40 15.0703
    endloop
  endfacet
  facet normal 0 1 0
    outer loop
      vertex 85 40 5
      vertex 69 40 29.4703
      vertex 65.5672 40 84.4546
    endloop
  endfacet
  facet normal 0 1 0
    outer loop
      vertex 60 40 43.8703
      vertex 61.0356 40 86.5677
      vertex 65.5672 40 84.4546
    endloop
  endfacet
  facet normal 0 1 0
    outer loop
      vertex 51 40 29.4703
      vertex 61.0356 40 86.5677
      vertex 60 40 43.8703
    endloop
  endfacet
  facet normal 0 1 -0
    outer loop
      vertex 51 40 29.4703
      vertex 23 40 5
      vertex 61.0356 40 86.5677
    endloop
  endfacet
  facet normal 0 1 0
    outer loop
      vertex 60 40 15.0703
      vertex 23 40 5
      vertex 51 40 29.4703
    endloop
  endfacet
  facet normal 0 1 -0
    outer loop
      vertex 85 40 0
      vertex 60 40 15.0703
      vertex 85 40 5
    endloop
  endfacet
  facet normal 0 1 0
    outer loop
      vertex 60 40 15.0703
      vertex 85 40 0
      vertex 23 40 5
    endloop
  endfacet
  facet normal 0 1 0
    outer loop
      vertex 0 40 0
      vertex 23 40 5
      vertex 85 40 0
    endloop
  endfacet
  facet normal 0 -1 0
    outer loop
      vertex 0 -40 12
      vertex 5 -40 5
      vertex 5 -40 12
    endloop
  endfacet
  facet normal 0 -1 0
    outer loop
      vertex 0 -40 0
      vertex 23 -40 5
      vertex 5 -40 5
    endloop
  endfacet
  facet normal 0 -1 0
    outer loop
      vertex 0 -40 0
      vertex 5 -40 5
      vertex 0 -40 12
    endloop
  endfacet
  facet normal 0 -1 -0
    outer loop
      vertex 23 -40 5
      vertex 0 -40 0
      vertex 85 -40 0
    endloop
  endfacet
  facet normal 0 -1 0
    outer loop
      vertex 23 -40 5
      vertex 85 -40 0
      vertex 85 -40 5
    endloop
  endfacet
  facet normal 0 -1 -0
    outer loop
      vertex 61.0356 -40 86.5677
      vertex 60 -40 43.8703
      vertex 65.5672 -40 84.4546
    endloop
  endfacet
  facet normal 0 -1 0
    outer loop
      vertex 61.0356 -40 86.5677
      vertex 51 -40 29.4703
      vertex 60 -40 43.8703
    endloop
  endfacet
  facet normal 0 -1 -0
    outer loop
      vertex 51 -40 29.4703
      vertex 23 -40 5
      vertex 60 -40 15.0703
    endloop
  endfacet
  facet normal 0 -1 0
    outer loop
      vertex 23 -40 5
      vertex 51 -40 29.4703
      vertex 61.0356 -40 86.5677
    endloop
  endfacet
  facet normal 0 -1 0
    outer loop
      vertex 69 -40 29.4703
      vertex 65.5672 -40 84.4546
      vertex 60 -40 43.8703
    endloop
  endfacet
  facet normal 0 -1 0
    outer loop
      vertex 69 -40 29.4703
      vertex 85 -40 5
      vertex 65.5672 -40 84.4546
    endloop
  endfacet
  facet normal 0 -1 0
    outer loop
      vertex 60 -40 15.0703
      vertex 85 -40 5
      vertex 69 -40 29.4703
    endloop
  endfacet
  facet normal 0 -1 0
    outer loop
      vertex 85 -40 5
      vertex 60 -40 15.0703
      vertex 23 -40 5
    endloop
  endfacet
  facet normal 0.971369 -0 0.237575
    outer loop
      vertex 65.5672 -40 84.4546
      vertex 85 40 5
      vertex 65.5672 40 84.4546
    endloop
  endfacet
  facet normal 0.971369 0 0.237575
    outer loop
      vertex 85 40 5
      vertex 65.5672 -40 84.4546
      vertex 85 -40 5
    endloop
  endfacet
  facet normal 0.422615 0 0.906309
    outer loop
      vertex 61.0356 40 86.5677
      vertex 65.5672 -40 84.4546
      vertex 65.5672 40 84.4546
    endloop
  endfacet
  facet normal 0.422615 0 0.906309
    outer loop
      vertex 65.5672 -40 84.4546
      vertex 61.0356 40 86.5677
      vertex 61.0356 -40 86.5677
    endloop
  endfacet
  facet normal -0.906308 0 0.422618
    outer loop
      vertex 23 0 5
      vertex 61.0356 40 86.5677
      vertex 23 40 5
    endloop
  endfacet
  facet normal -0.906308 0 0.422618
    outer loop
      vertex 61.0356 -40 86.5677
      vertex 23 0 5
      vertex 23 -6 5
    endloop
  endfacet
  facet normal -0.906308 0 0.422618
    outer loop
      vertex 61.0356 -40 86.5677
      vertex 23 -6 5
      vertex 23 -40 5
    endloop
  endfacet
  facet normal -0.906308 0 0.422618
    outer loop
      vertex 23 0 5
      vertex 61.0356 -40 86.5677
      vertex 61.0356 40 86.5677
    endloop
  endfacet
  facet normal -0 0 1
    outer loop
      vertex 5 40 5
      vertex 23 0 5
      vertex 23 40 5
    endloop
  endfacet
  facet normal 0 0 1
    outer loop
      vertex 23 0 5
      vertex 5 40 5
      vertex 5 0 5
    endloop
  endfacet
  facet normal -0 0 1
    outer loop
      vertex 5 -6 5
      vertex 23 -40 5
      vertex 23 -6 5
    endloop
  endfacet
  facet normal 0 0 1
    outer loop
      vertex 23 -40 5
      vertex 5 -6 5
      vertex 5 -40 5
    endloop
  endfacet
  facet normal 0 0 -1
    outer loop
      vertex 0 -6 5
      vertex 5 0 5
      vertex 5 -6 5
    endloop
  endfacet
  facet normal -0 0 -1
    outer loop
      vertex 5 0 5
      vertex 0 -6 5
      vertex 0 0 5
    endloop
  endfacet
  facet normal 1 0 0
    outer loop
      vertex 5 40 12
      vertex 5 0 5
      vertex 5 40 5
    endloop
  endfacet
  facet normal 1 -0 0
    outer loop
      vertex 5 -40 12
      vertex 5 0 5
      vertex 5 40 12
    endloop
  endfacet
  facet normal 1 0 0
    outer loop
      vertex 5 0 5
      vertex 5 -40 12
      vertex 5 -6 5
    endloop
  endfacet
  facet normal 1 0 0
    outer loop
      vertex 5 -6 5
      vertex 5 -40 12
      vertex 5 -40 5
    endloop
  endfacet
  facet normal -0 0 1
    outer loop
      vertex 0 40 12
      vertex 5 -40 12
      vertex 5 40 12
    endloop
  endfacet
  facet normal 0 0 1
    outer loop
      vertex 5 -40 12
      vertex 0 40 12
      vertex 0 -40 12
    endloop
  endfacet
  facet normal -1 0 0
    outer loop
      vertex 0 0 5
      vertex 0 40 0
      vertex 0 0 0
    endloop
  endfacet
  facet normal -1 0 0
    outer loop
      vertex 0 40 0
      vertex 0 0 5
      vertex 0 40 12
    endloop
  endfacet
  facet normal -1 0 0
    outer loop
      vertex 0 -40 12
      vertex 0 0 5
      vertex 0 -6 5
    endloop
  endfacet
  facet normal -1 0 0
    outer loop
      vertex 0 -40 12
      vertex 0 -12 0
      vertex 0 -40 0
    endloop
  endfacet
  facet normal -1 0 0
    outer loop
      vertex 0 -12 0
      vertex 0 -40 12
      vertex 0 -6 5
    endloop
  endfacet
  facet normal -1 0 0
    outer loop
      vertex 0 0 5
      vertex 0 -40 12
      vertex 0 40 12
    endloop
  endfacet
  facet normal 0 0 -1
    outer loop
      vertex 23 0 0
      vertex 85 -40 0
      vertex 23 -12 0
    endloop
  endfacet
  facet normal 0 0 -1
    outer loop
      vertex 0 -40 0
      vertex 23 -12 0
      vertex 85 -40 0
    endloop
  endfacet
  facet normal -0 0 -1
    outer loop
      vertex 23 -12 0
      vertex 0 -40 0
      vertex 0 -12 0
    endloop
  endfacet
  facet normal 0 0 -1
    outer loop
      vertex 85 -40 0
      vertex 23 0 0
      vertex 85 40 0
    endloop
  endfacet
  facet normal 0 0 -1
    outer loop
      vertex 0 40 0
      vertex 23 0 0
      vertex 0 0 0
    endloop
  endfacet
  facet normal 0 0 -1
    outer loop
      vertex 23 0 0
      vertex 0 40 0
      vertex 85 40 0
    endloop
  endfacet
  facet normal 1 -0 0
    outer loop
      vertex 85 -40 5
      vertex 85 40 0
      vertex 85 40 5
    endloop
  endfacet
  facet normal 1 0 0
    outer loop
      vertex 85 40 0
      vertex 85 -40 5
      vertex 85 -40 0
    endloop
  endfacet
  facet normal 0.847998 0 -0.529999
    outer loop
      vertex 60 -40 43.8703
      vertex 51 40 29.4703
      vertex 60 40 43.8703
    endloop
  endfacet
  facet normal 0.847998 0 -0.529999
    outer loop
      vertex 51 40 29.4703
      vertex 60 -40 43.8703
      vertex 51 -40 29.4703
    endloop
  endfacet
  facet normal -0.847998 0 -0.529999
    outer loop
      vertex 69 -40 29.4703
      vertex 60 40 43.8703
      vertex 69 40 29.4703
    endloop
  endfacet
  facet normal -0.847998 -0 -0.529999
    outer loop
      vertex 60 40 43.8703
      vertex 69 -40 29.4703
      vertex 60 -40 43.8703
    endloop
  endfacet
  facet normal -0.847998 0 0.529999
    outer loop
      vertex 60 -40 15.0703
      vertex 69 40 29.4703
      vertex 60 40 15.0703
    endloop
  endfacet
  facet normal -0.847998 0 0.529999
    outer loop
      vertex 69 40 29.4703
      vertex 60 -40 15.0703
      vertex 69 -40 29.4703
    endloop
  endfacet
  facet normal 0.847998 -0 0.529999
    outer loop
      vertex 51 -40 29.4703
      vertex 60 40 15.0703
      vertex 51 40 29.4703
    endloop
  endfacet
  facet normal 0.847998 0 0.529999
    outer loop
      vertex 60 40 15.0703
      vertex 51 -40 29.4703
      vertex 60 -40 15.0703
    endloop
  endfacet
  facet normal 0 -1 0
    outer loop
      vertex 0 0 0
      vertex 5 0 5
      vertex 0 0 5
    endloop
  endfacet
  facet normal 0 -1 0
    outer loop
      vertex 23 0 0
      vertex 5 0 5
      vertex 0 0 0
    endloop
  endfacet
  facet normal 0 -1 0
    outer loop
      vertex 5 0 5
      vertex 23 0 0
      vertex 23 0 5
    endloop
  endfacet
  facet normal -1 0 0
    outer loop
      vertex 23 0 0
      vertex 23 -6 5
      vertex 23 0 5
    endloop
  endfacet
  facet normal -1 0 -0
    outer loop
      vertex 23 -6 5
      vertex 23 0 0
      vertex 23 -12 0
    endloop
  endfacet
  facet normal 0 0.640184 -0.768221
    outer loop
      vertex 23 -12 0
      vertex 5 -6 5
      vertex 23 -6 5
    endloop
  endfacet
  facet normal 0 0.640184 -0.768221
    outer loop
      vertex 0 -12 0
      vertex 5 -6 5
      vertex 23 -12 0
    endloop
  endfacet
  facet normal 0 0.640184 -0.768221
    outer loop
      vertex 5 -6 5
      vertex 0 -12 0
      vertex 0 -6 5
    endloop
  endfacet
endsolid OpenSCAD_Model
