solid OpenSCAD_Model
  facet normal 0 1 -0
    outer loop
      vertex 5 40 5
      vertex 0 40 12
      vertex 5 40 12
    endloop
  endfacet
  facet normal 0 1 0
    outer loop
      vertex 5 40 5
      vertex 0 40 0
      vertex 0 40 12
    endloop
  endfacet
  facet normal 0 1 0
    outer loop
      vertex 18 40 5
      vertex 0 40 0
      vertex 5 40 5
    endloop
  endfacet
  facet normal 0 1 0
    outer loop
      vertex 60.5672 40 84.4546
      vertex 66.5 40 29.4703
      vertex 57.5 40 43.8703
    endloop
  endfacet
  facet normal 0 1 0
    outer loop
      vertex 66.5 40 29.4703
      vertex 85 40 5
      vertex 57.5 40 15.0703
    endloop
  endfacet
  facet normal 0 1 0
    outer loop
      vertex 85 40 5
      vertex 66.5 40 29.4703
      vertex 60.5672 40 84.4546
    endloop
  endfacet
  facet normal 0 1 -0
    outer loop
      vertex 57.5 40 43.8703
      vertex 56.0356 40 86.5677
      vertex 60.5672 40 84.4546
    endloop
  endfacet
  facet normal 0 1 0
    outer loop
      vertex 48.5 40 29.4703
      vertex 56.0356 40 86.5677
      vertex 57.5 40 43.8703
    endloop
  endfacet
  facet normal 0 1 -0
    outer loop
      vertex 48.5 40 29.4703
      vertex 18 40 5
      vertex 56.0356 40 86.5677
    endloop
  endfacet
  facet normal 0 1 0
    outer loop
      vertex 57.5 40 15.0703
      vertex 18 40 5
      vertex 48.5 40 29.4703
    endloop
  endfacet
  facet normal 0 1 -0
    outer loop
      vertex 85 40 0
      vertex 57.5 40 15.0703
      vertex 85 40 5
    endloop
  endfacet
  facet normal 0 1 0
    outer loop
      vertex 57.5 40 15.0703
      vertex 85 40 0
      vertex 18 40 5
    endloop
  endfacet
  facet normal 0 1 0
    outer loop
      vertex 0 40 0
      vertex 18 40 5
      vertex 85 40 0
    endloop
  endfacet
  facet normal 0 -1 0
    outer loop
      vertex 0 -40 12
      vertex 5 -40 5
      vertex 5 -40 12
    endloop
  endfacet
  facet normal 0 -1 0
    outer loop
      vertex 0 -40 0
      vertex 18 -40 5
      vertex 5 -40 5
    endloop
  endfacet
  facet normal 0 -1 0
    outer loop
      vertex 0 -40 0
      vertex 5 -40 5
      vertex 0 -40 12
    endloop
  endfacet
  facet normal 0 -1 -0
    outer loop
      vertex 18 -40 5
      vertex 0 -40 0
      vertex 85 -40 0
    endloop
  endfacet
  facet normal 0 -1 0
    outer loop
      vertex 18 -40 5
      vertex 85 -40 0
      vertex 85 -40 5
    endloop
  endfacet
  facet normal 0 -1 0
    outer loop
      vertex 56.0356 -40 86.5677
      vertex 57.5 -40 43.8703
      vertex 60.5672 -40 84.4546
    endloop
  endfacet
  facet normal 0 -1 -0
    outer loop
      vertex 56.0356 -40 86.5677
      vertex 48.5 -40 29.4703
      vertex 57.5 -40 43.8703
    endloop
  endfacet
  facet normal 0 -1 -0
    outer loop
      vertex 48.5 -40 29.4703
      vertex 18 -40 5
      vertex 57.5 -40 15.0703
    endloop
  endfacet
  facet normal 0 -1 0
    outer loop
      vertex 18 -40 5
      vertex 48.5 -40 29.4703
      vertex 56.0356 -40 86.5677
    endloop
  endfacet
  facet normal 0 -1 0
    outer loop
      vertex 66.5 -40 29.4703
      vertex 60.5672 -40 84.4546
      vertex 57.5 -40 43.8703
    endloop
  endfacet
  facet normal 0 -1 0
    outer loop
      vertex 66.5 -40 29.4703
      vertex 85 -40 5
      vertex 60.5672 -40 84.4546
    endloop
  endfacet
  facet normal 0 -1 0
    outer loop
      vertex 57.5 -40 15.0703
      vertex 85 -40 5
      vertex 66.5 -40 29.4703
    endloop
  endfacet
  facet normal 0 -1 0
    outer loop
      vertex 85 -40 5
      vertex 57.5 -40 15.0703
      vertex 18 -40 5
    endloop
  endfacet
  facet normal 0.955829 -0 0.293924
    outer loop
      vertex 60.5672 -40 84.4546
      vertex 85 40 5
      vertex 60.5672 40 84.4546
    endloop
  endfacet
  facet normal 0.955829 0 0.293924
    outer loop
      vertex 85 40 5
      vertex 60.5672 -40 84.4546
      vertex 85 -40 5
    endloop
  endfacet
  facet normal 0.422615 0 0.906309
    outer loop
      vertex 56.0356 40 86.5677
      vertex 60.5672 -40 84.4546
      vertex 60.5672 40 84.4546
    endloop
  endfacet
  facet normal 0.422615 0 0.906309
    outer loop
      vertex 60.5672 -40 84.4546
      vertex 56.0356 40 86.5677
      vertex 56.0356 -40 86.5677
    endloop
  endfacet
  facet normal -0.906308 0 0.422618
    outer loop
      vertex 18 0 5
      vertex 56.0356 40 86.5677
      vertex 18 40 5
    endloop
  endfacet
  facet normal -0.906308 0 0.422618
    outer loop
      vertex 56.0356 -40 86.5677
      vertex 18 0 5
      vertex 18 -6 5
    endloop
  endfacet
  facet normal -0.906308 0 0.422618
    outer loop
      vertex 56.0356 -40 86.5677
      vertex 18 -6 5
      vertex 18 -40 5
    endloop
  endfacet
  facet normal -0.906308 0 0.422618
    outer loop
      vertex 18 0 5
      vertex 56.0356 -40 86.5677
      vertex 56.0356 40 86.5677
    endloop
  endfacet
  facet normal -0 0 1
    outer loop
      vertex 5 40 5
      vertex 18 0 5
      vertex 18 40 5
    endloop
  endfacet
  facet normal 0 0 1
    outer loop
      vertex 18 0 5
      vertex 5 40 5
      vertex 5 0 5
    endloop
  endfacet
  facet normal -0 0 1
    outer loop
      vertex 5 -6 5
      vertex 18 -40 5
      vertex 18 -6 5
    endloop
  endfacet
  facet normal 0 0 1
    outer loop
      vertex 18 -40 5
      vertex 5 -6 5
      vertex 5 -40 5
    endloop
  endfacet
  facet normal 0 0 -1
    outer loop
      vertex 0 -6 5
      vertex 5 0 5
      vertex 5 -6 5
    endloop
  endfacet
  facet normal -0 0 -1
    outer loop
      vertex 5 0 5
      vertex 0 -6 5
      vertex 0 0 5
    endloop
  endfacet
  facet normal 1 0 0
    outer loop
      vertex 5 40 12
      vertex 5 0 5
      vertex 5 40 5
    endloop
  endfacet
  facet normal 1 -0 0
    outer loop
      vertex 5 -40 12
      vertex 5 0 5
      vertex 5 40 12
    endloop
  endfacet
  facet normal 1 0 0
    outer loop
      vertex 5 0 5
      vertex 5 -40 12
      vertex 5 -6 5
    endloop
  endfacet
  facet normal 1 0 0
    outer loop
      vertex 5 -6 5
      vertex 5 -40 12
      vertex 5 -40 5
    endloop
  endfacet
  facet normal -0 0 1
    outer loop
      vertex 0 40 12
      vertex 5 -40 12
      vertex 5 40 12
    endloop
  endfacet
  facet normal 0 0 1
    outer loop
      vertex 5 -40 12
      vertex 0 40 12
      vertex 0 -40 12
    endloop
  endfacet
  facet normal -1 0 0
    outer loop
      vertex 0 0 5
      vertex 0 40 0
      vertex 0 0 0
    endloop
  endfacet
  facet normal -1 0 0
    outer loop
      vertex 0 40 0
      vertex 0 0 5
      vertex 0 40 12
    endloop
  endfacet
  facet normal -1 0 0
    outer loop
      vertex 0 -40 12
      vertex 0 0 5
      vertex 0 -6 5
    endloop
  endfacet
  facet normal -1 0 0
    outer loop
      vertex 0 -40 12
      vertex 0 -12 0
      vertex 0 -40 0
    endloop
  endfacet
  facet normal -1 0 0
    outer loop
      vertex 0 -12 0
      vertex 0 -40 12
      vertex 0 -6 5
    endloop
  endfacet
  facet normal -1 0 0
    outer loop
      vertex 0 0 5
      vertex 0 -40 12
      vertex 0 40 12
    endloop
  endfacet
  facet normal 0 0 -1
    outer loop
      vertex 18 0 0
      vertex 85 -40 0
      vertex 18 -12 0
    endloop
  endfacet
  facet normal 0 0 -1
    outer loop
      vertex 0 -40 0
      vertex 18 -12 0
      vertex 85 -40 0
    endloop
  endfacet
  facet normal -0 0 -1
    outer loop
      vertex 18 -12 0
      vertex 0 -40 0
      vertex 0 -12 0
    endloop
  endfacet
  facet normal 0 0 -1
    outer loop
      vertex 85 -40 0
      vertex 18 0 0
      vertex 85 40 0
    endloop
  endfacet
  facet normal 0 0 -1
    outer loop
      vertex 0 40 0
      vertex 18 0 0
      vertex 0 0 0
    endloop
  endfacet
  facet normal 0 0 -1
    outer loop
      vertex 18 0 0
      vertex 0 40 0
      vertex 85 40 0
    endloop
  endfacet
  facet normal 1 -0 0
    outer loop
      vertex 85 -40 5
      vertex 85 40 0
      vertex 85 40 5
    endloop
  endfacet
  facet normal 1 0 0
    outer loop
      vertex 85 40 0
      vertex 85 -40 5
      vertex 85 -40 0
    endloop
  endfacet
  facet normal 0.847998 0 -0.529999
    outer loop
      vertex 57.5 -40 43.8703
      vertex 48.5 40 29.4703
      vertex 57.5 40 43.8703
    endloop
  endfacet
  facet normal 0.847998 0 -0.529999
    outer loop
      vertex 48.5 40 29.4703
      vertex 57.5 -40 43.8703
      vertex 48.5 -40 29.4703
    endloop
  endfacet
  facet normal -0.847998 0 -0.529999
    outer loop
      vertex 66.5 -40 29.4703
      vertex 57.5 40 43.8703
      vertex 66.5 40 29.4703
    endloop
  endfacet
  facet normal -0.847998 -0 -0.529999
    outer loop
      vertex 57.5 40 43.8703
      vertex 66.5 -40 29.4703
      vertex 57.5 -40 43.8703
    endloop
  endfacet
  facet normal -0.847998 0 0.529999
    outer loop
      vertex 57.5 -40 15.0703
      vertex 66.5 40 29.4703
      vertex 57.5 40 15.0703
    endloop
  endfacet
  facet normal -0.847998 0 0.529999
    outer loop
      vertex 66.5 40 29.4703
      vertex 57.5 -40 15.0703
      vertex 66.5 -40 29.4703
    endloop
  endfacet
  facet normal 0.847998 -0 0.529999
    outer loop
      vertex 48.5 -40 29.4703
      vertex 57.5 40 15.0703
      vertex 48.5 40 29.4703
    endloop
  endfacet
  facet normal 0.847998 0 0.529999
    outer loop
      vertex 57.5 40 15.0703
      vertex 48.5 -40 29.4703
      vertex 57.5 -40 15.0703
    endloop
  endfacet
  facet normal 0 -1 0
    outer loop
      vertex 0 0 0
      vertex 5 0 5
      vertex 0 0 5
    endloop
  endfacet
  facet normal 0 -1 0
    outer loop
      vertex 18 0 0
      vertex 5 0 5
      vertex 0 0 0
    endloop
  endfacet
  facet normal 0 -1 0
    outer loop
      vertex 5 0 5
      vertex 18 0 0
      vertex 18 0 5
    endloop
  endfacet
  facet normal -1 0 0
    outer loop
      vertex 18 0 0
      vertex 18 -6 5
      vertex 18 0 5
    endloop
  endfacet
  facet normal -1 0 -0
    outer loop
      vertex 18 -6 5
      vertex 18 0 0
      vertex 18 -12 0
    endloop
  endfacet
  facet normal 0 0.640184 -0.768221
    outer loop
      vertex 18 -12 0
      vertex 5 -6 5
      vertex 18 -6 5
    endloop
  endfacet
  facet normal 0 0.640184 -0.768221
    outer loop
      vertex 0 -12 0
      vertex 5 -6 5
      vertex 18 -12 0
    endloop
  endfacet
  facet normal 0 0.640184 -0.768221
    outer loop
      vertex 5 -6 5
      vertex 0 -12 0
      vertex 0 -6 5
    endloop
  endfacet
endsolid OpenSCAD_Model
