solid OpenSCAD_Model
  facet normal 0 1 -0
    outer loop
      vertex 5 40 5
      vertex 0 40 12
      vertex 5 40 12
    endloop
  endfacet
  facet normal 0 1 0
    outer loop
      vertex 5 40 5
      vertex 0 40 0
      vertex 0 40 12
    endloop
  endfacet
  facet normal 0 1 0
    outer loop
      vertex 18 40 5
      vertex 0 40 0
      vertex 5 40 5
    endloop
  endfacet
  facet normal 0 1 0
    outer loop
      vertex 67.9819 40 67.6643
      vertex 66.5 40 24.6596
      vertex 57.5 40 39.0596
    endloop
  endfacet
  facet normal 0 1 0
    outer loop
      vertex 66.5 40 24.6596
      vertex 85 40 5
      vertex 57.5 40 10.2596
    endloop
  endfacet
  facet normal 0 1 0
    outer loop
      vertex 85 40 5
      vertex 66.5 40 24.6596
      vertex 67.9819 40 67.6643
    endloop
  endfacet
  facet normal 0 1 0
    outer loop
      vertex 57.5 40 39.0596
      vertex 63.8861 40 70.5322
      vertex 67.9819 40 67.6643
    endloop
  endfacet
  facet normal 0 1 0
    outer loop
      vertex 18 40 5
      vertex 57.5 40 39.0596
      vertex 48.5 40 24.6596
    endloop
  endfacet
  facet normal 0 1 -0
    outer loop
      vertex 57.5 40 39.0596
      vertex 18 40 5
      vertex 63.8861 40 70.5322
    endloop
  endfacet
  facet normal 0 1 0
    outer loop
      vertex 57.5 40 10.2596
      vertex 18 40 5
      vertex 48.5 40 24.6596
    endloop
  endfacet
  facet normal 0 1 -0
    outer loop
      vertex 85 40 0
      vertex 57.5 40 10.2596
      vertex 85 40 5
    endloop
  endfacet
  facet normal 0 1 0
    outer loop
      vertex 57.5 40 10.2596
      vertex 85 40 0
      vertex 18 40 5
    endloop
  endfacet
  facet normal 0 1 0
    outer loop
      vertex 0 40 0
      vertex 18 40 5
      vertex 85 40 0
    endloop
  endfacet
  facet normal 0 -1 0
    outer loop
      vertex 0 -40 12
      vertex 5 -40 5
      vertex 5 -40 12
    endloop
  endfacet
  facet normal 0 -1 0
    outer loop
      vertex 0 -40 0
      vertex 18 -40 5
      vertex 5 -40 5
    endloop
  endfacet
  facet normal 0 -1 0
    outer loop
      vertex 0 -40 0
      vertex 5 -40 5
      vertex 0 -40 12
    endloop
  endfacet
  facet normal 0 -1 -0
    outer loop
      vertex 18 -40 5
      vertex 0 -40 0
      vertex 85 -40 0
    endloop
  endfacet
  facet normal 0 -1 0
    outer loop
      vertex 18 -40 5
      vertex 85 -40 0
      vertex 85 -40 5
    endloop
  endfacet
  facet normal 0 -1 -0
    outer loop
      vertex 63.8861 -40 70.5322
      vertex 57.5 -40 39.0596
      vertex 67.9819 -40 67.6643
    endloop
  endfacet
  facet normal 0 -1 0
    outer loop
      vertex 18 -40 5
      vertex 57.5 -40 39.0596
      vertex 63.8861 -40 70.5322
    endloop
  endfacet
  facet normal 0 -1 -0
    outer loop
      vertex 48.5 -40 24.6596
      vertex 18 -40 5
      vertex 57.5 -40 10.2596
    endloop
  endfacet
  facet normal 0 -1 0
    outer loop
      vertex 57.5 -40 39.0596
      vertex 18 -40 5
      vertex 48.5 -40 24.6596
    endloop
  endfacet
  facet normal 0 -1 0
    outer loop
      vertex 66.5 -40 24.6596
      vertex 67.9819 -40 67.6643
      vertex 57.5 -40 39.0596
    endloop
  endfacet
  facet normal 0 -1 0
    outer loop
      vertex 66.5 -40 24.6596
      vertex 85 -40 5
      vertex 67.9819 -40 67.6643
    endloop
  endfacet
  facet normal 0 -1 0
    outer loop
      vertex 57.5 -40 10.2596
      vertex 85 -40 5
      vertex 66.5 -40 24.6596
    endloop
  endfacet
  facet normal 0 -1 0
    outer loop
      vertex 85 -40 5
      vertex 57.5 -40 10.2596
      vertex 18 -40 5
    endloop
  endfacet
  facet normal 0.965045 -0 0.262083
    outer loop
      vertex 67.9819 -40 67.6643
      vertex 85 40 5
      vertex 67.9819 40 67.6643
    endloop
  endfacet
  facet normal 0.965045 0 0.262083
    outer loop
      vertex 85 40 5
      vertex 67.9819 -40 67.6643
      vertex 85 -40 5
    endloop
  endfacet
  facet normal 0.573575 0 0.819153
    outer loop
      vertex 63.8861 40 70.5322
      vertex 67.9819 -40 67.6643
      vertex 67.9819 40 67.6643
    endloop
  endfacet
  facet normal 0.573575 0 0.819153
    outer loop
      vertex 67.9819 -40 67.6643
      vertex 63.8861 40 70.5322
      vertex 63.8861 -40 70.5322
    endloop
  endfacet
  facet normal -0.819152 0 0.573576
    outer loop
      vertex 18 0 5
      vertex 63.8861 40 70.5322
      vertex 18 40 5
    endloop
  endfacet
  facet normal -0.819152 0 0.573576
    outer loop
      vertex 63.8861 -40 70.5322
      vertex 18 0 5
      vertex 18 -6 5
    endloop
  endfacet
  facet normal -0.819152 0 0.573576
    outer loop
      vertex 63.8861 -40 70.5322
      vertex 18 -6 5
      vertex 18 -40 5
    endloop
  endfacet
  facet normal -0.819152 0 0.573576
    outer loop
      vertex 18 0 5
      vertex 63.8861 -40 70.5322
      vertex 63.8861 40 70.5322
    endloop
  endfacet
  facet normal -0 0 1
    outer loop
      vertex 5 40 5
      vertex 18 0 5
      vertex 18 40 5
    endloop
  endfacet
  facet normal 0 0 1
    outer loop
      vertex 18 0 5
      vertex 5 40 5
      vertex 5 0 5
    endloop
  endfacet
  facet normal -0 0 1
    outer loop
      vertex 5 -6 5
      vertex 18 -40 5
      vertex 18 -6 5
    endloop
  endfacet
  facet normal 0 0 1
    outer loop
      vertex 18 -40 5
      vertex 5 -6 5
      vertex 5 -40 5
    endloop
  endfacet
  facet normal 0 0 -1
    outer loop
      vertex 0 -6 5
      vertex 5 0 5
      vertex 5 -6 5
    endloop
  endfacet
  facet normal -0 0 -1
    outer loop
      vertex 5 0 5
      vertex 0 -6 5
      vertex 0 0 5
    endloop
  endfacet
  facet normal 1 0 0
    outer loop
      vertex 5 40 12
      vertex 5 0 5
      vertex 5 40 5
    endloop
  endfacet
  facet normal 1 -0 0
    outer loop
      vertex 5 -40 12
      vertex 5 0 5
      vertex 5 40 12
    endloop
  endfacet
  facet normal 1 0 0
    outer loop
      vertex 5 0 5
      vertex 5 -40 12
      vertex 5 -6 5
    endloop
  endfacet
  facet normal 1 0 0
    outer loop
      vertex 5 -6 5
      vertex 5 -40 12
      vertex 5 -40 5
    endloop
  endfacet
  facet normal -0 0 1
    outer loop
      vertex 0 40 12
      vertex 5 -40 12
      vertex 5 40 12
    endloop
  endfacet
  facet normal 0 0 1
    outer loop
      vertex 5 -40 12
      vertex 0 40 12
      vertex 0 -40 12
    endloop
  endfacet
  facet normal -1 0 0
    outer loop
      vertex 0 0 5
      vertex 0 40 0
      vertex 0 0 0
    endloop
  endfacet
  facet normal -1 0 0
    outer loop
      vertex 0 40 0
      vertex 0 0 5
      vertex 0 40 12
    endloop
  endfacet
  facet normal -1 0 0
    outer loop
      vertex 0 -40 12
      vertex 0 0 5
      vertex 0 -6 5
    endloop
  endfacet
  facet normal -1 0 0
    outer loop
      vertex 0 -40 12
      vertex 0 -12 0
      vertex 0 -40 0
    endloop
  endfacet
  facet normal -1 0 0
    outer loop
      vertex 0 -12 0
      vertex 0 -40 12
      vertex 0 -6 5
    endloop
  endfacet
  facet normal -1 0 0
    outer loop
      vertex 0 0 5
      vertex 0 -40 12
      vertex 0 40 12
    endloop
  endfacet
  facet normal 0 0 -1
    outer loop
      vertex 18 0 0
      vertex 85 -40 0
      vertex 18 -12 0
    endloop
  endfacet
  facet normal 0 0 -1
    outer loop
      vertex 0 -40 0
      vertex 18 -12 0
      vertex 85 -40 0
    endloop
  endfacet
  facet normal -0 0 -1
    outer loop
      vertex 18 -12 0
      vertex 0 -40 0
      vertex 0 -12 0
    endloop
  endfacet
  facet normal 0 0 -1
    outer loop
      vertex 85 -40 0
      vertex 18 0 0
      vertex 85 40 0
    endloop
  endfacet
  facet normal 0 0 -1
    outer loop
      vertex 0 40 0
      vertex 18 0 0
      vertex 0 0 0
    endloop
  endfacet
  facet normal 0 0 -1
    outer loop
      vertex 18 0 0
      vertex 0 40 0
      vertex 85 40 0
    endloop
  endfacet
  facet normal 1 -0 0
    outer loop
      vertex 85 -40 5
      vertex 85 40 0
      vertex 85 40 5
    endloop
  endfacet
  facet normal 1 0 0
    outer loop
      vertex 85 40 0
      vertex 85 -40 5
      vertex 85 -40 0
    endloop
  endfacet
  facet normal 0.847998 0 -0.529999
    outer loop
      vertex 57.5 -40 39.0596
      vertex 48.5 40 24.6596
      vertex 57.5 40 39.0596
    endloop
  endfacet
  facet normal 0.847998 0 -0.529999
    outer loop
      vertex 48.5 40 24.6596
      vertex 57.5 -40 39.0596
      vertex 48.5 -40 24.6596
    endloop
  endfacet
  facet normal -0.847998 0 -0.529999
    outer loop
      vertex 66.5 -40 24.6596
      vertex 57.5 40 39.0596
      vertex 66.5 40 24.6596
    endloop
  endfacet
  facet normal -0.847998 -0 -0.529999
    outer loop
      vertex 57.5 40 39.0596
      vertex 66.5 -40 24.6596
      vertex 57.5 -40 39.0596
    endloop
  endfacet
  facet normal -0.847998 0 0.529999
    outer loop
      vertex 57.5 -40 10.2596
      vertex 66.5 40 24.6596
      vertex 57.5 40 10.2596
    endloop
  endfacet
  facet normal -0.847998 0 0.529999
    outer loop
      vertex 66.5 40 24.6596
      vertex 57.5 -40 10.2596
      vertex 66.5 -40 24.6596
    endloop
  endfacet
  facet normal 0.847998 -0 0.529999
    outer loop
      vertex 48.5 -40 24.6596
      vertex 57.5 40 10.2596
      vertex 48.5 40 24.6596
    endloop
  endfacet
  facet normal 0.847998 0 0.529999
    outer loop
      vertex 57.5 40 10.2596
      vertex 48.5 -40 24.6596
      vertex 57.5 -40 10.2596
    endloop
  endfacet
  facet normal 0 -1 0
    outer loop
      vertex 0 0 0
      vertex 5 0 5
      vertex 0 0 5
    endloop
  endfacet
  facet normal 0 -1 0
    outer loop
      vertex 18 0 0
      vertex 5 0 5
      vertex 0 0 0
    endloop
  endfacet
  facet normal 0 -1 0
    outer loop
      vertex 5 0 5
      vertex 18 0 0
      vertex 18 0 5
    endloop
  endfacet
  facet normal -1 0 0
    outer loop
      vertex 18 0 0
      vertex 18 -6 5
      vertex 18 0 5
    endloop
  endfacet
  facet normal -1 0 -0
    outer loop
      vertex 18 -6 5
      vertex 18 0 0
      vertex 18 -12 0
    endloop
  endfacet
  facet normal 0 0.640184 -0.768221
    outer loop
      vertex 18 -12 0
      vertex 5 -6 5
      vertex 18 -6 5
    endloop
  endfacet
  facet normal 0 0.640184 -0.768221
    outer loop
      vertex 0 -12 0
      vertex 5 -6 5
      vertex 18 -12 0
    endloop
  endfacet
  facet normal 0 0.640184 -0.768221
    outer loop
      vertex 5 -6 5
      vertex 0 -12 0
      vertex 0 -6 5
    endloop
  endfacet
endsolid OpenSCAD_Model
